<mxfile host="65bd71144e">
    <diagram id="CYBeS1tTLkgNMWEdvHnF" name="Page-1">
        <mxGraphModel dx="759" dy="1124" grid="1" gridSize="10" guides="1" tooltips="1" connect="1" arrows="1" fold="1" page="1" pageScale="1" pageWidth="583" pageHeight="827" background="#ffffff" math="0" shadow="0">
            <root>
                <mxCell id="0"/>
                <mxCell id="1" parent="0"/>
                <mxCell id="14" style="edgeStyle=none;html=1;exitX=0.212;exitY=-0.01;exitDx=0;exitDy=0;entryX=0.5;entryY=1;entryDx=0;entryDy=0;fontSize=36;strokeColor=#000000;exitPerimeter=0;" parent="1" source="12" target="2" edge="1">
                    <mxGeometry relative="1" as="geometry"/>
                </mxCell>
                <mxCell id="18" value="SASPOD1" style="edgeLabel;html=1;align=center;verticalAlign=middle;resizable=0;points=[];fontSize=16;labelBackgroundColor=#FFFFFF;labelBorderColor=none;fontColor=#000000;" parent="14" vertex="1" connectable="0">
                    <mxGeometry x="-0.1106" y="2" relative="1" as="geometry">
                        <mxPoint x="-12" y="-20" as="offset"/>
                    </mxGeometry>
                </mxCell>
                <mxCell id="15" style="edgeStyle=none;html=1;exitX=0.5;exitY=0;exitDx=0;exitDy=0;entryX=0.5;entryY=1;entryDx=0;entryDy=0;fontSize=36;strokeColor=#000000;" parent="1" source="11" target="3" edge="1">
                    <mxGeometry relative="1" as="geometry"/>
                </mxCell>
                <mxCell id="16" style="edgeStyle=none;html=1;exitX=0.753;exitY=0.01;exitDx=0;exitDy=0;entryX=0.5;entryY=1;entryDx=0;entryDy=0;fontSize=36;labelBorderColor=#000000;labelBackgroundColor=#000000;strokeColor=#000000;exitPerimeter=0;" parent="1" source="12" target="4" edge="1">
                    <mxGeometry relative="1" as="geometry"/>
                </mxCell>
                <mxCell id="35" value="" style="edgeStyle=none;html=1;fontSize=24;strokeColor=#000000;" edge="1" parent="1" source="11" target="3">
                    <mxGeometry relative="1" as="geometry"/>
                </mxCell>
                <mxCell id="36" value="" style="edgeStyle=none;html=1;fontSize=24;fontColor=#000000;strokeColor=#000000;" edge="1" parent="1" source="11" target="3">
                    <mxGeometry relative="1" as="geometry"/>
                </mxCell>
                <mxCell id="39" value="" style="edgeStyle=none;html=1;labelBackgroundColor=#FFFFFF;fontSize=16;fontColor=#000000;strokeColor=#000000;" edge="1" parent="1" source="11" target="33">
                    <mxGeometry relative="1" as="geometry"/>
                </mxCell>
                <mxCell id="11" value="" style="swimlane;startSize=0;strokeColor=#000000;" parent="1" vertex="1">
                    <mxGeometry x="150" y="260" width="260.66" height="140" as="geometry"/>
                </mxCell>
                <mxCell id="12" value="&lt;font color=&quot;#000000&quot; style=&quot;font-size: 24px ; line-height: 1&quot;&gt;LOAD BALANCER&lt;/font&gt;" style="text;html=1;align=center;verticalAlign=middle;resizable=0;points=[];autosize=1;strokeColor=none;fillColor=none;fontSize=36;labelBorderColor=#000000;" parent="11" vertex="1">
                    <mxGeometry x="20.33" y="10" width="220" height="50" as="geometry"/>
                </mxCell>
                <mxCell id="38" value="external.sasapp.com" style="text;html=1;strokeColor=none;fillColor=none;align=center;verticalAlign=middle;whiteSpace=wrap;rounded=0;labelBackgroundColor=#FFFFFF;labelBorderColor=#000000;fontSize=16;fontColor=#000000;" vertex="1" parent="11">
                    <mxGeometry x="100" y="100" width="60" height="30" as="geometry"/>
                </mxCell>
                <mxCell id="2" value="" style="shape=image;verticalLabelPosition=bottom;labelBackgroundColor=none;verticalAlign=top;aspect=fixed;imageAspect=0;image=data:image/png,iVBORw0KGgoAAAANSUhEUgAAAPAAAAEJCAYAAACqv6r3AAAK3WlDQ1BpY2MAAHjalZd3UJRXF8af993KskvbBQEpS2+i9Cq9rqD0KirLLh3WdVlAsSvBCMaCigoqCkbFHo2gxIJYsCD2XoISFNQY1GBD5fuDjyXJfDPf5Mzcub955tzn3HPn/eO8ACdUKJXmkWpAvkQuiw7x5ycmJfMZz8AAEyrQhI5QVCD1i4wMB4Dh/e/x/jYIALhhK5RK8/DvQkOcXiACiBQAaeICUT5AtADEC5FUJgcoewCYFMulcoByFQBPlpiUDFB+A8DLHOKPAHhpiUnJAJUNgCeLjQ4AqHyAyRYKZZkAewwAfpEoUw6wwwHYScTZEoA9B4C3KEsoBtjHAIzJz58uBtg9ACyLRJlSgKMGwC3tL56Zf/NPU/gLhZkKHuoLAMAMzC6Q5gln/cun+f+Rn1c4XMMcADtLFhoNQAMg7uZOD1OwJG1SxDBni4feHSDuZhWGxg2zqCAgeZjFwsAwxdm8SeHDnJEdLFD4yAWxw5xeEBQzzLLp0YpaGbIAv2EWykbqFubGKfSsdIHCvyQrNmGYi7LjJw1zQW5M2EhOgEKXFUYr7p8uCfEfqRus6D2/4C/9ZgsUZ+VZsaGK3oUj90+X+I14FiQq7iZODwwayYlT5Evl/opa0rxIRX56XohCLyiKUZyVy2JH8uWRijfMEU6IHGaEIwR8hCIQ0eDDCWGAPH2mHAACpktnybIzs+R8P6k0L50vkIjGjuE72Dk4AIlJyfyhz+FdFAgAhFb7iDZ9C+DWD1BWjmhp64CmJYD2vRHNtBZQLQUaT4sKZUVDGhUAaGBBFTzowAAmsIQtHOACT/giCBMQgVgkYSpEyEI+ZCjGHCxEGSqwEmtRjVrUYyf24iCacAyncA6XcBW38ACd6MZL9OE9BgiCYBAcgkvoEIaEGWFDOBBuhDcRRIQT0UQSkUpkEhKikJhDLCYqiEqimthKNBA/EUeJU8QF4hpxj3hC9BJvic8khWSTPFKfNCfHkW6kHxlGxpJTyExyBllClpLLyfVkHbmHbCRPkZfIW2Qn+ZLsp4CiTNGiGFFsKW6UAEoEJZmSQZFR5lHKKVWUOso+SjOljXKD0kl5RflEpVO5VD7VlupJDaXGUUXUGdR51GXUaupOaiP1DPUG9Qm1j/qNxqHp0WxoHjQBLZGWSSumldGqaNtph2lnabdo3bT3dDpdi25Bd6WH0pPoOfTZ9GX0TfT99Bb6NXoXvZ/BYOgwbBhejAiGkCFnlDE2MPYwTjKuM7oZH5nKTEOmAzOYmcyUMBcxq5i7mCeY15nPmQNKakpmSh5KEUpipVlKK5S2KTUrXVHqVhpgqbMsWF6sWFYOayFrPWsf6yzrIeudsrKysbK7cpRytvIC5fXKB5TPKz9R/sTWYFuzA9gp7EL2cvYOdgv7Hvsdh8Mx5/hykjlyznJOA+c05zHnowpXZayKQEWsMl+lRqVR5brKa1UlVTNVP9WpqiWqVaqHVK+ovlJTUjNXC1ATqs1Tq1E7qnZHrV+dq26vHqGer75MfZf6BfUeDYaGuUaQhlijVKNe47RGF5fCNeEGcEXcxdxt3LPcbh6dZ8ET8HJ4Fby9vA5en6aGppNmvOZMzRrN45qdWhQtcy2BVp7WCq2DWre1Po/SH+U3Kn3U0lH7Rl0f9UF7tLavdrp2ufZ+7Vvan3X4OkE6uTqrdJp0HulSda11o3SLdTfrntV9NZo32nO0aHT56IOj7+uRetZ60Xqz9er12vX69Q30Q/Sl+hv0T+u/MtAy8DXIMVhjcMKg15Br6G2YbbjG8KThC74m34+fx1/PP8PvM9IzCjUqNNpq1GE0YGxhHGe8yHi/8SMTlombSYbJGpNWkz5TQ9OJpnNMd5veN1MyczPLMltn1mb2wdzCPMF8iXmTeY+FtoXAosRit8VDS46lj+UMyzrLm1Z0KzerXKtNVletSWtn6yzrGusrNqSNi022zSaba2NoY9zHSMbUjbljy7b1sy2y3W37ZKzW2PCxi8Y2jX09znRc8rhV49rGfbNztsuz22b3wF7DfoL9Ivtm+7cO1g4ihxqHm44cx2DH+Y5HHN842TilO212uuvMdZ7ovMS51fmri6uLzGWfS6+rqWuq60bXO248t0i3ZW7n3Wnu/u7z3Y+5f/Jw8ZB7HPT4w9PWM9dzl2fPeIvx6eO3je/yMvYSem316vTme6d6b/Hu9DHyEfrU+Tz1NfEV+273fe5n5Zfjt8fvtb+dv8z/sP+HAI+AuQEtgZTAkMDywI4gjaC4oOqgx8HGwZnBu4P7QpxDZoe0hNJCw0JXhd4R6AtEggZB3wTXCXMnnAljh8WEVYc9DbcOl4U3TyQnTpi4euLDSWaTJJOaIhAhiFgd8SjSInJG5C9R9KjIqJqoZ9H20XOi22K4MdNidsW8j/WPXRH7IM4yrjCuNV41PiW+If5DQmBCZUJn4rjEuYmXknSTspOOJDOS45O3J/dPDpq8dnJ3inNKWcrtKRZTZk65MFV3at7U49NUpwmnHUqlpSak7kr9IowQ1gn70wRpG9P6RAGidaKXYl/xGnFvuld6ZfrzDK+MyoyeTK/M1Zm9WT5ZVVmvsgOyq7Pf5ITm1OZ8yI3I3ZE7mJeQtz+fmZ+af1SiIcmVnJluMH3m9GtSG2mZtHOGx4y1M/pkYbLtBUTBlIIjcp5cKm8vtCz8rvBJkXdRTdHH4vjiQzPVZ0pmts+ynrV01vOS4JIfZ1Nni2a3zjGas3DOk7l+c7fOI+alzWudbzK/dH73gpAFOxeyFuYuvLzIblHloj8XJyxuLtUvXVDa9V3Id7vLVMpkZXeWeC6p/Z76ffb3HUsdl25Y+q1cXH6xwq6iquLLMtGyiz/Y/7D+h8HlGcs7Vris2LySvlKy8vYqn1U7K9UrSyq7Vk9c3biGv6Z8zZ9rp629UOVUVbuOta5wXef68PVHNphuWLnhS3VW9a0a/5r9G/U2Lt34YZN40/XNvpv31erXVtR+3pK95e7WkK2NdeZ1VfX0+qL6Z9vit7X96PZjw3bd7RXbv+6Q7OjcGb3zTINrQ8MuvV0rdpO7C3f37knZc3Vv4N4j+2z3bd2vtb/iAA4UHnjxU+pPtw+GHWw95HZo389mP288zD1c3kg0zmrsa8pq6jySdOTa0QlHW5s9mw//MvaXHceMjtUc1zy+4gTrROmJwZMlJ/tbpC2vTmWe6mqd1vrgdOLpm2eiznScDTt7/lzwudNtfm0nz3udP3bB48LRi24Xmy65XGpsd24/fNn58uEOl47GK65Xjlx1v9p8bfy1E9d9rp+6EXjj3E3BzUu3Jt26djvu9t07KXc674rv9tzLu/fmftH9gQcLHtIelj9Se1T1WO9x3a9Wv+7vdOk8/iTwSfvTmKcPukRdL38r+O1Ld+kzzrOq54bPG3oceo71BvdefTH5RfdL6cuBV2W/q/++8bXl65//8P2jvS+xr/uN7M3g22XvdN7t+NPpz9b+yP7H7/PfD3wo/6jzcecnt09tnxM+Px8o/sL4sv6r1dfmb2HfHg7mDw5KhTIhAIACgMzIAN7uADhJAPcqwJo8NFsDAIih/wFgaAb53zw0fwMAXID6O0DsbCD8MrChGjDPAFRTgEgOEOsO0tFRsf4bBRmODkNebH+A9nhw8J05wFgNfF05ODhQNzj4tR6gPARaJEMzPQAY5APFDDBPGT+Uxnf9c54emvf/0uM/d4B0dHTCP/f/AM70Gn8NIwENAAAAIGNIUk0AAHomAACAhAAA+gAAAIDoAAB1MAAA6mAAADqYAAAXcJy6UTwAAAAGYktHRAD/AP8A/6C9p5MAAAAJcEhZcwAAFiUAABYlAUlSJPAAAAAHdElNRQfmBwoQEzMTTe2/AABo9klEQVR42u2dd3xUVdr4v3f6ZNJ7gVQIJUBISEFcEJGiUgRRUWworrq2te27q6+77m/f3XUt67ru2sXe1rI2bIDYUEihhxICIUAS0nuZyczc+/tjMpcEkswkMyng/X4+F5LJLefeuc85z3nOU4SJEydKKCgonJaohrsBCgoKA0cRYAWF0xhFgBUUTmMUAVZQOI1RBFhB4TRGEWAFhdMYzXA34ExFkrqszkkgIfX8NxcIgiD/7/y5p7+f8rnjsj00rHtburbJ2a6BtM/d3xW8iyLALpGQJHp4uSUcYnJCuARBQK1Wo9Fo5P+1Wm2Pm06nQ6/Xy5vzc+cxpx6rQaPRolaru12vr80plK42URSx2WxYrVZ56/q7/LPNSoelA4vFgsVixmLp6HbMycfb7Xb5f1EUu3USJz+/nv5XcM3PVoBPFsiuo45KpUKtVqNWq9BotOj1egwGA0ajEZPJhJ+fH76+vphMJnx9feXNZDLh4+OD0WjEYDCg0+nQaDSoVCpUKtUpQmW327Hb7NjsNux2Gzab44V3bicLktVqxWw2dxO8k38WJRFJdHzmFGTntXv7WaVSodVq8fX1RaPVou3SiZzY1KjVGrlzUqvV3c7lbIMoitjtdjo6HILe3t5OW1sbbW2ttLS00tLSQktLC62tzp+baW5uob29HbPZjNlsxmq1Op5Np+B3pasmogj6GSzAXQWzJ+F0CqXJZCIgIICgwEBCQkMJCQkhKCgIf39//Pz8MJlMsjCqVCokScJms2GxWDCbzZ0vZxstLS1UVFTQ3NRMU3MTTU1NNDc309bW1u3l7OjocLzcHRY6LI6fnS+sUwCcW1ehEEURURJ70Ys9x9HJCAiCSu5wum6CSkCtUsvaQ9dNr9ej1+kxGB2dnNFoxM/PD39/P8dz9A/A38+P0NBQ4uJiMRp9MBgNGPQGtFqt3AE4OyjH82ymqamZhoYGamtrqampob6+nsbGRpqbm+Xn6Xhudpxf8c9NwIXT3ZWy64gGyGqsXq/Hx8eHgIAAgoOCCQsPIyIigvDwcIKDgwkICMDHxwedTgdAR0cHbW1tNDY2Ul9fL291dXXU1dXJL49TMM1mMxaL5RQBVOgZZ0fQtQMwGAz4+voS4B+Af4A/gYGBBAcHExwcTFBQEIFBgQQHBRMYGIjJZEKv16NSqbBarbS1tdHc3Ex9fT3V1dVUVlZSVVVFbW0tDQ0NtLa2YrFYsFqt3d4Nh1ALnCmyfdoI8MmCqlar0el0mEwmgoKCCI8IJzoqmujoaMLDwwkKCsLPzw+1Wo3NZqO5uZna2loqKiqorKqiuqqK6upqampqqKuro7m5WRZMp0AqDC9Ogdfr9Jh8Tfj7O4Q8NDSU0NBQwsPDCQ8PJzIykrCwMAICAtDpdIiiSFtbG/X19dTU1HD8+HHKy8upqKiQv2uLxYLNZut2rdNxxB6RAtxVWAVBQKfT4efnR3h4ONHR0YwaNYqYmBgiIyMJCgpCq9VisViora2lvLycsrIySktLKSsro6KigpqaGhqbmmhrbcVqtQ737Sl4GbVajY+PD35+foSEhBAeHk5MTIz8nsTExBAWFobJZMJut9PU1ERVVVW396SyspLGxkbMZrOsSQkqFaoRLtTDLsDdRlYBdFod/v7+REZFER8XR2JiIvFx8YRHhGM0GjGbzVRXV3Ps2FEOHSrm0KFDHDlyhOPHj1NfX097e7uiyirICIKAXq8nMDCQ8PBwYmNjSUxMJCkpifi4eCIiI/D19cVms1FTU8PRo0cpLi6mpKSEsrIy6uvrZcNhVwv/SGFYBNhpoBEEAaPRSHh4OPHx8YwdO5axY8YSFR2FTqejqamJsrIyioqKKCws5ODBg5SXl1NXV6cIqoJHOAU7ICCA6OhoxowZw4QJExg3bhxxcXEEBgZit9upqKjg4MGD7N+/n8OHD1NRUUFrayuiKDos+ILAcE6oh0SAu46yBoOBsLAwkpKSmDxpMuMnjCc0NBSLxUJpaSl79+5l165dFBYWUl5eTmNjo6L2KgwZGo2GwMAAoqNiSB6XzOTJk0lJSWH06NEYjUYaGho4cOAABQUFHDhwgIqKCtra2pAkaVjm0YMqwM4R0mg0Mnr0aNLS0sjMyiQuNg673c6hQ4fIzc0lJzeHg0UHqa6uxmKxDOkDUFBwhV6vJyQkhISEBNLS0sjIyCA5ORmTyURNTQ3bt28nPz+f4uJimpubO7VL1ZAMzF4XYOfapU6nY9SoUZw1fTrZ06cTHR1NY2MjW7duZdOmTWzfvp3S0lLMZvPg36WCghfRaDSEhoYybtw4zjrrLGbNnMno2FgaGhrYvn07P/74I0VFRbS1tQIOR5nBwmsC7FSRAwMDSUtP49zZ55KcnExtbQ3ffvsdP/zwA3v27KG2tlaZuyqcUfj5+TJ+/ATOOecc5syZQ1xcHOXl5WzatIkfN/1IWXmZrGJ7G48F2Cm4kZGRzJ49m/POOw+TycTmzZtZu3YtOTk51NXVDdvDVVAYSvz8/EhLS2PhwoXMnj0bvV7PN998w5dffsnRo0cB73qIeSTAoihiNBqZM2cOK1asQJIkPvnkEz744AOKiooUZwiFny0qlYro6GgWL17MZZddRnBwMJ9//jlr166ltrbWa6PxgAVYFEUSExO5/vrrSUpK4oMPPuC1117j2LFj/QpHU1A40wkLC2P58uWsWrWKDquVl196iZycHK+cWx0WFvbH/h4kiiIZGRncf//9NDQ0cO+99/Lee+/T2Ngw3M9KQWHE0dbWRn5+Phs3biQhIYFrrrkGs9lMYWGhx+futwCLokhycjK/u+8+tmzZwj333ENxcTGDFiajoHCGUF9fzzfffIMoiqxevZrjx49zpKTEozlxvwRYAowGA7/+9a+pqa7m7rvvVgxUCgr9wGazsXXrVvz9/VmxYgU5OTm0tLQMWIj7NZOWRJG4uDjGjx/P888/T319/XA/DwWF0w6bzcZrr72GSqUiIyPDo2XV/glw53KR3W7n8OHDw/0cFBROW6qqqqisqiI2NtYjFbrftmy1Wo2vry8R4RHD/QwUFE5bQkJCiIyIQK1We3SefguwzWYjICCAa669Bh8fn+F+DgoKpx0qlYpLL72U5LHJdHR4FqgzoNXklpYW5s2bx333/Q5fX9/hfh4KCqcNarWalStXctNNN1HfWO9xwEO/k9qpVCoqKipYs2YNq1evJiIikscff5z9hYWgOHAoKPRKaGgov7zxl6y8YiWvvPIK2dnZQ69CO5D49NNPufnmm4mIiOD111/n5ptuIjw8fLifkYLCiMNoNLJkyRLeeOMNlixewoMP/oF//vOfdHR0eHzuAaaVFRAQ2LZtG9deey3XXHMNq1ev5oorruDNN9/ks88+4/jx40rUkcLPmuDgYGbPns3y5cuZMmUKX375Jc8++yyHDh3qTKfr+TU8yAvtUJcbGhr417/+xSeffMKKFStYvXo1q1evZt26dXz66acUFBTQ1tY23M9SQWFI0Gq1xMfHs3DhQi688ELCw8PZsmULv/zlL8nLyzspwMdzCR6wAHed7UqSRElJCY888gjvvPMOCxYsYNmyZSxZsoQjR47wzTff8O2333LgwAFaW1uH8fEqKHgfrVZLbGwsZ599NvPnzyclJYWGhka++upLPv74Yw4cONBjZJ43LEZercwgSRJHjhzh+eef55133mHSpEnMmzePRYsWsWrVKo4cOcJPP/3Eli1b2LdvLzU1tUrIocJphyAIBAQEkJiYSGZmJjNnzmTChAlYLBby8vN44IEHyMnJoaampu/zeKEtg1ZapampiZ9++omffvqJwMBAJk2axOzZs5k1axZXXHEFra2tFBQUkJeXx86dOzl8+DB1dXWKQCuMOARBwM/Pj9jYWCZNmkRmZiZpaWkEBwfT1NREXl4e77zzDlu3bqWystJ9248XhuCBC3A/uo+GhgY2bdrEpk2bMJlMJCQkkJmZSVZWFldeeSW33347jY2NHCouZveuXezatYvi4mKqqqrkFJ4KCkOBIAgYDAZCQkJkgU1PT2fMmDGEhYXR1tZGUVERH7z/Abl5eRw6dJCGhoYBvaPDqkILA7y6c+QtKCjg1VdfJTAwkPj4eCZPnsyUKVOYO3cuV111FaIkUlNdw6FDh9i3bx+FhYWUlJRQU1NDc3OzkmpWwWOcFR3Cw8MZNWoUiYlJpKRMJDk5mcjISHQ6HfX19RQWFvLRRx+xc9dOig4UUVNT060sy0AZViu0N3oPURTl4mHbtm0DwNfXl6ioKBISEpgwYQITJk7goosuIigoCEEQaGlpoby8nMOHD3Po0CGKi4upqKigqqpKrnmjoNAVjUaDr68voaGhxMTEkJCQQGxsLElJScTExBASEoIgCNTX11NaWsrmzZvZu3cvhw4doqysjMbGxhGrBQ58BB6kBrW0tFBUVERRURHr1q1DpVLh6+tLSEgIMTExjBs3jtjYWOLj48nMzCQwMBCNRkNzUxM1tbUcO3aM0tJSjh07xvHjx6msrKS+vo6mJodwK3PsMw9n/SyTyURwcDAhISFER0UTMzqGuNg4oqOjiYqKIiAgALVaTVNTE9XV1ZSUlJCTk8OhQ4coKSmRBwFvjK5uMaxz4EET4e6IokhTk6Pe7uHDh9m0aZOj4RoNPj4+hIaEEhUdRWJiIgkJCYwaFcM555xDUFAQRqMRQC58Vl1dTWlpKZWVlXLRs7r6Oupq62htbaWtrY2Ojo4R29v+HFGpVGg0aoxGH3x9ffH39ycsLIzQ0FDCwsIIDw8nKiqKqKgoQkNDMZlMgKNcbGNjI5WVlRw+fJj169dTUlLiqE5ZWSl/18Oav22g89AueKBCD6/fs81mkwW7+HAxP/74o+OZdNZbMplMBAYGEhYWRuzoWCKjIjvnOYlkZWXh6+uLXq9Ho9HItYGbm5qprqmmrq6O6upquSaws+ZsS3MLzS3N8pdvs9mUUqT9xCGQGnQ6HRqNBqPRiL+/P76+vvj5+REcHExoaCj+/v4EBwcTFhZKcHAIgYGB+Pn5yQXBLRYLTU1NNNTXU1FZSW5uLqWlpXIHXV9XL39XI7VDlobTkWOkIkkSbW1ttLW1UV1dTVFRET/xE9C9+LfJZMLXz5fQkFBCQkIIDQ0lMjKS8PBwQkNDSUhIwM/PD5PJhE6nczidSxJWmw2LxSIXkHbWFW5ubqa1tVUuOt3S0kJLS4vcObS1tWG1WuWi4Ha7XS4O7ixC7XzRRFGUi2c5fx4qBEHorPEDgqCS0586S21qtdrO2sxatDodOq0OrVaLVquVC6b7+vpi8vHBx+So6RsQECAXVPf19cVkMuHv54fBaMRgMKDT6RAEQX4m7e3tNDc309TURE1NDYcPl1BdXU1FRYXcsTY1NdHS0ozZ7Kjz+3PNhHrGCXBfSJKEzWbDZrPR2tpKVVUVxYeKT9mvayV5vV6Pr6+vY4Tw9SUwKIigzs3Pzw9/f3+HKt8p9D4+PhiNRvR6vSz4jpKUAI6X1DnHslqt8khut9tpb2+XP3ca4zo6OuTyln0tqbW2tmKz2bpnd+h8pyVBQiWoMJlMPeYjdlpjncJrMpnk6n1arRYAvU6HVqeTBVir1aLRaFCpVHJRr65F7Do6OrBYLLS3t9Pe3i53buXl5fLPzqLrzqLbzk6vvb1dfjZnsnYzoh05TmdEUcRiscgjrCuPGkB+kXWdL7lOp5M7AL1ej8FgQKvVYjQa0el0GAwGfHx88DH5YDQYEQQBX5MJlVqNTqeT5+9GoxGNVoMKFVFRUb0mBHderzckSeq1JKsoirS2tiJJklxSU5IkrB1W2todfuxms1kWSKdW0d7ejtlsxmw2yx2N83+nADo3u91+og60goPTxZHj54BT1R0UC6YgIECf5SvdqSbf22jWVX2XHB8M4ZP7+TK8vtDKdzx0SA6T4ZmsTv4c8YYjx+DVPVRQUBh0BizAgqJDKyh4hhe0WGUEVlAYLrzgyDFgAR5uRw4FhdMdbzhyKCOwgsJpjCLACgrDhDesSIoAKygMF8NpxPLGGpaCws8Zb1iRBm7EUmxYCgoeoThyKCicxgzrCKw4cigoeMYwG7EUHVpBYbjxwJFDQUHBE4ZVhVZQUBh+FAFWUBgmlIwcCiMaQYCEOBUp41R0Zubpkuan05e/8y2WJMePzs+lzs+7vuQqFbS1Qf5OO1XVUrfr6PWOgy2W08hLfzgzciiOHAquGJuoYs0/9UyaqHa8L729sH39DYfgiiIU7BN54XUrnanDAIgMF7h4kYbZZ6uxi7DhOzsffW6jtm7ki/GwZuRQHDkUXJE2WUXaFDVqNSA5Xti++n3nKyXvIziEt+y4xBvvWnnlbRuHj4pIEvgYBRbMUXPLai3Z6WoMeschF5yn4eKFGp56ycrG722YR3ChjmEu8K2g0Df6TqHq2tm72++rVNDYLPHFBjvPvWolZ6sdux00GkifoubmVVoWL1Dj7ycgimDrzDak18Hc2WqmTVXx8edqnnvVxs49jmNHGt4YBD0oraLo0AreR6UCmxU25dp57mUrX3xtp7XN8aYnxqm49nINKy/RMjpGQJLAflKSTUfuMAjwF7j2ci3nnK3hzfetvPYfG0eOjawE78JwVmZQVoIVXON+Jy8Ijr2LDjnmue99bON4peMdCwwQWL5Ywy+v0TJlggqV2jEn7gupU2WPjxX43a91XDBXwwuvWfnwMxsNjSPl3R3Gygwj5RGcUbgw5pyJCAKoBKiulXj3Yxtr3rCyt9Axz9XrYdZZam5drWP2L9QY9Y4Rtz+FKkTRcY1pU1RM/LOeJedreGpNBz9ssTPchSyHN62sgvf5mQmvSgVt7RIbv7fz9EtWNuXY6ehwfD5pgopfXqPl4kUawkIERPup6nJ/sIuO+fGFc9Vkphn46DMbL7xupWCf6NF5hxtFgBWGHJUKRDts2yny1JoOPltvl9Xa6EiBKy/Rcu0VGpLiHX5G3jJASTgEOSRYYPXVWubMUvPaf2y8/q6VsuND33sOryOHYsNScEl3oXDOc4+WSrz+HyuvvGPjWJlj+PM1CVwwV82tq7VkTFWj0bivKgucWJJxzn37bFXnDonxKh64R8cF56n514udBrPWIRTk4bVCKyi4QpD/VamhvkHis/V2nl5jZUeBY2lHq4WsdDW/uk7L+XM0+Pk6BNcd4RUAodM7q7beIQ2hwQI+RsfxruRDFB3awPQMNRPHq/l8vY2nX7KydYddXpYagsfjEYojh8IgIqFWgdUGP/5o56k1Vjb+YKetXUIQHJ5a112p4fJlWmIiBUTJ/XmuSgVWK2zJsbPmDSs7ChwHpqequX6lhuxparRa9zoCuwi+JlixTMOMLDVvvmfl5bdH3rJTTwxQgL2R0VbhTEeSYE+hyMtvWfnPRzZqah29fkiQwKUXOZaFJiSrUAn9EFzBcd4Dh0RefN3Kfz60UdnFL3p/kcjG721cfrGG1VdqGZOoktviqq2SBKOjBX5zu475czQ8/ZKVjz+30dwyOKPVMDpyCChKtIIrtuSLbM43c+iwY1nIaBA4d6ZDXT5nhhqdrlNdduNFdi43VVRLvP+JjRdft7K/SOxRCCqqJP75nJV139j55dVali/WEBHmGOFdCY0onVh2evKvehbOU/PUGocnmNXq3eejOHIojGiKih3DqloNqSlqbrxGw0UXaggOFNye5wKoVdDSChu+s/HMy1Z+ynMsN/WFJMHeQpHf/snCJ1/auPk6LXPP0eDr495obxfBaISLF2o4K0PNW/+18dIbVg6ViF6cPv4MHTkEQcBkMhEWFkZoaCiBgYFoNBokSaKtrY2mpiZqamqora2VK9uPZEwmEwCtra3D3ZRBIThI4JfXaLnuCi3xowV5KccdVCrHElLONjvPvGzjs3U2mpr79312dMA3m+xs2yWycL6dm1dpmZaqQu2mN5ddckQ83XmTlnnnqHnmZSvvfmSjxQvW6p+NI4dKpSI8PJzs7GxmzJhBRkYG8fHxBAcHo9Pp5KLXdrudjo4OqqqqKC4uZvv27WzcuJGdO3dSV1c3IoV5xeUraG9r5+233x7upngdk0ngT7/Tcd1KrVsC48S5JFRcIvLauzZe/4/n67SNTRJvvW/lux9tXHu5lqsv05AQq0LCPbUaYMpEFY//n46xiSr+9GgH7WbP2nTGB/QLgkBiYiIrVqxg2bJlpKSkYDQaXR4XHBzM+PHjufDCC7ntttvYtWsXb7zxBh9++CHV1dXDfVsyQUFBrLp2FU1NTaz9dC3NLc3D3SSvkp2u4rKlGjme1xUCjlG3pk7io89tPP+ald17xX65Trqi7LjEw//s4IsNNm68RsvSCzUEBwluLTvZRTAYBK68RMP7n9jYutPDtabhXAcebBuWwWDgsksv5Z577yUlJQW1Wj2g8wQEBDBz5kyys7O5+OKLeeihh9i0adOIqHY/Y8YMpk2bRltbG2lpU/n+hx+Gu0leJTFehclHcGvOqFZBuxm++dHOsy9Z+e4nO2bL4GhMdhG27xa5+/cWPvnKLhvVDHrX6r3DGAeBAcPwQHtg4HmhB1EbDQ4O5k9/+hP/fuoppkyZMmDh7YpOp2PBggW89dZbXHPNNWg0w6t86HRaLr74Ynx8fAgNDWXZ8otRqc6sFGU6ret+3qku7ygQuef3Fq67zcxX39gGTXi70m6GLzbYWHWbmf/5o4WC/WK3NrnTbo8YzsoMg/V4Q0JC+Otf/8qdd96Jn5+f188fHR3No48+yo033jisQjx+/ATmzp0r/37+gvOJi4sbtvYMB4IALa0ST62xcvkNZta8aR2WUL+6eonnX7OyYrWZp9ZYaWqW+hRQQRBQqUbGMqoHlRm8j7+/P3/+859ZvXo1WjkLmvcJCQnh//7v/7j88ssH7RquWLJkCbGjR8u/jxkzhgULFgxbewYDib47elGEF1+38fuHLBw+OrxeT5IEBw+LPPAXC/94xtr3mq8geWUN1xt4oLN5V4QFQWDVqlWsWrXK7ZFRFEXMZjOtra1YLJZ+WZmDg4N58ME/kpWV5dX7cIeoqCgWL17cTQ/TaDSsXLmSoKCgIW/PYNHX16ESoLpG4r2PrZjNw93SE1g64L2PHUEWvc1oBEA1QrI6erAO7N0eKHVqKnfeeScGg6Hv60oSx48fZ+PGjfz4448cO3YMi8WCyWQiMSmRmb+YycyZMwkNDXV5zTFjkrjzrru46cYbaW4eOgvwrFmzmDJlyimfp6WlMWPGDD777LMha8ug0scrIghQWydRUTUyRrKuNDRK1Df0Mc8VBIQRYq4YEctIarWaa6+5loSEhD73s9lsfPLJJzzyyCNs376djh7ccZ579jmmT5/Ob37zG+bOnetyNF+yeDGfLVnCm2++OST3ajQaWbFiRY8dla+vL0uXLmX9+vU93tvphivRtNkZmqif/rZbArEP9aFr+KJH1/FCW0dEP5KUlMSSJUv6vllJ4pVXXuHGG28kJyen1xe8ra2NjRs3smrVKl588UVsNluf5zUYDKSlpaFRD01fNnXqVH7xi1/0+vcFCxYwYcKEIWnLoOOOj/Nwt7GvlvXU/s7cuN6wYQ1zdULvcdZZZxEbG9vnPps2beL//b//R21trVvnrKys5H/vv5/XX3+917lxSUkJ999/H4888gg2u82t83qCIAgsW7aMsLCwXvcZNWoUixYtGvS2DAWuTBLCaRoT44xD9hgvDMEDb4aXHrwgCMyYMaNPVddsNvPCCy9QWlrar3PX1dfzxz/+ke+++67b5+3tbbz//vusWLGCxx77O1VVVd65GRckJSW61DQEQWDRokVERkYOSZsGE3fez5Erv1LvjfPSCOwNBi7AXrI9+Pj4kJSU1Oc+JSUl/DBAL6WjR4/yf//3f1RWVgKwZ88ebrvtdlavXk1ubi6iN/30XDB37jyX9woONXvWrFlD1q5B43QdgYXOf6Te/zxSHDmG3Yjl4+NDSEhIn/uUl5dTV1c34Gv88MMPvPDCC8TExPDoo4+yb9++Ib/PwMBAli1b5tYSmcFgYMWKFXz66ae0dy0EdJpx2o7Ap9R4OanNnSVfRgLDXplBo9a4XDpqamryyCprtVp56KGH5HXj4WDGjBlMnz7d7f1nzpxJamoqW7ZsGZb2egV3RuARS9+NHyltH/Z+xG63YXGRYdvX19djz6y2trZhE16NRsNFF12Ev7+/28eEhYU55ssj5U0ZAJL8T894TRUdFHpumMSJ7CAjgWF35LB0dLh0ooiNjSU0NHRInS28SXJyMvPnz+/3cUuXLmXNmjUcOnRouG9hQEiuyhF6OAf28RFIThSIDBcwGAXUKsc1m1skCvaJcmmWgd9Az02GkdPxDPscuLWtlePHj/e5T2xsLNOnT+fw4cPD3dwBcfHFFxMfH9/v48aOHcvc8847bQVYdobubS7JwOXX5CPw4P/ouPxiDX4mAY2mM+EdYLPBZ+tt3HyPxesJ6ZwjsDeWkc4IRw6b1UZBQUGf+xgMBm688Uaio6OHu7n9JjIyksVLFg/oWI1Gw0VLl/ZL9R5JSK7+JgxcgJPHCFxxsYaIUAGD3pF3S1A5jEtGg6M2cUjw4A2TgheG4DPGkWPbtm0u56ezZs3ivvt+NyghhoPJ2b84m8mTJg/4+LPOOqtfxq+RhKsqCYL8T/+JjlBh8uk5gbskOQTMC2HkPbfZcRUvPCDPTzHsjhzgEOC9e/f23VCVihtvvIknnnjitImb9TGZWHnFSrfSAPWGc/lJPcwJCAYFD0bgwADQaISeZUBwuN6KnvpZ99C4kRZ6MeyOHOBY53UnAken07Fq1Sreeustll9yCT4+PkPxjAZM6pQpnH322R6f5/wFCxjjhgPISMOlKyUM2Bqk1Qp9rsWKItjdSTg9nAxnRg5v8/bbb7schcExEs+YMYM1L77ImjVruPDCCwkIGCEJirrgdImMiIjoc7+ysjKXRry4+HiWLr1ouG+p37hcqfBgBO68QK+IEoiiJ2cf4cLfiQcZObxrINi3bx//+te/3F6rDQgI4PLLL+edd97hvffeY+XKlURFRXnFuOAN4uPjWbZsqcv93nzzDd55550+9xEEgSVLLiI8PHy4b6t/SH1/F57MgXFxrEoAlcoTIRT68enw4cEI7P0e6q233uLNN9/sl3+yn58f8+bNY82aNXzyySfcfffdJCcnD3vSurlz5zJ2bHKf+1RVVfHuu+/x4YcfunQVTUtLY+bMmcN6T/3FYHBHQx6ckU5QDTxvlUbjSMjXU9NOfDQyRHlEVWZoamrigQceIDAwgIsvXt6v0dRgMJCRkcHUqVO56aab+PTTT3nnnXcoKCgYcn9iPz8/li9f7rIT+eGH7ynYU4BOqyMnJ4cLLrig132NRiPLli1j7dq1Lj3X+oNW45hPajT98O/ttC4757gn/y8IEBYqcN5MNWqVe7WP+ovk4o8aNQQFQJ1fz3Plrm12buBYjjo7W83oGKHHdnvVCu0FRpxps6KigjvvvIu2tnauuOKKfo+kGo2GsWPHctddd3HVVVexceNGXnjhBTZv3jxkgjzj7LM566yz+tzHYrHw3/9+iMVswWK28PHHHzNv3rw+73f27NlMmTyZvPx8r7RTo4E7btJx3iw1Oq1DmF0OLBJykTDnJkogiSd+12gc5UjiY1WDVoa2r2ZKEoSHCTzzdwMW88lhgY7yhs52O2s0Oe/JxyiQECsQHNhzPmtv3s4ZW1qltLSUu+++m7KyMm666aYBJXoTBIHw8HAuv/xyFixYwBdffMFLL73Epk2bvDqCnYxWq2X5xRe7dL7Yu3cv33//vfz7+vXrOXToEOPGjev1mJiYGC5autRrAmzQC8yZqWbBuWqvpLZxyolzdHan2sFgIAEGHaRNUvVL0xU6jxXFoal/fcY4cvRETU0Nf/zjH7n66qv5+uuvsXpQ2zEoKIiVK1fyn//8h4cfftitmNyBMmbMmG75nnvjiy++oKysTP69pKSEL7/80uVxCxcu9JpHmgAgOfJS2b2wOXNc2e3u10EarLmks4haf9tvt/ctvELXC3ijkR4ycCv0EMzhLRYLn332GVdeeSV33303OTk5Ho2eISEh3H777bz33nsDCi5wh8VLlrh0NKmqquLTTz/tlupHFEU+/PBD6uvr+zx24sSJbnUQ7uA0Eo8Mc0x/G8/wTkNHyEMbeGWGIXx4lZWVPPXUUyxZsoRbbrmF77//fsCRSSqVirS0NJ577jlWrVqFTqfzWjvDI8JZunSpyxIpP/74Izt37jzl861bt7qM/9XpdFx++eX4+vp6rd3DJQceXXeYsnl49VmdSY4crpAkiaqqKl566SUuvvhiVq5cyVtvv0V5efmAzhcfH8/jjz/OlVde6bW147NnnM3U1NQ+9+no6OC///1vjwa1lpYWPvzwQ5eZNM+aPp3MzEwvPFRlEDvdGTGOHP2htraWtWvXsvr61Vx00UU89NDf2Lt3b78rDgYFBfHgHx9k3jzPVVK9Xs9ll13m0u953769fPPNN73+/ZtvNroMHwwMCnI7PY/Cmc2IcuToL2azmfz8fP73f+9n0cJF3HHHHfzwww9Y+pF5Iy42jv/3//7kMq2tK1JTUzn33HNd7rd27WfdjFcnc/hwCRs2bHB5nvPPP5/ExESPn6HL6oE4Sn+q1Z3/d916+qzLNph2EnemwKrOdpz8/8lb17+72pz7jRTtYUQ5cgy4LZLE4ZLDPP3007z33rssXrSY2++4g9TUVLfU4+zsbFavXs2f/vSnAdcNXrZsmUu/58rKSj795JM+97Hb7XzyySdcdeWVBAQG9rpfYmIiF154IQcOHBjwc3PnJbRY4accOwX7RaxWCbUaVCpBfpkFwWHtFUUQ7Y4AAkmC8FCBBXM0hIW6qg88sDfJnSlw3nY7X39vx2zuWQidS11y+0X3rOeiBDv3eJ7N9IxdB/aE6uoaXnr5ZX7YtIl77rmba69d5TJpniAIXHvttbz77rvs2bOn39eMi4tj4cKFLvfbtGkTu10kLwDIzc0lf+tWzjvvvF73UavVLFmyhNdee23gGTtdSIBaBd/8YOOmuy1U1XRxIhS6/w+nemNpNfCH30jce5v3jIRu35YA9Q0SD/6tg40/jMDaLc52euEcp40Rq78UFRVx772/4f7773e5NAMwOjaW8/twZeyLeXPnMX78+D73sVgsfPTRR7S1tbk8X0NDAx9//LFLn/CMjAyPjFnuqKH7i6RuwgtdPLC6jFpd3REBrDY4eFjCtULjfWVUwCHAh0pGkp44OJyxAgwOq+6//vUv/va3v7l0o1QJAhecfz4B/v0LTfT392f5JctdZs3cv3//KRUi+uKLL76guLi4z338/Py46qqrBr4UJrkWH5t94EIguuUEPcDz99X7CJ2OGbYRLsBnuiOHN7DZbDz77LN88MEHLvcdO3Ys0TH983LKysoiOzvb5X6ff/45x44dc/u8hw8fdssza86cc5k4ceLAHo4b36EndXDdW54b2PmH24/DKwznOvBQOnJ4SlNTE48//g+OHj3a535hYWGMS05286yOeeiyZctc+mrX1NTIGUfUarVbm91uZ+3atTQ0NPR57ujoGLfm373hjiV34AzeCHw6vX+DyRlnxOqNgoLdfPftt1x9zTW97mM0GontR76tMWPG9BkC6ESj0XDXXXdx8803u+00IkkSJpPJpVcXONLWvvLKK30uT/V8ERd/F0AQBk9SHEEPzhCCwWAwzz0yGPbSKkOF1Wrl2+++48qrrupTKPqTnmfRokVu5XsODAxk+fLlg3ZvEydO5Nxzz+WNN97o97F9fosSAw6Kd+e6HR3QYR3oCCzJ5+n9DGe28MIIdeTQ6XTExcV5XE7lZA4cOEBLS0uf+7grwGFhYSxbtmxEpPAxGAwsXbrU+0n+OkuIDPQOpb6OFKCxScINo3zP53YuW/V86p8NA58DD0JjDAYD06dP58knn+T1119n9OjRXj1/Q0ODS2u0u44c55xzDunp6YPwFAbGOeecQ1paWr+Pc6lFqxiwRLS0OJw6NOouXltqx+8Au/eKtLV5NgfuqWmny7h7xjhyGI1GzjrrLFatWsX8+fOJiIigvb2dSZMmuVxK6Q9qtdrliOlO1g7niOdJvmdvExoaytKlS9m8+Sc3l28cuDIGeaJBb8m389QaK1MnqTAaBbQasNslmltg116R5161Yh+gQ5MzacDpIqw94Q1NYVgF2GAwMGPGDK6//nrOP//8bnWCjUYjM2fO5BMXrof9ISAgoE+hkySJmpoal+eZNGmSW37PQ82iRYt46qmnKCkpcWt/Z/VAwdU+A+R4pcQDf7Hg43Mi55YkQocV2trdcfLoo12ns+R6kYELsIfdh8lk4i9/+QvXXHNNr8swc+bMISIigsrKSq/cbGJiIiaTqde/WywWtyy5y5YtG5F1msaOHcuCBQt47rnn3DtAcr2eKnno8muzQ1PzUGe1O00YVkcOL1w8OTm5zzXUlJQUzj//fM8vhMMwNmfOnD4t0HV1dS5V9piYGC688EKvtMnbqNVqLrnkEoKCg90+xtVIJkojc7Rzp00jwL7oooGen2LYopFaW1v58ccf+1xH1ev1XH/99Xzx5ZdUeTgKT506tc/gAHD4Tx85cqTPfc4991wmTJjg8nrffvstu3bt8pqVWpIkt3JDZ2dnMz07my+++MK987r440gUXsfzcJG7SnB6go3QG/ASHqwDe863335LTU0NoaGhve4zY8YMrlu1ikcffbRfCd+74ufnx69uvtml2vvdd9/16fnk5+fH1VdfjV6v7/M8VVVV/O53vyMnJ8erAnz++efzzjvv9LnU5efnx9KlS1m/fr3LzB6SK/1Z6E9yuqHFPbE8s4UXPFoH9vzF3LFjB5s2bepzH41Gw6/v+PWA11xNJhO/+93vuPyKK/rcr6amhq+++qrPfTIzMt2K/tm0aRO7d+8GHILnjQ0gJyeHrVu3urz+3LlzXUZHOZH6MmJJns+BBwuXhdOE00CF9gIerAN73ru1trby/vvvu6yHFBUdxeOPP84VV1zucvTryqhRo/jLX//KXXfd5TIm+Msvv2Tbtm29/l2tVnPR0otc+j1brVY++eQTt8IG+0t9fT2ff/55t2yWPZGQkOC2f7Q7c+CRSF/rwNBVhT6zGfZwws8++4z169e73C82Npan/v0UjzzyCBkZGb0KpEajYfTo0fzqll/x/vvvc9utt7pcrz1+/DjPPvtsnx1JcnIyixcvdtnOwsLCfoUN9pcvvvjCZVSTIAgsXbq0z6kJOBXMviXUVWcxYjkNRuAzwpGjoaGBxx9/nMzMTCIjI/vcNzAoiNtvv51LL72UnJwcduzYQXl5OWazGZPJRHBwMCmTUkibmsaYMWPccsW02WysWbOGnJycPvdbsGCBW3mzvvrqK5dRT55w4MAB1q9fz+rVq/vcLzU1ldmzZ/P+++/3vpMrI5UAviYBQRh5xiy9ziGgPTarc1ow0gX4tHfkcPLDDz/wxBNP8OAfH8Ro6Hu0FASBqKgoli5dytKlSxFFEVEU3fKy6onPP/+cJ598sk+DT3BwMEuWLEGtVvd5rtraWj755JMBG9vcwWaz8d8PPuCyyy7Dz8+v1/2MRiOXXnopa9eu7VWzOBEN1AsSTBynIjhQoLZ+5EiwWgWTJzrqOfWu4p8G4TbDuQ7szadjt9t5+umnefmll/udVE6lUqHRaAYkvBs3buS3v/0t1dXVfe43c+ZMsrKyXJ4vf2s+27dv996D6YXNW7awzY3rnHvuuUydOrXPffqyZYgiZExVc+sNWoICR4Y4aDRw8WINK5Zq6EN2EQRpxI/A3mDgAuzlDrm5uZk/PPgHnn322UExAHVFFEXWr1/PLbfcwv79+/vcV6fTcckll/TpwQWOTuijDz8acMWI/lBfX8/HH3/scn4aFhbG4sWL++hr+3YmlgCjEe65VcfL/zIwZ6Ya/dDnqAMc6vDYRBV/vl/PE3/RExUhuFgHFka+AJ9plRlqa2r57W9/y4MPPkh5+fFBuUZLSwvPPPMMN9xwA4WFhS73nzhxInPmzHG538GDB90yxnmLr7780i2f5wsuuIBRvUV1uREMIEmg08AF56l57WkDf3tQz8RxKg8zdfSP0GCBm67V8s6LBn59k5bgIGHEWseHGg8qMwwOra2tPPHEE1x55Uo++ugjWltbvXLejo4OtmzZws0338z//M//uG1oWr58uVt+z19++SWHDx8epKdyKgcPFvH111+73G/SpEm9uqPa7bgVj+us9BcSLHDzKi3vvGDg9l9qiQgb3CHOYIAL52p4+d+OjiNlvMqlBxY43k2LRcJsOfOlfFgdOXrDZrPx7bffsmrVKq6++mo++ugjqqurkfrZ7YqSRF1dHevXr+e2225j2bJlvPnmm26r6KNHj3Zr6cjdNLDepKPDyqeffuqyg9NqtSxdtqxHg5fVBl9ssNHY7F7uK6fwJI9xqLJvPGvgogs0+Bi9+y6oVDB5oorH/0/Pmif1zJ+tRq91zyvMqTZvyrFTVX3mC7AHvtCD/3AaGxv58MMP+eqrr5g8eTLTz5pOxrQMxo4dS3h4OCaTSV4PliQJi8VCS0sLNTU1HDp4kB07d/LTTz+xa9cumpqa+n397OxsoqOjaW5u7nW+qVar+f77793ykPI2W7ZsITc3l6ysrF6Nf4IgMHHCBFJSUnqsfPjxFzaiIi3cfoOOmGjBrRFOFB1B+bNmqElNUfHJl3aee9XK9l12jwuFx0QKrLxEy6qVGpLiHSOuOzHDAg7Bb22Djz638ci/rHQMvKT0acOIWEZyRVtbGzk5OeTk5KDVavH39ycoKIiAgAB8fHwQBAFRFGlvb6ehoYGGhgaampo8KgoOkJ+fzyWXXtLnRFEQoLz8OE3N/e8gPKW6uppf/epXREZEuHLH6DVIw2yBf79gJWeryC3Xa7ngPDV+foLLWF0Jhwru5ydw1WUaZs1Q8+b7Vl59x0bJ0f5rIn6+Agvnq7npWi2ZU9Vo3BxxwSG4djts2+FIEvDR57bBCWH0MmeEI0d/sVqt1NbWUltbO+jXKikpcTs4fjiQJInCwkK3jHF9YbPD5jw7u/eKXDjXsWyUkapGrXEtRM4ROzZG4H9u13HBeRqef83Kf9faaGh0/YpqNTA9Q82tq7XMPUeDn6/7NYqc/s7HyiRefcfKa/+xcbR0hDpv99R+L5zjtBNghcGjpVXi3Y9t/Jhr59rLtVyzQkv8aEFOX9MXouQQprTJjrnrovkannm5g+8327FYTt1fECA5ScX1V2q5fJmGyAhBLjTmCqe63NAo8ek6O8++7FDfB5qeZ9jwwhA8bBk5FEYuZcclHn6yg6822rlplZYl56sJChDcEhC76HBzXDhPTVa6gQ8/s/Hi61YK9ouyWh4RJnDpRRquv1LLhLEqR4VDN+fOKpUjHe1PuXaeednK+m/ttLWPfHV5sBi4AP98n9nPArsdtu60c+f9ImvXqblttZYZme7NTbsuO91wtZY5M9Vs+N5O0SGR0BCBWWepmZaqRq8/URjNFapOv+f9RSIvvGblvU9sp7+VeTgzcij8PGhrl/jkCxtb8uxceYmW66/SMCbBsebkSvCcf0+KVzEmQYVdPFEc297PeW5VtcR7H9t4/jUrBw6JIy64Yrj42VRmUPCMqhqJfz7XwfrvbNx0rZaLF2kIDXbMW13Jktgl80d/lsrVnctCG76z8fTLVn7KtdPRMdxPYmShjMAKbiNKULBP5DcPdrB2nZ1brtcy+2w1Br17xid3cS4L5W238+wrVj79yk5j09ANuSaTieioaJLHJRMfH09oaCg6vQ6L2UJ5eTl79uxhz549A/It8DYj2pFDYWRitkh8tdFG3nY7lyzWcNMqLROTHcYoT3yUhc4yLkdLJV77j5VX3rZSWj7475lerycyMpKUlIlkZmYxbdo0xowZQ1hYGDqdDpVKhSAISJKE3W6nubmZHTt28PLLL/P555+7zCgzmCgjsMKAqauXeOF1K99ssrP6Ki0rlmkcUUJuqNVdcS4L1TVIrP3KMeru2D14y0JqtZrQ0FDGJo8lY1oGmZmZpKSkEBUVJdeXkiQJURRloe2Kv78/5547m4yMDNasWcMjjzwyoNH4Z+nIoTCykCQoKhb5/UMWPltv45brtcw/V42vj3vLTs5loU05jmWhr7/z/rKQIAgEBAQQn5BA2tSpZGVlkZqaSmxsLH5+fqjVKkRROkVYHSGJgjz6dt1sNjs+Pj7ccssttLe38/DDD7vMAnpKu7xwb4oAK3gFqxV+2GxnZ4HIovlqbl2tY+pkFWp1z4YreVnogMjzr1l592MbNbXeEVxBEDAajYwaNYrJkyeTlZVFeloaSUlJBAUHo9VokRBlobV1OnALgoBapUZQCdisVuobGqivr8dsNmM0GomMjMTk44O984YkSUKtVnPTTTeRl5fHunXr+tfQ4XTkGPHB0grDQlOzxFsf2Phhi8iqKzRcfZmG2FEnwgCdy0KVVQ6vrxdf9/6y0LRp07jvvvuYMGEC4eHhciZTp0pssztGSofqrkKlUiGKIs3NzRw9epSdO3eSm5vLzp07qKyqwtJuxmA0MmnSJG644QbOPfdcucKHJEkEBwezatV1/LBpE+2DnIziZAZuxFJsWAp9cKxM5K//6OCLDXZuXqXl/PPUBAcJNLdIfP29w/3xpzw7Hsab9IhGo2H69On4+/tjt9u7qcVOgxQ4KlEeP36cPXv2kJuby9atWyksLKS2trbH6K5jx46Rm5vLo48+wiWXXCqHj9rtdrKzsxiXnMyOHTvcb6jiyKEwkrHbIX+HnTvuF0mfomLSeBWHj0pszrP3O1pIEAT8/PyIi4sjPT0dHx8fXn755R4twEVFRRw8ePCU+s02m43a2joOHCgkPz+fvLw89uzZw/Hjx+lwc4G5traWxx77O+np00hMTJRH9ZCQEGbMmNE/AfYCiiOHwqDT1iaxaYudTVv6FyxsMBiIiYkhZdIksjIzuy3vlJeXs27dOg4dOnTKcXV1dezYsYNp06bJn6nVajZs2MAf/vAHjhw54lGml3379rFu3Tp+9atfyZ9pNBpSUlJQqYR+1Wf2FA9GYEWHVvAuWq2WsLAwxo0bR0ZmBpkZmUyYMIHIyEg5cYNTbQ0LCyMlJaVHAZYkiZycHK6++upu1Sh9fX05duyYx2maJEli8+bNXH/99Wg0Gvmz+Ph4jEYfr6WBcodhq06ooKBSqQgMDCQpKYn09HSysrKYPHkyo0aNwtfXF5UgIEoSkiSeMif18fHhrLPO6rUA/M6dO6mtrSU8PFxe0x07diyJiYns3LnT47YfPHiQxsZGQkND5WwtPj4+bhUTcKKsAyucdvj6+hIbG8uUKVPIysoiLS2NhIQEAgMD0Wg08pxSFEW6rj4JgiCPphaLhePHj2O329FqtT1mXjly5AhFRUVERkZit9tla/HUqVO9IsBmsxmbzdatakVbW1u/ssAo68AKIx69Xk9UVBQTJ04kK8vhppicnOzwL9Y5kkzLyztdHCGcAisIgpyF5eDBg2zdupWcnBwKCgooLy/vVWBaWlrYujW/Wz1lrVZLdnY2r7/+uscJCAODgjAajSeKrAkCRUVFg57T/GQUAVbwOgGBgUyZPJmMDIeb4sSJE3t0U+zm9YSAoHIIrd1up6mpiSNHjrBzxw5ycnPZsX0HJUdK+kwweDK5uXmYzWZZrZUkidTUVEJCQlxW43DF7HPOwd/fH0mSEASBtrY2vv322/4Vg1McORRGInPOPZcnn3wSf39/1Gq1Qx3uwafY4UThyITZ1tZGWXkZewr2kJubQ37+VoqKiqirqxvwaFlQUEBFRQVxcXFyDa24uDjGjh3rkQDPmTOHVatWyQ4gKpWKLVu29L8q5XCuAyuOHD9ffHx8GD16FKmpUwkKCuKNN97oZnktKSmRVdue1GJwJNo/fvw4hYWF5OXnk5eby759+6ioqPA4m6iT8vJy9u7dS0JCgqym+/n5MW3aNH766ad+ny8gIIClS5dy7733Mnr0aERRRFCpKCsr4/HHH6e+vn7IvwtFhVZwm0mTJnHR0qVkTJvGuHHjiI6KZkvOFt54441u+xUXF3Pw4EHCwsK6jbqNjY0cOHCAbdu3kZuTy65duygtLR20eaPFYiEvL48LLrhA/kytVpOVldWr8etkdDod8fHxnHPOOSxatIgZM2ag1+tlraDDYuGll15i8+bNw/GVKI4cCu5z6WWXcu8998qjmUqlor6+/hQvpsbGRrZv385ZZ50lf6ZWq1m7di333XcfTU1NQ1Y4PD8/n5aWFkwmkzz3njRpEpGRkT0WSler1YSGhDA2OZmMjAyysrKYMmUKMTExDiu5Xeym0qvVaq688komTZrEf//7X9atWzekhizFkUPBLQRBIDAgsFvInUqlora2tscwutzcXFavXi07OoCjVI1zSWeo2F9YSGlpKePHj5dDAaOjo5k4cSLHjh1DEAT8/f1JSEggLS2N7OxspkyZQmxsLP5+fqicc3hR7NE/WqVSkZCQQFJSEvPnz+eNN97gT3/605Bl61AcORTcQqVS9Vhfqa6urkeB3L17N1VVVYwaNUoesZOTk4mNjWXv3r1D1u7qqip27drFxIkT5XYYjUbOP/98jD5Gzpp+Funp6Z2hhkGOUEPnOrQkIdpsctSSMzbYiVOwnZvRaOT666/nyJEj/Otf/3LZNsWRQ2HIUKvV+Pr6dvtMFMVeK2SUlpayf/9+YmNHd1ZaEAkLDSU1NXVIBdhut5Obm8Mll1zSrd1XXXUVV1999amhhp3ahCAIqNVqwOG0UVdXR1lZGYcOHaSlpZWQkBCmTZvGqFGj5A5MkiQ0Wg2rVq1i7dq1LqtVKo4cCr2iUqkICAigra0NS0+lEfqJRqPBaDTSddyw2+29Wl7b2trIz89n7ty58mdanY6srCzeeeedIVWjt23bTkNDA0FBQfJ1nWvDTrXYKbAC0GG1UldXR1FREdu2bSM3N5cDBw5QUVFBU1OT7AE2dmwyv/nNvSxdulQemUW7SGJiIvPnz+e5554b9HtTKjOcIQiCgK+vL6NHjyY1NZWsrCymTp3Km2+9yYsvvOjx+bVabXfPIxxLRHV1db0ek5+fT1tbG0aDUU6COHXqVIKCg6nzoLaVWq0mLDSMcePHMWXKFL766isOHDjQ6/6HDh3i8OHDhISEnJIyR6VSI4p2GhsbOXLkCDt27OgM5t9JSUnvjiNWq5W9e/fwu9/9jvDwcGbNmiWfW6vVMm/ePF599dW+E94NqyOH59dW8CJRUVE88sgjZGdnExwcLGdTDAkJYWv+VrZv3+7R+XU6nexJBYAg0GG10tDQ0Osx+/bto6ysjLFjxyKJjnllQkICSYmJ/RJglSDgHxBAYmIi6enpZGdnMWVKKqNHj8bX1xebzdanANc31LN9+3YyMzO7NF+goaGB77//npycHLZu3crBgwepq6vrtVRrT1RWVvLss8/KMcrO+fPEiRMZPXo0RUVFvR+sOHIoOKmurubQoUMsXrwIEORMFAkJCdxzzz386le/orm5ecDn1+v18gvqxGw292ltraysZM+ePYwbN06eYwYGBpKenk5eXl6f13M4i4xmypQpZGdnk56eTmJiohz0IIkSouTwgsrMyuKFF17oPamcBDk5ObL3FDimGCUlJdxzzz1UVVV59Ox/+ukn9hfuJ2NaBna7HVEUiYiIID09vW8B9gJu1GXvGWUEHllYrVb+/e9/8+2333WLgRVFkfPPP5+VK1d6dH6DwSDH5AKy/29fAtzR0UFubm63EU2j0ZCVldVteQkcI3xs7GgWLFjA73//e95++20+/vhjnn32WW6++WYyMzMJCgoCHKq7XTwxd02bOpWIiIg+279r1y6qq6vlZyOKIrGjRxMTE+Pxs6+trWXj1xu7dW46nY65c+f2K7xwIHhgxFJEeDAwGo1ERkQSFx9HeHi47DBfV1dHSUkJxcXFNDY29nhsdXU1Dz/8MOPHjycqKkoe9XQ6Hbfddht5eXls27ZtQO0yGAxotdouL6lDgNvb2/s8buvWrTQ1NuEf4C+rl5MnTyYyMhKz2cy45GSmdTpMTEqZRFT0qUEPsmWYU5PQlZaWkpOT49IodvToUQ4cOEB0dLR87qDgYNLS0jyeXgB8/fXX3HjjjfL3JUkS2dnZjB41muLDxR6fvzcUR45hRqfTERkRwYSJE8nMzCQtPZ3ksWMJDQ1Fr9fLSxk2m42mpib279/Pe++9x4cfftijBXjz5s38+9//5sEHH5QFThRF4uPjueuuu7jlllsGpEqfHKwuCA6PK1cCfPDgQUqOlDB16lTZiSM2NpYnnniCyMhI4uPj8ff3l4VSEqUeDE2OUbO93UxFxXH27t1Lbm4u+fn5FBYWUlNT43Le2traytatW5k9e7b8mUajITs7m1dffbVf896eKCwspLi4mPT0dFmNjo6OJnVq6sgUYEV8B4ZarSY4OJixY8cybdo0sjIzSZk0iejoaHx8fE68yF2SiHc97he/+AVZWVnMmzePP/zhD6fMsSRJ4pVXXiEzM5Nly5bJL6ZTlb7yyit59tln+91uk8kkx++CQ7Dq6+tdLlHV1tayc+dO0tLS5PYZDAYWLFggt8u5Oc+rVqkRBIGOjg5qamooKioiPz+f3NxcOQndQJbGcnNzaW9vR6/Xdz5bkSlTphAaGkplZaVH32tdXR05OTndEunp9Xrmz5/P2rVre/S7Vhw5TgMEQcDP34/4+Himpk4lOzub1NRU4uLiuoXbyd4/XV5k59qihAQSshujRqNh0aJFGAwGbrvtNsrKyrpds7m5mccee4xJKZMYM3aMfH69Xs+tt97K5s2b+52VwmQyOYxHXVTV+vp6lwEBoiiSm5vLypUru83Nu66/OtViu81OQ0MDJSUlbN++nZycHHbu3MnRo0dpbW31eO3YKfwJCQmdz9uhDSQnJ3sswJIksW79eq666irZ71qSJObOnUtaWhq5ubmnvhseXdGBIsCDgNFoJCYmhkmTJjmqAqSnM2bMGEKCQ9DqTqi1p3j+qFQIKhU2m43W1lZZPfX19cXHx6fbyGy32znvvPO47bbbeOCBB05RAXft2sWjjz3K448/3m15Iz4+nrvvvpvbb7+9X/66Tu1ARpJoaGhwK1Z3x44d1NXVERYW1k0InYaw0tJSdu/eLedmPnTokNvn7g8VFRXs3buXpKSkLuGFvmRkZPDDDz94fP4d27dz8OBB0tLSulmjf/e733HPPfec6pk1nOvAig3rVAwGA6tWrWLevHmMGzeOiIiIbtkUT04b09Ug09LSwrFjx9i1axe5ubns37+furo6BEEgNjaWpUuXsnjx4lOWci655BLef/99tm7dekp7PvzwQ6ZPn851110nHyPa7SxcuJAff/yR559/3u178/X17SbAEvTqRnkyJSUlHDx4kIiIiBMdjSDwwQcf8Nprr3HgwAGqqqr6XVuov1gsFnJzc1m4cGGX70BNZmYmer3eY4+12tpacnNz5emCk/nz5/PW22/xm3t/w6ZNm7x6TwN35FAmwT0yb948LrzwQqxW66lpY7oYZMxmszwinGyQOflFLigoYOPGjRQUFHDfffd1G1EjIyKYN29ejwJsNpv5xz/+QWpqKtOmTXMYkXAYzm655Ra2bNnCrl273LqvroYmcHRI7gawNzU1sW3bNs4++2z5M7VKRWlpKd9+++2Qfj/5+fk0Nzfj6+srP8OUlBQiIyM5cuSIR+eWJIlPPv6YFStWEBwcjNls5nhFBYX797Nt2zZqamq6HzCsjhxeeZynB043xdjYWFJSUsjPz6e4+FTLotlsZsuWLcybN+8U9U8U7dTW1p1ikCkvL3er5zebzbzwwgtMTEnhypUru41ks2bN4umnn+5RJS4pKeFvf/sbzz33HIGBgfJLm5SUxL333sutt97qllXa39+/WySOo8qB+95Uubm53fJTAWRkZODn509z89AVyj5w4ABHjx4lZdIkJLsdURKJiooiJSXFYwEGyM3L45lnniEkJITNmzcPetICxZWyF/QGA9GdX2xmZiYZGdMYO9aRTfF///d/eeaZZ3o8Lj8/n9aWVnxMPnLCs6amJh5++GE2btzokUGmvb2dt958k0ULF+Ln5yfPhxMSE4iMjOx1TrthwwZeeeUVfv3rX8ufiaLIBRdcwKWXXspLL73k8tq+vr6yADszRfYnhUxBQQGVlZXExsbKxrqxY8cSHx/H7t27B/W77EpNTQ27du1i8uTJjrS1ksNmkZmZyeeff+7x+c1mMw8//LDcUQ42A/bEOtNEWKPREBkZyTnnnMPdd9/Nq6+8wscffcxLL73E3XffzaxZ5xAZEYmuM6LmZE8iJ/v37+dY6bFuo5VWq2X//v3s3buXlpYWj6ype/fu5XBx8YnqeKJIcFAwcXFxvR5js9l4+umn+e677+R1ZadV+o477iA1dUqf1xQEobsfNI75ZG8OJT1RVlbG/v37UTkt6531hFJTU73x9bmNI7ww95RpSkZGBiaTyWvXGArhBQ8EWDrNlWiVSkVQUBDTpk3jhhtu4Omnn+ajjz7irbfe4sEHH2TRwkXEJ8Sj1+tkv2JREjtTk04hMjKyx/NWV1eze/fubuUnTSYT2dnZXml3fX09+wsLuywxOTqfnoLtu1JZWcnDDz9MeXl5N3fCpKQk7rzzrj5fXrVa3e3vAgLt7e20tLS43e729nby8vIQu7obarVkZWV1t24PAdu3b6e+vv7EMxRPJBs43fhZLSOZTCZGjx59ouhzFwd5rVaL1JmFoWsNWTg1m6IkOWrzlJaWnnINm81Gbm4uy5cv73I8ZGRm4OPj4/FcyJEzufucVZIkt+bRvXlpLVy4kE2bNrFmzZoejzslmF9wJE7vjwBD5/SitVU2wkk4wguDg4NPNfAMAGcMdFJSEpMnT2bTpk09BhMUFxdTXFxMaGhop2FPIiIigrS0NPbt2+dxO9xFceRwgU6nIzIykomdbooZGRmMG5dMWFi421UBbDYrtbV1HDp0iG3btpGTk8Pu3bv7NHhs27aNxsbGLkYjifHjxjNq1Kg+w97cQa1WExDg362tTU1NPXYmJyNJEq+++ioZGRlcfPHFsmujwWDgjjvukCsenIxWo5Gtts5rNjc397sz2r9/P6WlpYwbN67buvSYMWMGLMDOTtkZtZSWlkZiYiJBQUE88MADPQpwQ0MD27dvZ8aMGUiSRGtrK+Xl5ag1ao++m/6iOHKchEqlIjQ09BQ3RWdVAEEQeqwKAAKqzqoAol2kqbmpW6X27du3c/jwYbezKToDyJ1LN6IoEh4WxuTJkz0W4JiYaKZMmSLPsVQqFXv27OnRKt4TTU1NPProo0yZMkV2aBBFRxaJu+66i1//+tenjKwarfaUOXBTU1O/100rqyrZvXs3EyZMkDvOAH9/0tPT2bJli1vn0Ol0REZFMnFiClmdnXJycjJhYWHdOmVX6WO//vprYmNj5TrB+wv3U1PtuRbQLxRHju4EBATwz3/+k1mzZuHr63uKm2JXVIKAIDvJt1NeXt6tUvuBAwd6rdTuivp6RwB5RkaG/JlOryc7O5sPPvhgwPdnMBj45S9vZOzYsY6k4oKA2WzmP//5T78CFAoKCnjsscd47LHHuq0pL168hM2bN/Pii90zeOj1egyduaPghB90fxOw26w28vLyuPjii+XP1J3hhS+88EKP51Or1YSEhJCcnMy0adPIzMpkUkoKUVHRXaKWRMSTgiAkSWLKlClERUVx9OjRU867YcMGNm7c6JV0Q8PJwAV4BNqwWltbEUWRgMAAbFZbr2pxR0cHldXVFBZ2r9ReUVHhdqX2Ph+NJJGTm8u1117bzUCTnp5OQEBAv6y3TkaNGsVtt93Gddddh0qlkpeovvjii15LbPbF+++/T1ZWluyl5VCl9dx6261s2bKlmyqt1+sxGI3dtI+GhoYBeU6dOr1w5GmOiIigtLS0W5rXqVNP+I7Hxsbi5+fXrVM+2UnG+R3b7Y4UOdXV1b0a97xV/cEjhtORYyTS0dHBli1bWLRoUbfPpU6/3eLiYtlJfteuXV4p9twbu3bupKamhoiICPlFTUxMJDEhke073Is/1ev1jB07ljlz5nDZihVMSkmRpwEqlYqdO3fyt4ceGlAOYovFwj//+U/S0tK6+e4mJSZxzz33cMcdd8ijusFg7BbML0lSv5w4unLw4EFKSkrksDtJkoiJieG8886joaGBs87qTPM6JongoOBuxraeXFEFlQAStLa1Ul5WTkFBgaxFFRUVDUu5k6FkRFRmUKvVGAwGjEYjarUau91Oe3s77e3t/V5P27p1K01NTXJgtUoQOF5Z6TDSbNlC4xBVBXAGkEdFRckvalBQEFPTpvYqwCeHGk6fPp1p06YRGRnZLcwQTqyj3nPvvXz99dd89dVX/Raq4uJiHnroIZ599ll5RJQkiUWLFvHdd9/xyiuvAGA0GtDrdCf8qftIJ+uKuro6tu/YzrT0afJ9GI1G/vKXvzhG+j58x3uqrbS/sJD8vDxy83LZt3cflZWVI2N0HSKGZQRWq9WEh4czYcIE2QgRFRUlL+dYO5OlHT16lB07drD5p5/YX1jolnpbVFTEkSNHSE1NlX1/fX19aW9vp2EAqutAcdSn3co555wjf+asT/vqq6/Kc1g/v85Qw051cerUqcTFxuHn71AX7aJdTgjXFUmSGDVqFCtWrGDp0qV888033H///f02kq1fv56XX36ZO++8Uz6v08Ejf2s+BbsLMBqNaLq4QHoiwJIkkZuTyzVXX9NteuHn5wc9qMUqwTHKOjNgnrwacOzYMZdJBc5kPPCF7v8optfrmTZtGkuWLGHOnDmMHj0ak8kkz+kAeW4Hji/wiiuuoKqqig0bNvDcc8+xa9euPkdQZwD51KlT5fP5+fmRlZXF999/P6QP90QAuQ5Jcrz4U6dOJTMzk8jISLKzs5k2bRpjxowhOLh3dfHE/B1AOKUigFqjZsGCBYiiyM0339xnqteTsdlsPPPMM6RPS+fc2efKqvTYsWO5+667+dWvfoWPj083zzOb1TqgebyTnSdNL5zfU7fVgM6UOd1XA7ZRXOz+asDPgSEZgQVBIDU1lVtuuYX58+cTEhICONZHuwax90ZkZARXX301Z599Ng8++CAff/xxr19g1wByZ0egUqnIzMzEYDD0nafXyzgNY/Hx8Z2WUpExY8bw5ptvEhAQ0Ku62LUqgMViobm5mbKyMurq6lCpVMTHxzNq1Ch5Pkxn53DeeeexcOFCXn/99X61s7Kykof++hDjxo4jKjpK/k4WLlzIpZdeSnNTkxzMLwgCZoulz3Syrjh69ChFRUVERUchdZboRHKsBhw/fpw9e/aQ54zQ8mA1YKRzWjhyaLVaLr/8cn7zm9/IdVq7fhknas6cSFUrdN7ciSUgCbCTmJjIw488THt7O1999VWv13QGkIeGhsoj2oQJE4iOjnZ7vdQbOF/GxMREuZPSaDRyYPspVQEEsFodUT4HDx5k27ZtbNu2jYMHD3Ks9BitLa0IgkB0dDRXX301N9xwg+xg4Uxet3z5cj766KN+573asmULTz/7NH/4/R9kYTUajfz6179mw4YN3Xy7zWazRyNwc3OzHF5YVVVFYWEhW7du7ZYyxxurASOdEe/IodFouPnmm7nvvvvw9fU9JY2K1WqltLSU4uLDFBU5grqdNXRSJk0idUoq/gH+8stvt9uJjorm/vvvZ8+ePb16HzkDyMPDwx3zYFEiMjKSlJQUjwXYuS45fvx4RFHkxx9/7FUbcNan7RpADshWZOeSR1NTd8eRHTt29Ok4cvDgQf7y57/Q0dHBPffc0823OT09nYkTJ5KTk9Ov+5IkiVdefoX0tHTZS8upMYSHh8vXcGbR6K8b5cn85z//oaCggF27dskRWj87hrUygxvdx0UXXcRvf/tbfH19u3kO1dfX880337B+/Xry8vIoKyujra2t28vq6+vL9OnTueeee2SXN3AI8dTUVFauXMkjjzzS43UbGxvZtm0bM2bM6HxOjtEkKyuLTz/9tJ/3eWr5ydTUVBISEti+fTuXXXZZn6PdyQHk4BCWI0eOOAQ2L4+t+fkUFRX1S1XssHawZs0a5s2bdyJYX5IICAggMzOz3wLsfG6PPfZYNy8tQRBkC7XzeTQ3N3tsOCooKOjRbVOhfwxaZYaEhATuvfdeAgICur2UP/zwA48++ihbtmzpcz7a0tLChg0bOHDgAE8++SRz5sw50Qmo1SxdupQ333zzlIRuTnJzczFbzOi0Wrmt6enp+Pn5uVQvjUYjo0aNYsqUKY6gh2npjElKIjAoGG2neilJUmc8a3yf8ayFhYUcO3aMlJQU+TnY7XYeffRR3nrzTWwezO0qKir47LPPumVCVKvVzJgxgxdeeGFAXka7d+/m8ccf55FHHjkRdHDSl93U1PSztvx6DS/o0IMWx3XJJZcwceLEbsWg161bx0033cS3337rtjHp6NGj/OlPf+LIkSPyfBlgwoQJ8gjbE7t376aqsgpBOKFeJo9N7jFuVqvVMmrUKObNm8f999/PW2+9xSeffMJzzz3PLbfcwvTs6QQHh8gFvZyjXVhY2Cn5j07GGUDedQ6p1+uJi4vzSHidfPfdd9TU1JyojieKpKWlkZSUNOBzvvfee7z77rvd2uzEWVPo5zBHPR0YFEeO4OBgLrjgAnmOp1KpOHr0KH/+85/dipo5mW3btvHmm29y332/o6mpmZKSEjndaG84A8jj4mIRxU7Hh9AQpkyZQkFBAaGhoYwZM4Zp06aRnZ3FpEmTiY6OdsS9Cshrr/K8nZOS0LW2UF5W3uNL3hW73U5OTg6XXXZZt88zMzMxmUwez/0KCgrYsWMH8+fNx2a3IYqOFDG/+MUvBlyH12w288QTT5Cens7UqVNlVdo5D66urh70BHQK7jEolRkSExJISkzqluN43bp1Hs153n77bWpqati7dy9FRUUuq8g5A8jnzZt34mY1GlauXMn06dNJS0uTqwL05V/bNQldZUUle/ftJS8vj7y8PAoLC6murnbZdmcAeXBwsKySjhs3jtGjR7N///6BfwU46vBu3ry5Wx1ejUbD2Wefzcsvvzxgr6TDhw/zt7/9jaeeegqj0UhZaSm7O90Uv/76a2UddoQwKEntRsXG4ut3wmhjtVrJz8/3KM3IkSNHTomSccXJAeSiKDJz5kxmz57de25mtVrO+eSsCuBc4igoKKC8vLzfa8knB5CLokhoaChTpkzxWIDBsQTU1NQk58lyWqMTExMpLCwc8HnXrVvH7bffTkdHB3v27PnZuSkONiN2HdjvpBzCzqWSoWbf/v2UlZWRnJzczQJ8QmA5ZTmnpKSEHdt3kJObw44dOzhy5IjHeawcAeTbuqXV0et0ZGdn8+6773p8n7t372b37t384he/kDuI0aNHs2TxEh4tfHTA57Varf222isMLYMiwBaLpZtLpE6nIz4+fshvrqrSEUDuXLN14gw9a2tro6ysjIKCAnJyctm27UQEi7eTkuXk5HLdddefSCoHpKWlERQU5HHETENDA9999123vMsqlYprV11LTm7OkLuQKriHNxw5BsUKXV1djcVi6ebKOGvWLK9l/XMXq9VKXl7eKfPaiooKHn30Ua666iqWLFnSmdTuKbZs2UJtbe2gZBTsqT5tYmIiiYmJXjn/T5s309zc3M0aHRcXx7PPPsstt9zSaxZNhWHECzr0wAt899F9HD58mOrq6m4v06xZs7juuuvQd8nsMBRs3baVxsbGbgESTU1NvPTSS2zYsIGysrIhmdcdO3aMwsJCR/wqdKtW7w127tjBtm3b0Gq1aDQa7HY75eXlHC453M23WmHkMKxz4L6mhMePH2fnzp2yD7DTr/b+++8nJSWFz9Z+xpGjR2hvb8dqtcquhWq1Go1Gg06nkze9Xo9Op+/0E3aEGVZXV1NdXe2WMenQwUOUlJTIQevOMLzx48f36gQyGLS1tZGfn8+cOXNOPPzOdDIvvfSSx876jY2NvPTSS+h0Ovbs2SNX9hvMpAUKnuGON6MrBm0O/P777zNv3jyMnalYnPmRr7rqKpYvX05LSwsdHR3y6OccJZybRqPp9js4RnKz2UxDQwMHDhxg/fr1rF27luPHj/falrq6Onbs2N6tPq3JZCIjI4Ovv/56MG6/V/Ly8mhra5O1EGfeprCwMCoqKjw+/6effsqGDRvk1EIKIxtvrMQNWkaODRs28OWXX7J8+XJ5dHGus+p0OkJCQnp2gpBOjTU+4YfrcHMMDg5mzJgxzJs3jyuuuIKHH36Y9evX9/jSiqJITk4uV111tTz/VAkCmZmZGI3GIXUJ3Lt3L8ePH5c1E6e1eNy4cV4RYJvN1u8oJIXhwxsjsAdGrL67j9bWVv785z/z/fffo1arUQndL9W1oHW3Tepenb7r8o0knTjOZrMhdAriU089xbJly3pty86dO6mtrZXLeoiSxPjx44mJifHC1+A+FRUVFBQUdKva4Ovr2y17pYJCf/CgtIprDh48yC233MJzzz1HVVUlKpVwimqs7pz7nqw+97Q5OoLu3ZbdbiciIoLf//73TJo0qcd2HDlyhKKiIjmNrLPwcm/7DwRn1I4jH3XP5UI6OjrIy809JR46Ozu7W9I4hZ8HI9aRoytHjhzhvvvu44033mD27NmkpKQQHR2Nv78/Wq1WdqLo6OjAYrFg6bBgMVvo6OjoLGMiodFoMBqNhIaGEhUVRXh4uOz+CA4hTkpK4sYbb+See+45xarc3NzMtq1bmTlzpvyZwWAgKyuLjz76aMD35uPj0xm1NJmsrGzS09MZO3Ys+/btY8WKFT0Gvedv3Upra6sj6Z4o0traisFgwM/Pb0izhSicGQzJ4qDVamXHjh3s2LFDzkCp1+tlt0Wnd5TNZpMDCLpWeBMEQRbiyMhIZs+ezY033ijHrIJDHT3//AU8/9zzFOw51ec6Ny/vlPq0jjzN/jQ2uuclptPqiIiMYMKECXKplvHjxxMWFtbNMJWcnExCQgI7duw45RwHDhwgZ0sOgkogJyeHvLw89u7dO+AkcQqnL8ObkWOAV7fb7bS2tvZ7acNms2E2m6mvr2ffvn0UFBTw3HPPMWrUKHn+HBYWQUZmRo8CvGdPARUVFcTFxcn7jxkzhri4+F6r1DvTvDqjlrKyspg0aRLR0dF9lmoJDg4mPT29RwGura3lxptupLW1ddCKPiucJgyvFXp4+eGHH3jrrbf4zW9+I3+m1WrIzMzktddeO8UiXVZWzr59+0iIT0DEYSgLDg5m6tSpsgB3TfOaOjWV7CxH9o2eopa6u2aCIHT6VIt22lrbejWQiaLoVgSTws+A4VwHHgnRZJ9++imrVq2Sk8RJksSYsWMwmUynLKeYzWby8vI4//zz5c+0Wi0zZszgp59+IiUlhaysLDnNa0hIiNtVAdra2zheflyurZSfn++VKCMFBVcMUIClYR+BwRG0X1lZSUREhKzC+vn5YTAYelwPzc/Pp6WlBZPJ1K027syZMwkPD3erKoCAgKXDQmVlpVxbKTc3l71793qttpLCz4NhdOQQGH4l2iFo4kkuiH05mBQWFlJaWsr48ePlEdvf35+AgACkk+axjoglFarOqgD19fVDWltJ4cxHEDyX4EHJyHEyBoOB6OhoJk2aRGpqKh999FGfieDcJTIykrDw8G7OHnV1db0ah6qqqti1excTJ07sZr3uqSpAS0sLx44dY9euXeTk5LB9+3YOHTpEY2Ojko1CwUt4PggOSkaOrkyfPp27776biRMmEBEZKZfp8FSABUFg8eLFREZGdjMoFRQU9Doq2mw28nLzuGT5JfI5uqbMqaioYO/evfI8trCwkJqaGiX/k8KgcFo4cuj1es455xx8fHywi4713Ysuuoi33nrLo3QvF1xwATfccIM8YjrDBNetW9fncdu2bXPkafbzpbqqmqKiInkeu2fPHsrLy0/7os8KpwcjvjIDOALZd+zY4UgBK4EoiSQkJHDHHXfw29/+tt8Z/g0GAxdffDEPPPAAERER3RLGf/bZZ/z00099Hl9UVMQTTzxBZWUl27dv58iRI7S2tipqscLQM5zrwO52H/X19bz77rtkZmZ28w++7LLLqK2t5e9//7tbdXZ0Oh1paWlcf/31LF68uFu1B7VGzbat23jsscdcRhc1NDTw97//3fMnp6DgIcOqQvfHgPbpp59y6aWXcvbZZ8tB9TqdjltvvZWkpCRefPFFtm/fTlNTU7cR1c/Pj+iYGDKmTeO8886Tl3ucnlTOOez2bdu59957+10bV0FhOBnWgP7+9B5VVVU89LeHeO7Z54iOiUa0O9ZZ1Ro1S5Ys4ZxzzmH//v0UHTxIfV0dCBAUGMSYMWMYPXq07Gvs9JEG5CCIL7/8kgcffFBxnFD4WTJkjhzff/c9DzzwAA899BCRkZEOQZQcvtF+fn5kZ2czffr0bkW0HEs8IqJ4wqnCWV6ltLSUl19+mTVr1iiBAAqnJ6eTI4ckSfz3v/+lubmZ3//+90yZMgWgx4oIp1xNOLE+W1payldffsUrr77C7t27ldQxCqcvw+nIIQ2g+xBFka+++orCwkKuuuoqli5dSnx8PHq9/kS1eZxzA8fvHR0d1NfXs2vXLr799lu+/vprCgsLlbVZhTOAYXTk8ISSkhL++te/8tprr8kBBAkJCQQEBKBWq7BYOqirq+PgoYPs37efgwcPcuDAAcVtUeGM4rRw5OgNURQ5evQoR48e5YMPPkCr1aLT6RAEQc7QoYyyCmcyp4Ujhzs4VWUlkkfhZ8VwVmYYAcFICgqnNd5QoQcuwIrnoYKCRwxzXmgFBYXhZuDFzRQdWkHBM4Z1DqygoOAZXnDk8KAygzIJVlDwBG9EsPZbgC0WC1qtdsjr/CoonEmo1Wp8fHywWMweSXK/BNhZ3V6r1crlOhUUFPpPQkICcXFxHDly1CNdtl8CrFKpOHbsGHl5edx+++0kJiYO93NQUDjt8PPz46677qKpqYn8/PweC+G5S7+PtFqtvP7662g0av7xj38wZsyY4X4eCgqnDUFBQTz44IPMnDmT559/nrq6up7rZLuJOiws7I/9OcCZPG7v3r3MmDGDSy65hJqaGo4ePar4Liso9IJarSY9PZ2//e1vTJ06lSeffJLc3FyPRl8YgACDQ4jr6urYsmULISEh/PKXv2Tq1KlUVlZSXV3dZ2yvgsLPCZVKRVJSEnfeeSf/8z//Q01NDX//+9/ZvXu3x8ILIEycOHHAc2hJklCpVKSmpnLVVVcRFxfHli1bePvtt8nJyemxvImCws8BvV5PysSJXHrZZcyfP5+Ojg7eeecdvv/+e9rb270ivOChADsRRRGTyURaWhoLFixg/PjxlJSU8OWXX7JhwwaKi4tPKbqtoHCmoVKpiIqKYubMmSxatIjJkydTVVXFunXr2Lx5MzU1NZ0le7znxegVAQbkYmF6vZ7ExERmzpzJ9OnTMRgM7N69m++//57cnByKDx9W6uIqnDHodDpiYmJIT09n1syZZGZlodfr2LFjJ9999x179uyhpaVFzuXmbbwmwF1x5qkKDAxk8uTJzJgxg5SUFAwGA4cPH2bLli3k5OSwd+9eZc6scFohqAQCAwIZO3YsmZmZnDXjLCZOmIhKpeLgwYNs3rKZbVu3UllZhd1uHzTBldszGALsxDkqq9VqgoKCGDduHFlZWUyePJmgoCAaG5vYs6eAzZs3s3v3Lo4cOUpdXZ2ibiuMGFQqFQEBAYwaNYoJEyYwffp00tLSiIiIoK21jcIDheTm5lJQUEBlVSXWDisqlaOy5VAwqALcFacwq1QqfH19iY6OZty48UyePInExERMJhOtra2UlJRQUFBAwe7dHCoupqKigubmZkWoFQYdtVqNyWQiLCyM+Ph4UlJSmDx5MmPGjCEwKAhrRwfHjh1jz5497N27l6NHj9LY2IjNZutWKG8oGTIB7oqzpKckSajVavz8fAkPjyQhIZ7k5GSSkpIIDw9HpVLR1NREaWkpRUVFFO4v5NDhQxwvP059fT1tbW1KWlmFfiMIAnq9nsDAQCIiIoiPj2fcuHEkJycTFxdHcHAwKpWK+vp6SkpKKCwspLi4mPLychobGx2DiQAqYXDVY7fuZTgE+GS6CnTXhxsZGUlcXByJiYnEx8cTHh6OTqfDbDZTU1PDsWPHKC4u5tChQ5SUlHD8+HEaGhpoa2tT5tUKqFQqDAYD/v7+REZGMnr0aJKSkkhKSiIuLo7w8HBMJhOiKFJbWyu/T4cPH6a8vJy6ujra29vlMj7etiB7gxEhwD0hSRKSKCIBKkFAp9fj7+9PaGgokZGRxMTEMGrUKCIjIwgKCkan1dFhdeSQrq6upry8nNLSUsrKyjh+/DjV1dU01DfQ0tqC1WpVBPwMQKVSodVqMRqNBAYGEhISQlRUFDHRMcSMiiEmJobw8HCCg4MxGo3Y7XaampqorKykrKyM0tJSKioqqKqqorGxEbPZLL8XI1VgT2bECnBPdB2pwfEF6nQ6fHx8CAoKIjw8nMjISCIiIggPDyc0NBQ/Pz/0ej2iKNLe3kZdXT11dXXU1NRQVVVFVVUV1dXV1NXVUldXT3NzM+3t7ZjNZmxWK3ZFRR9yVCoVarUag8GA0WjEZDIRFBREcHAwoaGhRIRHEBYeRlhYGMHBwYSEhGAymdBqtVg7OmhpbaWuro7KqkoqKyuprHD8X1dXR0tLCxaLpVsHPpRGJ29zWglwb5ws2E6DglarxcfHB19fX/nLdwp2cHAIQUGB+Pv7YzAY0KjViJKE2WymtbWV5uZmGhsbqa+vp77eIfTOn+vr62lpaaGtvZ32tjbMZjNWqxWr1YrNasNmtyn1hjtRq9VotVo0Gi1arUYWSh8fH0wmEwEBAQQHBxMUFCQLaVBQEIGBgfj5+eHr64vRaEStVmO327FYLLS0tNDQ0CB3xNVV1VTXVFNbW0tTUxNtbW10dHTIlTDh9BlR+8sZIcB9cbJwg+PLVKvVaDQa9Hq9LOSBgYEEBwcTGBhIYGAA/v4B+Pv74+fnh4+PD0ajEZ1Oh1qtlus52WxWOjqstLe309bWRktLCy0tLTQ3N9Pc3ERraxvt7e3yZjabu20Wixmz2YLNZpOrL3b9+eRNNtpJ3bOinNxhdH1xu953bz+r1epTNo1Gc8rver0Og96A3mDAcNLmFEwfHx/8/PxkAfT19XV8bvRBp9eh1WpRq9VyvSur1drZcbbR0tIsd56NjY00NDTInWZzczOtra0O7chmw2aznfK9CkJntrYzTFB744wXYFc4X4CehFwQQBBUnSOIRp5vOYXZaDRi8jXha/LFZDJhMpkcL6zJhI/JhI+PDzqd44V1nsMpDCcvOTiX2ZzF3kRR7FGgnX+XRBGxS+fk3ERJRBIlR5aHLqOOU03sOhKd+JuqR4FVqVTdNodwCHLHIUoiov1EO51aSEdHB+3t7bS2ttLa2kpLS4vj55YWWjo/a2trkzu99vZ2uRKH1Wo9cY+ShCPzW3fBPNNGUU8YEZUZhhPny9DXS+F8KQEaGhvhJGE/+XzOl90pGD2NaBqNBp1OJ28ajabHzSn8zk2lUiGoVKh6EMSuwoqgktvpLNEqST1vol3EarPKAmi1WuUR7uTNau2go8PxPJzGwO4agw2bzS53Qs7/3Xn2AgIInJGq7mDxsxdgdznxkuGWeuZUsbvOw07+e08/j2yEbrfe07MQevhdrVYPd8PPWBQBHgJ6Gk2UEUbBG5yetnMFBQVAEWAFhdMaRYAVFE5jFAFWUDiNUQRYQeE05v8DyxS0Zn3WtyMAAAAldEVYdGRhdGU6Y3JlYXRlADIwMjItMDctMTBUMTY6MTk6NTErMDA6MDABsiALAAAAJXRFWHRkYXRlOm1vZGlmeQAyMDIyLTA3LTEwVDE2OjE5OjUxKzAwOjAwcO+YtwAAACh0RVh0aWNjOmNvcHlyaWdodABDb3B5cmlnaHQgQXBwbGUgSW5jLiwgMjAyMuS0v5wAAAAXdEVYdGljYzpkZXNjcmlwdGlvbgBEaXNwbGF5FxuVuAAAABh0RVh0aWNjOm1hbnVmYWN0dXJlcgBEaXNwbGF5mRrp2QAAABF0RVh0aWNjOm1vZGVsAERpc3BsYXn4nJwgAAAAAElFTkSuQmCC;" parent="1" vertex="1">
                    <mxGeometry x="90" y="37" width="108.68" height="120" as="geometry"/>
                </mxCell>
                <mxCell id="3" value="" style="shape=image;verticalLabelPosition=bottom;labelBackgroundColor=none;verticalAlign=top;aspect=fixed;imageAspect=0;image=data:image/png,iVBORw0KGgoAAAANSUhEUgAAAPAAAAEJCAYAAACqv6r3AAAK3WlDQ1BpY2MAAHjalZd3UJRXF8af993KskvbBQEpS2+i9Cq9rqD0KirLLh3WdVlAsSvBCMaCigoqCkbFHo2gxIJYsCD2XoISFNQY1GBD5fuDjyXJfDPf5Mzcub955tzn3HPn/eO8ACdUKJXmkWpAvkQuiw7x5ycmJfMZz8AAEyrQhI5QVCD1i4wMB4Dh/e/x/jYIALhhK5RK8/DvQkOcXiACiBQAaeICUT5AtADEC5FUJgcoewCYFMulcoByFQBPlpiUDFB+A8DLHOKPAHhpiUnJAJUNgCeLjQ4AqHyAyRYKZZkAewwAfpEoUw6wwwHYScTZEoA9B4C3KEsoBtjHAIzJz58uBtg9ACyLRJlSgKMGwC3tL56Zf/NPU/gLhZkKHuoLAMAMzC6Q5gln/cun+f+Rn1c4XMMcADtLFhoNQAMg7uZOD1OwJG1SxDBni4feHSDuZhWGxg2zqCAgeZjFwsAwxdm8SeHDnJEdLFD4yAWxw5xeEBQzzLLp0YpaGbIAv2EWykbqFubGKfSsdIHCvyQrNmGYi7LjJw1zQW5M2EhOgEKXFUYr7p8uCfEfqRus6D2/4C/9ZgsUZ+VZsaGK3oUj90+X+I14FiQq7iZODwwayYlT5Evl/opa0rxIRX56XohCLyiKUZyVy2JH8uWRijfMEU6IHGaEIwR8hCIQ0eDDCWGAPH2mHAACpktnybIzs+R8P6k0L50vkIjGjuE72Dk4AIlJyfyhz+FdFAgAhFb7iDZ9C+DWD1BWjmhp64CmJYD2vRHNtBZQLQUaT4sKZUVDGhUAaGBBFTzowAAmsIQtHOACT/giCBMQgVgkYSpEyEI+ZCjGHCxEGSqwEmtRjVrUYyf24iCacAyncA6XcBW38ACd6MZL9OE9BgiCYBAcgkvoEIaEGWFDOBBuhDcRRIQT0UQSkUpkEhKikJhDLCYqiEqimthKNBA/EUeJU8QF4hpxj3hC9BJvic8khWSTPFKfNCfHkW6kHxlGxpJTyExyBllClpLLyfVkHbmHbCRPkZfIW2Qn+ZLsp4CiTNGiGFFsKW6UAEoEJZmSQZFR5lHKKVWUOso+SjOljXKD0kl5RflEpVO5VD7VlupJDaXGUUXUGdR51GXUaupOaiP1DPUG9Qm1j/qNxqHp0WxoHjQBLZGWSSumldGqaNtph2lnabdo3bT3dDpdi25Bd6WH0pPoOfTZ9GX0TfT99Bb6NXoXvZ/BYOgwbBhejAiGkCFnlDE2MPYwTjKuM7oZH5nKTEOmAzOYmcyUMBcxq5i7mCeY15nPmQNKakpmSh5KEUpipVlKK5S2KTUrXVHqVhpgqbMsWF6sWFYOayFrPWsf6yzrIeudsrKysbK7cpRytvIC5fXKB5TPKz9R/sTWYFuzA9gp7EL2cvYOdgv7Hvsdh8Mx5/hykjlyznJOA+c05zHnowpXZayKQEWsMl+lRqVR5brKa1UlVTNVP9WpqiWqVaqHVK+ovlJTUjNXC1ATqs1Tq1E7qnZHrV+dq26vHqGer75MfZf6BfUeDYaGuUaQhlijVKNe47RGF5fCNeEGcEXcxdxt3LPcbh6dZ8ET8HJ4Fby9vA5en6aGppNmvOZMzRrN45qdWhQtcy2BVp7WCq2DWre1Po/SH+U3Kn3U0lH7Rl0f9UF7tLavdrp2ufZ+7Vvan3X4OkE6uTqrdJp0HulSda11o3SLdTfrntV9NZo32nO0aHT56IOj7+uRetZ60Xqz9er12vX69Q30Q/Sl+hv0T+u/MtAy8DXIMVhjcMKg15Br6G2YbbjG8KThC74m34+fx1/PP8PvM9IzCjUqNNpq1GE0YGxhHGe8yHi/8SMTlombSYbJGpNWkz5TQ9OJpnNMd5veN1MyczPLMltn1mb2wdzCPMF8iXmTeY+FtoXAosRit8VDS46lj+UMyzrLm1Z0KzerXKtNVletSWtn6yzrGusrNqSNi022zSaba2NoY9zHSMbUjbljy7b1sy2y3W37ZKzW2PCxi8Y2jX09znRc8rhV49rGfbNztsuz22b3wF7DfoL9Ivtm+7cO1g4ihxqHm44cx2DH+Y5HHN842TilO212uuvMdZ7ovMS51fmri6uLzGWfS6+rqWuq60bXO248t0i3ZW7n3Wnu/u7z3Y+5f/Jw8ZB7HPT4w9PWM9dzl2fPeIvx6eO3je/yMvYSem316vTme6d6b/Hu9DHyEfrU+Tz1NfEV+273fe5n5Zfjt8fvtb+dv8z/sP+HAI+AuQEtgZTAkMDywI4gjaC4oOqgx8HGwZnBu4P7QpxDZoe0hNJCw0JXhd4R6AtEggZB3wTXCXMnnAljh8WEVYc9DbcOl4U3TyQnTpi4euLDSWaTJJOaIhAhiFgd8SjSInJG5C9R9KjIqJqoZ9H20XOi22K4MdNidsW8j/WPXRH7IM4yrjCuNV41PiW+If5DQmBCZUJn4rjEuYmXknSTspOOJDOS45O3J/dPDpq8dnJ3inNKWcrtKRZTZk65MFV3at7U49NUpwmnHUqlpSak7kr9IowQ1gn70wRpG9P6RAGidaKXYl/xGnFvuld6ZfrzDK+MyoyeTK/M1Zm9WT5ZVVmvsgOyq7Pf5ITm1OZ8yI3I3ZE7mJeQtz+fmZ+af1SiIcmVnJluMH3m9GtSG2mZtHOGx4y1M/pkYbLtBUTBlIIjcp5cKm8vtCz8rvBJkXdRTdHH4vjiQzPVZ0pmts+ynrV01vOS4JIfZ1Nni2a3zjGas3DOk7l+c7fOI+alzWudbzK/dH73gpAFOxeyFuYuvLzIblHloj8XJyxuLtUvXVDa9V3Id7vLVMpkZXeWeC6p/Z76ffb3HUsdl25Y+q1cXH6xwq6iquLLMtGyiz/Y/7D+h8HlGcs7Vris2LySvlKy8vYqn1U7K9UrSyq7Vk9c3biGv6Z8zZ9rp629UOVUVbuOta5wXef68PVHNphuWLnhS3VW9a0a/5r9G/U2Lt34YZN40/XNvpv31erXVtR+3pK95e7WkK2NdeZ1VfX0+qL6Z9vit7X96PZjw3bd7RXbv+6Q7OjcGb3zTINrQ8MuvV0rdpO7C3f37knZc3Vv4N4j+2z3bd2vtb/iAA4UHnjxU+pPtw+GHWw95HZo389mP288zD1c3kg0zmrsa8pq6jySdOTa0QlHW5s9mw//MvaXHceMjtUc1zy+4gTrROmJwZMlJ/tbpC2vTmWe6mqd1vrgdOLpm2eiznScDTt7/lzwudNtfm0nz3udP3bB48LRi24Xmy65XGpsd24/fNn58uEOl47GK65Xjlx1v9p8bfy1E9d9rp+6EXjj3E3BzUu3Jt26djvu9t07KXc674rv9tzLu/fmftH9gQcLHtIelj9Se1T1WO9x3a9Wv+7vdOk8/iTwSfvTmKcPukRdL38r+O1Ld+kzzrOq54bPG3oceo71BvdefTH5RfdL6cuBV2W/q/++8bXl65//8P2jvS+xr/uN7M3g22XvdN7t+NPpz9b+yP7H7/PfD3wo/6jzcecnt09tnxM+Px8o/sL4sv6r1dfmb2HfHg7mDw5KhTIhAIACgMzIAN7uADhJAPcqwJo8NFsDAIih/wFgaAb53zw0fwMAXID6O0DsbCD8MrChGjDPAFRTgEgOEOsO0tFRsf4bBRmODkNebH+A9nhw8J05wFgNfF05ODhQNzj4tR6gPARaJEMzPQAY5APFDDBPGT+Uxnf9c54emvf/0uM/d4B0dHTCP/f/AM70Gn8NIwENAAAAIGNIUk0AAHomAACAhAAA+gAAAIDoAAB1MAAA6mAAADqYAAAXcJy6UTwAAAAGYktHRAD/AP8A/6C9p5MAAAAJcEhZcwAAFiUAABYlAUlSJPAAAAAHdElNRQfmBwoQEzMTTe2/AABo9klEQVR42u2dd3xUVdr4v3f6ZNJ7gVQIJUBISEFcEJGiUgRRUWworrq2te27q6+77m/f3XUt67ru2sXe1rI2bIDYUEihhxICIUAS0nuZyczc+/tjMpcEkswkMyng/X4+F5LJLefeuc85z3nOU4SJEydKKCgonJaohrsBCgoKA0cRYAWF0xhFgBUUTmMUAVZQOI1RBFhB4TRGEWAFhdMYzXA34ExFkrqszkkgIfX8NxcIgiD/7/y5p7+f8rnjsj00rHtburbJ2a6BtM/d3xW8iyLALpGQJHp4uSUcYnJCuARBQK1Wo9Fo5P+1Wm2Pm06nQ6/Xy5vzc+cxpx6rQaPRolaru12vr80plK42URSx2WxYrVZ56/q7/LPNSoelA4vFgsVixmLp6HbMycfb7Xb5f1EUu3USJz+/nv5XcM3PVoBPFsiuo45KpUKtVqNWq9BotOj1egwGA0ajEZPJhJ+fH76+vphMJnx9feXNZDLh4+OD0WjEYDCg0+nQaDSoVCpUKtUpQmW327Hb7NjsNux2Gzab44V3bicLktVqxWw2dxO8k38WJRFJdHzmFGTntXv7WaVSodVq8fX1RaPVou3SiZzY1KjVGrlzUqvV3c7lbIMoitjtdjo6HILe3t5OW1sbbW2ttLS00tLSQktLC62tzp+baW5uob29HbPZjNlsxmq1Op5Np+B3pasmogj6GSzAXQWzJ+F0CqXJZCIgIICgwEBCQkMJCQkhKCgIf39//Pz8MJlMsjCqVCokScJms2GxWDCbzZ0vZxstLS1UVFTQ3NRMU3MTTU1NNDc309bW1u3l7OjocLzcHRY6LI6fnS+sUwCcW1ehEEURURJ70Ys9x9HJCAiCSu5wum6CSkCtUsvaQ9dNr9ej1+kxGB2dnNFoxM/PD39/P8dz9A/A38+P0NBQ4uJiMRp9MBgNGPQGtFqt3AE4OyjH82ymqamZhoYGamtrqampob6+nsbGRpqbm+Xn6Xhudpxf8c9NwIXT3ZWy64gGyGqsXq/Hx8eHgIAAgoOCCQsPIyIigvDwcIKDgwkICMDHxwedTgdAR0cHbW1tNDY2Ul9fL291dXXU1dXJL49TMM1mMxaL5RQBVOgZZ0fQtQMwGAz4+voS4B+Af4A/gYGBBAcHExwcTFBQEIFBgQQHBRMYGIjJZEKv16NSqbBarbS1tdHc3Ex9fT3V1dVUVlZSVVVFbW0tDQ0NtLa2YrFYsFqt3d4Nh1ALnCmyfdoI8MmCqlar0el0mEwmgoKCCI8IJzoqmujoaMLDwwkKCsLPzw+1Wo3NZqO5uZna2loqKiqorKqiuqqK6upqampqqKuro7m5WRZMp0AqDC9Ogdfr9Jh8Tfj7O4Q8NDSU0NBQwsPDCQ8PJzIykrCwMAICAtDpdIiiSFtbG/X19dTU1HD8+HHKy8upqKiQv2uLxYLNZut2rdNxxB6RAtxVWAVBQKfT4efnR3h4ONHR0YwaNYqYmBgiIyMJCgpCq9VisViora2lvLycsrIySktLKSsro6KigpqaGhqbmmhrbcVqtQ737Sl4GbVajY+PD35+foSEhBAeHk5MTIz8nsTExBAWFobJZMJut9PU1ERVVVW396SyspLGxkbMZrOsSQkqFaoRLtTDLsDdRlYBdFod/v7+REZFER8XR2JiIvFx8YRHhGM0GjGbzVRXV3Ps2FEOHSrm0KFDHDlyhOPHj1NfX097e7uiyirICIKAXq8nMDCQ8PBwYmNjSUxMJCkpifi4eCIiI/D19cVms1FTU8PRo0cpLi6mpKSEsrIy6uvrZcNhVwv/SGFYBNhpoBEEAaPRSHh4OPHx8YwdO5axY8YSFR2FTqejqamJsrIyioqKKCws5ODBg5SXl1NXV6cIqoJHOAU7ICCA6OhoxowZw4QJExg3bhxxcXEEBgZit9upqKjg4MGD7N+/n8OHD1NRUUFrayuiKDos+ILAcE6oh0SAu46yBoOBsLAwkpKSmDxpMuMnjCc0NBSLxUJpaSl79+5l165dFBYWUl5eTmNjo6L2KgwZGo2GwMAAoqNiSB6XzOTJk0lJSWH06NEYjUYaGho4cOAABQUFHDhwgIqKCtra2pAkaVjm0YMqwM4R0mg0Mnr0aNLS0sjMyiQuNg673c6hQ4fIzc0lJzeHg0UHqa6uxmKxDOkDUFBwhV6vJyQkhISEBNLS0sjIyCA5ORmTyURNTQ3bt28nPz+f4uJimpubO7VL1ZAMzF4XYOfapU6nY9SoUZw1fTrZ06cTHR1NY2MjW7duZdOmTWzfvp3S0lLMZvPg36WCghfRaDSEhoYybtw4zjrrLGbNnMno2FgaGhrYvn07P/74I0VFRbS1tQIOR5nBwmsC7FSRAwMDSUtP49zZ55KcnExtbQ3ffvsdP/zwA3v27KG2tlaZuyqcUfj5+TJ+/ATOOecc5syZQ1xcHOXl5WzatIkfN/1IWXmZrGJ7G48F2Cm4kZGRzJ49m/POOw+TycTmzZtZu3YtOTk51NXVDdvDVVAYSvz8/EhLS2PhwoXMnj0bvV7PN998w5dffsnRo0cB73qIeSTAoihiNBqZM2cOK1asQJIkPvnkEz744AOKiooUZwiFny0qlYro6GgWL17MZZddRnBwMJ9//jlr166ltrbWa6PxgAVYFEUSExO5/vrrSUpK4oMPPuC1117j2LFj/QpHU1A40wkLC2P58uWsWrWKDquVl196iZycHK+cWx0WFvbH/h4kiiIZGRncf//9NDQ0cO+99/Lee+/T2Ngw3M9KQWHE0dbWRn5+Phs3biQhIYFrrrkGs9lMYWGhx+futwCLokhycjK/u+8+tmzZwj333ENxcTGDFiajoHCGUF9fzzfffIMoiqxevZrjx49zpKTEozlxvwRYAowGA7/+9a+pqa7m7rvvVgxUCgr9wGazsXXrVvz9/VmxYgU5OTm0tLQMWIj7NZOWRJG4uDjGjx/P888/T319/XA/DwWF0w6bzcZrr72GSqUiIyPDo2XV/glw53KR3W7n8OHDw/0cFBROW6qqqqisqiI2NtYjFbrftmy1Wo2vry8R4RHD/QwUFE5bQkJCiIyIQK1We3SefguwzWYjICCAa669Bh8fn+F+DgoKpx0qlYpLL72U5LHJdHR4FqgzoNXklpYW5s2bx333/Q5fX9/hfh4KCqcNarWalStXctNNN1HfWO9xwEO/k9qpVCoqKipYs2YNq1evJiIikscff5z9hYWgOHAoKPRKaGgov7zxl6y8YiWvvPIK2dnZQ69CO5D49NNPufnmm4mIiOD111/n5ptuIjw8fLifkYLCiMNoNLJkyRLeeOMNlixewoMP/oF//vOfdHR0eHzuAaaVFRAQ2LZtG9deey3XXHMNq1ev5oorruDNN9/ks88+4/jx40rUkcLPmuDgYGbPns3y5cuZMmUKX375Jc8++yyHDh3qTKfr+TU8yAvtUJcbGhr417/+xSeffMKKFStYvXo1q1evZt26dXz66acUFBTQ1tY23M9SQWFI0Gq1xMfHs3DhQi688ELCw8PZsmULv/zlL8nLyzspwMdzCR6wAHed7UqSRElJCY888gjvvPMOCxYsYNmyZSxZsoQjR47wzTff8O2333LgwAFaW1uH8fEqKHgfrVZLbGwsZ599NvPnzyclJYWGhka++upLPv74Yw4cONBjZJ43LEZercwgSRJHjhzh+eef55133mHSpEnMmzePRYsWsWrVKo4cOcJPP/3Eli1b2LdvLzU1tUrIocJphyAIBAQEkJiYSGZmJjNnzmTChAlYLBby8vN44IEHyMnJoaampu/zeKEtg1ZapampiZ9++omffvqJwMBAJk2axOzZs5k1axZXXHEFra2tFBQUkJeXx86dOzl8+DB1dXWKQCuMOARBwM/Pj9jYWCZNmkRmZiZpaWkEBwfT1NREXl4e77zzDlu3bqWystJ9248XhuCBC3A/uo+GhgY2bdrEpk2bMJlMJCQkkJmZSVZWFldeeSW33347jY2NHCouZveuXezatYvi4mKqqqrkFJ4KCkOBIAgYDAZCQkJkgU1PT2fMmDGEhYXR1tZGUVERH7z/Abl5eRw6dJCGhoYBvaPDqkILA7y6c+QtKCjg1VdfJTAwkPj4eCZPnsyUKVOYO3cuV111FaIkUlNdw6FDh9i3bx+FhYWUlJRQU1NDc3OzkmpWwWOcFR3Cw8MZNWoUiYlJpKRMJDk5mcjISHQ6HfX19RQWFvLRRx+xc9dOig4UUVNT060sy0AZViu0N3oPURTl4mHbtm0DwNfXl6ioKBISEpgwYQITJk7goosuIigoCEEQaGlpoby8nMOHD3Po0CGKi4upqKigqqpKrnmjoNAVjUaDr68voaGhxMTEkJCQQGxsLElJScTExBASEoIgCNTX11NaWsrmzZvZu3cvhw4doqysjMbGxhGrBQ58BB6kBrW0tFBUVERRURHr1q1DpVLh6+tLSEgIMTExjBs3jtjYWOLj48nMzCQwMBCNRkNzUxM1tbUcO3aM0tJSjh07xvHjx6msrKS+vo6mJodwK3PsMw9n/SyTyURwcDAhISFER0UTMzqGuNg4oqOjiYqKIiAgALVaTVNTE9XV1ZSUlJCTk8OhQ4coKSmRBwFvjK5uMaxz4EET4e6IokhTk6Pe7uHDh9m0aZOj4RoNPj4+hIaEEhUdRWJiIgkJCYwaFcM555xDUFAQRqMRQC58Vl1dTWlpKZWVlXLRs7r6Oupq62htbaWtrY2Ojo4R29v+HFGpVGg0aoxGH3x9ffH39ycsLIzQ0FDCwsIIDw8nKiqKqKgoQkNDMZlMgKNcbGNjI5WVlRw+fJj169dTUlLiqE5ZWSl/18Oav22g89AueKBCD6/fs81mkwW7+HAxP/74o+OZdNZbMplMBAYGEhYWRuzoWCKjIjvnOYlkZWXh6+uLXq9Ho9HItYGbm5qprqmmrq6O6upquSaws+ZsS3MLzS3N8pdvs9mUUqT9xCGQGnQ6HRqNBqPRiL+/P76+vvj5+REcHExoaCj+/v4EBwcTFhZKcHAIgYGB+Pn5yQXBLRYLTU1NNNTXU1FZSW5uLqWlpXIHXV9XL39XI7VDlobTkWOkIkkSbW1ttLW1UV1dTVFRET/xE9C9+LfJZMLXz5fQkFBCQkIIDQ0lMjKS8PBwQkNDSUhIwM/PD5PJhE6nczidSxJWmw2LxSIXkHbWFW5ubqa1tVUuOt3S0kJLS4vcObS1tWG1WuWi4Ha7XS4O7ixC7XzRRFGUi2c5fx4qBEHorPEDgqCS0586S21qtdrO2sxatDodOq0OrVaLVquVC6b7+vpi8vHBx+So6RsQECAXVPf19cVkMuHv54fBaMRgMKDT6RAEQX4m7e3tNDc309TURE1NDYcPl1BdXU1FRYXcsTY1NdHS0ozZ7Kjz+3PNhHrGCXBfSJKEzWbDZrPR2tpKVVUVxYeKT9mvayV5vV6Pr6+vY4Tw9SUwKIigzs3Pzw9/f3+HKt8p9D4+PhiNRvR6vSz4jpKUAI6X1DnHslqt8khut9tpb2+XP3ca4zo6OuTyln0tqbW2tmKz2bpnd+h8pyVBQiWoMJlMPeYjdlpjncJrMpnk6n1arRYAvU6HVqeTBVir1aLRaFCpVHJRr65F7Do6OrBYLLS3t9Pe3i53buXl5fLPzqLrzqLbzk6vvb1dfjZnsnYzoh05TmdEUcRiscgjrCuPGkB+kXWdL7lOp5M7AL1ej8FgQKvVYjQa0el0GAwGfHx88DH5YDQYEQQBX5MJlVqNTqeT5+9GoxGNVoMKFVFRUb0mBHderzckSeq1JKsoirS2tiJJklxSU5IkrB1W2todfuxms1kWSKdW0d7ejtlsxmw2yx2N83+nADo3u91+og60goPTxZHj54BT1R0UC6YgIECf5SvdqSbf22jWVX2XHB8M4ZP7+TK8vtDKdzx0SA6T4ZmsTv4c8YYjx+DVPVRQUBh0BizAgqJDKyh4hhe0WGUEVlAYLrzgyDFgAR5uRw4FhdMdbzhyKCOwgsJpjCLACgrDhDesSIoAKygMF8NpxPLGGpaCws8Zb1iRBm7EUmxYCgoeoThyKCicxgzrCKw4cigoeMYwG7EUHVpBYbjxwJFDQUHBE4ZVhVZQUBh+FAFWUBgmlIwcCiMaQYCEOBUp41R0Zubpkuan05e/8y2WJMePzs+lzs+7vuQqFbS1Qf5OO1XVUrfr6PWOgy2W08hLfzgzciiOHAquGJuoYs0/9UyaqHa8L729sH39DYfgiiIU7BN54XUrnanDAIgMF7h4kYbZZ6uxi7DhOzsffW6jtm7ki/GwZuRQHDkUXJE2WUXaFDVqNSA5Xti++n3nKyXvIziEt+y4xBvvWnnlbRuHj4pIEvgYBRbMUXPLai3Z6WoMeschF5yn4eKFGp56ycrG722YR3ChjmEu8K2g0Df6TqHq2tm72++rVNDYLPHFBjvPvWolZ6sdux00GkifoubmVVoWL1Dj7ycgimDrzDak18Hc2WqmTVXx8edqnnvVxs49jmNHGt4YBD0oraLo0AreR6UCmxU25dp57mUrX3xtp7XN8aYnxqm49nINKy/RMjpGQJLAflKSTUfuMAjwF7j2ci3nnK3hzfetvPYfG0eOjawE78JwVmZQVoIVXON+Jy8Ijr2LDjnmue99bON4peMdCwwQWL5Ywy+v0TJlggqV2jEn7gupU2WPjxX43a91XDBXwwuvWfnwMxsNjSPl3R3Gygwj5RGcUbgw5pyJCAKoBKiulXj3Yxtr3rCyt9Axz9XrYdZZam5drWP2L9QY9Y4Rtz+FKkTRcY1pU1RM/LOeJedreGpNBz9ssTPchSyHN62sgvf5mQmvSgVt7RIbv7fz9EtWNuXY6ehwfD5pgopfXqPl4kUawkIERPup6nJ/sIuO+fGFc9Vkphn46DMbL7xupWCf6NF5hxtFgBWGHJUKRDts2yny1JoOPltvl9Xa6EiBKy/Rcu0VGpLiHX5G3jJASTgEOSRYYPXVWubMUvPaf2y8/q6VsuND33sOryOHYsNScEl3oXDOc4+WSrz+HyuvvGPjWJlj+PM1CVwwV82tq7VkTFWj0bivKgucWJJxzn37bFXnDonxKh64R8cF56n514udBrPWIRTk4bVCKyi4QpD/VamhvkHis/V2nl5jZUeBY2lHq4WsdDW/uk7L+XM0+Pk6BNcd4RUAodM7q7beIQ2hwQI+RsfxruRDFB3awPQMNRPHq/l8vY2nX7KydYddXpYagsfjEYojh8IgIqFWgdUGP/5o56k1Vjb+YKetXUIQHJ5a112p4fJlWmIiBUTJ/XmuSgVWK2zJsbPmDSs7ChwHpqequX6lhuxparRa9zoCuwi+JlixTMOMLDVvvmfl5bdH3rJTTwxQgL2R0VbhTEeSYE+hyMtvWfnPRzZqah29fkiQwKUXOZaFJiSrUAn9EFzBcd4Dh0RefN3Kfz60UdnFL3p/kcjG721cfrGG1VdqGZOoktviqq2SBKOjBX5zu475czQ8/ZKVjz+30dwyOKPVMDpyCChKtIIrtuSLbM43c+iwY1nIaBA4d6ZDXT5nhhqdrlNdduNFdi43VVRLvP+JjRdft7K/SOxRCCqqJP75nJV139j55dVali/WEBHmGOFdCY0onVh2evKvehbOU/PUGocnmNXq3eejOHIojGiKih3DqloNqSlqbrxGw0UXaggOFNye5wKoVdDSChu+s/HMy1Z+ynMsN/WFJMHeQpHf/snCJ1/auPk6LXPP0eDr495obxfBaISLF2o4K0PNW/+18dIbVg6ViF6cPv4MHTkEQcBkMhEWFkZoaCiBgYFoNBokSaKtrY2mpiZqamqora2VK9uPZEwmEwCtra3D3ZRBIThI4JfXaLnuCi3xowV5KccdVCrHElLONjvPvGzjs3U2mpr79312dMA3m+xs2yWycL6dm1dpmZaqQu2mN5ddckQ83XmTlnnnqHnmZSvvfmSjxQvW6p+NI4dKpSI8PJzs7GxmzJhBRkYG8fHxBAcHo9Pp5KLXdrudjo4OqqqqKC4uZvv27WzcuJGdO3dSV1c3IoV5xeUraG9r5+233x7upngdk0ngT7/Tcd1KrVsC48S5JFRcIvLauzZe/4/n67SNTRJvvW/lux9tXHu5lqsv05AQq0LCPbUaYMpEFY//n46xiSr+9GgH7WbP2nTGB/QLgkBiYiIrVqxg2bJlpKSkYDQaXR4XHBzM+PHjufDCC7ntttvYtWsXb7zxBh9++CHV1dXDfVsyQUFBrLp2FU1NTaz9dC3NLc3D3SSvkp2u4rKlGjme1xUCjlG3pk7io89tPP+ald17xX65Trqi7LjEw//s4IsNNm68RsvSCzUEBwluLTvZRTAYBK68RMP7n9jYutPDtabhXAcebBuWwWDgsksv5Z577yUlJQW1Wj2g8wQEBDBz5kyys7O5+OKLeeihh9i0adOIqHY/Y8YMpk2bRltbG2lpU/n+hx+Gu0leJTFehclHcGvOqFZBuxm++dHOsy9Z+e4nO2bL4GhMdhG27xa5+/cWPvnKLhvVDHrX6r3DGAeBAcPwQHtg4HmhB1EbDQ4O5k9/+hP/fuoppkyZMmDh7YpOp2PBggW89dZbXHPNNWg0w6t86HRaLr74Ynx8fAgNDWXZ8otRqc6sFGU6ret+3qku7ygQuef3Fq67zcxX39gGTXi70m6GLzbYWHWbmf/5o4WC/WK3NrnTbo8YzsoMg/V4Q0JC+Otf/8qdd96Jn5+f188fHR3No48+yo033jisQjx+/ATmzp0r/37+gvOJi4sbtvYMB4IALa0ST62xcvkNZta8aR2WUL+6eonnX7OyYrWZp9ZYaWqW+hRQQRBQqUbGMqoHlRm8j7+/P3/+859ZvXo1WjkLmvcJCQnh//7v/7j88ssH7RquWLJkCbGjR8u/jxkzhgULFgxbewYDib47elGEF1+38fuHLBw+OrxeT5IEBw+LPPAXC/94xtr3mq8geWUN1xt4oLN5V4QFQWDVqlWsWrXK7ZFRFEXMZjOtra1YLJZ+WZmDg4N58ME/kpWV5dX7cIeoqCgWL17cTQ/TaDSsXLmSoKCgIW/PYNHX16ESoLpG4r2PrZjNw93SE1g64L2PHUEWvc1oBEA1QrI6erAO7N0eKHVqKnfeeScGg6Hv60oSx48fZ+PGjfz4448cO3YMi8WCyWQiMSmRmb+YycyZMwkNDXV5zTFjkrjzrru46cYbaW4eOgvwrFmzmDJlyimfp6WlMWPGDD777LMha8ug0scrIghQWydRUTUyRrKuNDRK1Df0Mc8VBIQRYq4YEctIarWaa6+5loSEhD73s9lsfPLJJzzyyCNs376djh7ccZ579jmmT5/Ob37zG+bOnetyNF+yeDGfLVnCm2++OST3ajQaWbFiRY8dla+vL0uXLmX9+vU93tvphivRtNkZmqif/rZbArEP9aFr+KJH1/FCW0dEP5KUlMSSJUv6vllJ4pVXXuHGG28kJyen1xe8ra2NjRs3smrVKl588UVsNluf5zUYDKSlpaFRD01fNnXqVH7xi1/0+vcFCxYwYcKEIWnLoOOOj/Nwt7GvlvXU/s7cuN6wYQ1zdULvcdZZZxEbG9vnPps2beL//b//R21trVvnrKys5H/vv5/XX3+917lxSUkJ999/H4888gg2u82t83qCIAgsW7aMsLCwXvcZNWoUixYtGvS2DAWuTBLCaRoT44xD9hgvDMEDb4aXHrwgCMyYMaNPVddsNvPCCy9QWlrar3PX1dfzxz/+ke+++67b5+3tbbz//vusWLGCxx77O1VVVd65GRckJSW61DQEQWDRokVERkYOSZsGE3fez5Erv1LvjfPSCOwNBi7AXrI9+Pj4kJSU1Oc+JSUl/DBAL6WjR4/yf//3f1RWVgKwZ88ebrvtdlavXk1ubi6iN/30XDB37jyX9woONXvWrFlD1q5B43QdgYXOf6Te/zxSHDmG3Yjl4+NDSEhIn/uUl5dTV1c34Gv88MMPvPDCC8TExPDoo4+yb9++Ib/PwMBAli1b5tYSmcFgYMWKFXz66ae0dy0EdJpx2o7Ap9R4OanNnSVfRgLDXplBo9a4XDpqamryyCprtVp56KGH5HXj4WDGjBlMnz7d7f1nzpxJamoqW7ZsGZb2egV3RuARS9+NHyltH/Z+xG63YXGRYdvX19djz6y2trZhE16NRsNFF12Ev7+/28eEhYU55ssj5U0ZAJL8T894TRUdFHpumMSJ7CAjgWF35LB0dLh0ooiNjSU0NHRInS28SXJyMvPnz+/3cUuXLmXNmjUcOnRouG9hQEiuyhF6OAf28RFIThSIDBcwGAXUKsc1m1skCvaJcmmWgd9Az02GkdPxDPscuLWtlePHj/e5T2xsLNOnT+fw4cPD3dwBcfHFFxMfH9/v48aOHcvc8847bQVYdobubS7JwOXX5CPw4P/ouPxiDX4mAY2mM+EdYLPBZ+tt3HyPxesJ6ZwjsDeWkc4IRw6b1UZBQUGf+xgMBm688Uaio6OHu7n9JjIyksVLFg/oWI1Gw0VLl/ZL9R5JSK7+JgxcgJPHCFxxsYaIUAGD3pF3S1A5jEtGg6M2cUjw4A2TgheG4DPGkWPbtm0u56ezZs3ivvt+NyghhoPJ2b84m8mTJg/4+LPOOqtfxq+RhKsqCYL8T/+JjlBh8uk5gbskOQTMC2HkPbfZcRUvPCDPTzHsjhzgEOC9e/f23VCVihtvvIknnnjitImb9TGZWHnFSrfSAPWGc/lJPcwJCAYFD0bgwADQaISeZUBwuN6KnvpZ99C4kRZ6MeyOHOBY53UnAken07Fq1Sreeustll9yCT4+PkPxjAZM6pQpnH322R6f5/wFCxjjhgPISMOlKyUM2Bqk1Qp9rsWKItjdSTg9nAxnRg5v8/bbb7schcExEs+YMYM1L77ImjVruPDCCwkIGCEJirrgdImMiIjoc7+ysjKXRry4+HiWLr1ouG+p37hcqfBgBO68QK+IEoiiJ2cf4cLfiQcZObxrINi3bx//+te/3F6rDQgI4PLLL+edd97hvffeY+XKlURFRXnFuOAN4uPjWbZsqcv93nzzDd55550+9xEEgSVLLiI8PHy4b6t/SH1/F57MgXFxrEoAlcoTIRT68enw4cEI7P0e6q233uLNN9/sl3+yn58f8+bNY82aNXzyySfcfffdJCcnD3vSurlz5zJ2bHKf+1RVVfHuu+/x4YcfunQVTUtLY+bMmcN6T/3FYHBHQx6ckU5QDTxvlUbjSMjXU9NOfDQyRHlEVWZoamrigQceIDAwgIsvXt6v0dRgMJCRkcHUqVO56aab+PTTT3nnnXcoKCgYcn9iPz8/li9f7rIT+eGH7ynYU4BOqyMnJ4cLLrig132NRiPLli1j7dq1Lj3X+oNW45hPajT98O/ttC4757gn/y8IEBYqcN5MNWqVe7WP+ovk4o8aNQQFQJ1fz3Plrm12buBYjjo7W83oGKHHdnvVCu0FRpxps6KigjvvvIu2tnauuOKKfo+kGo2GsWPHctddd3HVVVexceNGXnjhBTZv3jxkgjzj7LM566yz+tzHYrHw3/9+iMVswWK28PHHHzNv3rw+73f27NlMmTyZvPx8r7RTo4E7btJx3iw1Oq1DmF0OLBJykTDnJkogiSd+12gc5UjiY1WDVoa2r2ZKEoSHCTzzdwMW88lhgY7yhs52O2s0Oe/JxyiQECsQHNhzPmtv3s4ZW1qltLSUu+++m7KyMm666aYBJXoTBIHw8HAuv/xyFixYwBdffMFLL73Epk2bvDqCnYxWq2X5xRe7dL7Yu3cv33//vfz7+vXrOXToEOPGjev1mJiYGC5autRrAmzQC8yZqWbBuWqvpLZxyolzdHan2sFgIAEGHaRNUvVL0xU6jxXFoal/fcY4cvRETU0Nf/zjH7n66qv5+uuvsXpQ2zEoKIiVK1fyn//8h4cfftitmNyBMmbMmG75nnvjiy++oKysTP69pKSEL7/80uVxCxcu9JpHmgAgOfJS2b2wOXNc2e3u10EarLmks4haf9tvt/ctvELXC3ijkR4ycCv0EMzhLRYLn332GVdeeSV33303OTk5Ho2eISEh3H777bz33nsDCi5wh8VLlrh0NKmqquLTTz/tlupHFEU+/PBD6uvr+zx24sSJbnUQ7uA0Eo8Mc0x/G8/wTkNHyEMbeGWGIXx4lZWVPPXUUyxZsoRbbrmF77//fsCRSSqVirS0NJ577jlWrVqFTqfzWjvDI8JZunSpyxIpP/74Izt37jzl861bt7qM/9XpdFx++eX4+vp6rd3DJQceXXeYsnl49VmdSY4crpAkiaqqKl566SUuvvhiVq5cyVtvv0V5efmAzhcfH8/jjz/OlVde6bW147NnnM3U1NQ+9+no6OC///1vjwa1lpYWPvzwQ5eZNM+aPp3MzEwvPFRlEDvdGTGOHP2htraWtWvXsvr61Vx00UU89NDf2Lt3b78rDgYFBfHgHx9k3jzPVVK9Xs9ll13m0u953769fPPNN73+/ZtvNroMHwwMCnI7PY/Cmc2IcuToL2azmfz8fP73f+9n0cJF3HHHHfzwww9Y+pF5Iy42jv/3//7kMq2tK1JTUzn33HNd7rd27WfdjFcnc/hwCRs2bHB5nvPPP5/ExESPn6HL6oE4Sn+q1Z3/d916+qzLNph2EnemwKrOdpz8/8lb17+72pz7jRTtYUQ5cgy4LZLE4ZLDPP3007z33rssXrSY2++4g9TUVLfU4+zsbFavXs2f/vSnAdcNXrZsmUu/58rKSj795JM+97Hb7XzyySdcdeWVBAQG9rpfYmIiF154IQcOHBjwc3PnJbRY4accOwX7RaxWCbUaVCpBfpkFwWHtFUUQ7Y4AAkmC8FCBBXM0hIW6qg88sDfJnSlw3nY7X39vx2zuWQidS11y+0X3rOeiBDv3eJ7N9IxdB/aE6uoaXnr5ZX7YtIl77rmba69d5TJpniAIXHvttbz77rvs2bOn39eMi4tj4cKFLvfbtGkTu10kLwDIzc0lf+tWzjvvvF73UavVLFmyhNdee23gGTtdSIBaBd/8YOOmuy1U1XRxIhS6/w+nemNpNfCH30jce5v3jIRu35YA9Q0SD/6tg40/jMDaLc52euEcp40Rq78UFRVx772/4f7773e5NAMwOjaW8/twZeyLeXPnMX78+D73sVgsfPTRR7S1tbk8X0NDAx9//LFLn/CMjAyPjFnuqKH7i6RuwgtdPLC6jFpd3REBrDY4eFjCtULjfWVUwCHAh0pGkp44OJyxAgwOq+6//vUv/va3v7l0o1QJAhecfz4B/v0LTfT392f5JctdZs3cv3//KRUi+uKLL76guLi4z338/Py46qqrBr4UJrkWH5t94EIguuUEPcDz99X7CJ2OGbYRLsBnuiOHN7DZbDz77LN88MEHLvcdO3Ys0TH983LKysoiOzvb5X6ff/45x44dc/u8hw8fdssza86cc5k4ceLAHo4b36EndXDdW54b2PmH24/DKwznOvBQOnJ4SlNTE48//g+OHj3a535hYWGMS05286yOeeiyZctc+mrX1NTIGUfUarVbm91uZ+3atTQ0NPR57ujoGLfm373hjiV34AzeCHw6vX+DyRlnxOqNgoLdfPftt1x9zTW97mM0GontR76tMWPG9BkC6ESj0XDXXXdx8803u+00IkkSJpPJpVcXONLWvvLKK30uT/V8ERd/F0AQBk9SHEEPzhCCwWAwzz0yGPbSKkOF1Wrl2+++48qrrupTKPqTnmfRokVu5XsODAxk+fLlg3ZvEydO5Nxzz+WNN97o97F9fosSAw6Kd+e6HR3QYR3oCCzJ5+n9DGe28MIIdeTQ6XTExcV5XE7lZA4cOEBLS0uf+7grwGFhYSxbtmxEpPAxGAwsXbrU+0n+OkuIDPQOpb6OFKCxScINo3zP53YuW/V86p8NA58DD0JjDAYD06dP58knn+T1119n9OjRXj1/Q0ODS2u0u44c55xzDunp6YPwFAbGOeecQ1paWr+Pc6lFqxiwRLS0OJw6NOouXltqx+8Au/eKtLV5NgfuqWmny7h7xjhyGI1GzjrrLFatWsX8+fOJiIigvb2dSZMmuVxK6Q9qtdrliOlO1g7niOdJvmdvExoaytKlS9m8+Sc3l28cuDIGeaJBb8m389QaK1MnqTAaBbQasNslmltg116R5161Yh+gQ5MzacDpIqw94Q1NYVgF2GAwMGPGDK6//nrOP//8bnWCjUYjM2fO5BMXrof9ISAgoE+hkySJmpoal+eZNGmSW37PQ82iRYt46qmnKCkpcWt/Z/VAwdU+A+R4pcQDf7Hg43Mi55YkQocV2trdcfLoo12ns+R6kYELsIfdh8lk4i9/+QvXXHNNr8swc+bMISIigsrKSq/cbGJiIiaTqde/WywWtyy5y5YtG5F1msaOHcuCBQt47rnn3DtAcr2eKnno8muzQ1PzUGe1O00YVkcOL1w8OTm5zzXUlJQUzj//fM8vhMMwNmfOnD4t0HV1dS5V9piYGC688EKvtMnbqNVqLrnkEoKCg90+xtVIJkojc7Rzp00jwL7oooGen2LYopFaW1v58ccf+1xH1ev1XH/99Xzx5ZdUeTgKT506tc/gAHD4Tx85cqTPfc4991wmTJjg8nrffvstu3bt8pqVWpIkt3JDZ2dnMz07my+++MK987r440gUXsfzcJG7SnB6go3QG/ASHqwDe863335LTU0NoaGhve4zY8YMrlu1ikcffbRfCd+74ufnx69uvtml2vvdd9/16fnk5+fH1VdfjV6v7/M8VVVV/O53vyMnJ8erAnz++efzzjvv9LnU5efnx9KlS1m/fr3LzB6SK/1Z6E9yuqHFPbE8s4UXPFoH9vzF3LFjB5s2bepzH41Gw6/v+PWA11xNJhO/+93vuPyKK/rcr6amhq+++qrPfTIzMt2K/tm0aRO7d+8GHILnjQ0gJyeHrVu3urz+3LlzXUZHOZH6MmJJns+BBwuXhdOE00CF9gIerAN73ru1trby/vvvu6yHFBUdxeOPP84VV1zucvTryqhRo/jLX//KXXfd5TIm+Msvv2Tbtm29/l2tVnPR0otc+j1brVY++eQTt8IG+0t9fT2ff/55t2yWPZGQkOC2f7Q7c+CRSF/rwNBVhT6zGfZwws8++4z169e73C82Npan/v0UjzzyCBkZGb0KpEajYfTo0fzqll/x/vvvc9utt7pcrz1+/DjPPvtsnx1JcnIyixcvdtnOwsLCfoUN9pcvvvjCZVSTIAgsXbq0z6kJOBXMviXUVWcxYjkNRuAzwpGjoaGBxx9/nMzMTCIjI/vcNzAoiNtvv51LL72UnJwcduzYQXl5OWazGZPJRHBwMCmTUkibmsaYMWPccsW02WysWbOGnJycPvdbsGCBW3mzvvrqK5dRT55w4MAB1q9fz+rVq/vcLzU1ldmzZ/P+++/3vpMrI5UAviYBQRh5xiy9ziGgPTarc1ow0gX4tHfkcPLDDz/wxBNP8OAfH8Ro6Hu0FASBqKgoli5dytKlSxFFEVEU3fKy6onPP/+cJ598sk+DT3BwMEuWLEGtVvd5rtraWj755JMBG9vcwWaz8d8PPuCyyy7Dz8+v1/2MRiOXXnopa9eu7VWzOBEN1AsSTBynIjhQoLZ+5EiwWgWTJzrqOfWu4p8G4TbDuQ7szadjt9t5+umnefmll/udVE6lUqHRaAYkvBs3buS3v/0t1dXVfe43c+ZMsrKyXJ4vf2s+27dv996D6YXNW7awzY3rnHvuuUydOrXPffqyZYgiZExVc+sNWoICR4Y4aDRw8WINK5Zq6EN2EQRpxI/A3mDgAuzlDrm5uZk/PPgHnn322UExAHVFFEXWr1/PLbfcwv79+/vcV6fTcckll/TpwQWOTuijDz8acMWI/lBfX8/HH3/scn4aFhbG4sWL++hr+3YmlgCjEe65VcfL/zIwZ6Ya/dDnqAMc6vDYRBV/vl/PE3/RExUhuFgHFka+AJ9plRlqa2r57W9/y4MPPkh5+fFBuUZLSwvPPPMMN9xwA4WFhS73nzhxInPmzHG538GDB90yxnmLr7780i2f5wsuuIBRvUV1uREMIEmg08AF56l57WkDf3tQz8RxKg8zdfSP0GCBm67V8s6LBn59k5bgIGHEWseHGg8qMwwOra2tPPHEE1x55Uo++ugjWltbvXLejo4OtmzZws0338z//M//uG1oWr58uVt+z19++SWHDx8epKdyKgcPFvH111+73G/SpEm9uqPa7bgVj+us9BcSLHDzKi3vvGDg9l9qiQgb3CHOYIAL52p4+d+OjiNlvMqlBxY43k2LRcJsOfOlfFgdOXrDZrPx7bffsmrVKq6++mo++ugjqqurkfrZ7YqSRF1dHevXr+e2225j2bJlvPnmm26r6KNHj3Zr6cjdNLDepKPDyqeffuqyg9NqtSxdtqxHg5fVBl9ssNHY7F7uK6fwJI9xqLJvPGvgogs0+Bi9+y6oVDB5oorH/0/Pmif1zJ+tRq91zyvMqTZvyrFTVX3mC7AHvtCD/3AaGxv58MMP+eqrr5g8eTLTz5pOxrQMxo4dS3h4OCaTSV4PliQJi8VCS0sLNTU1HDp4kB07d/LTTz+xa9cumpqa+n397OxsoqOjaW5u7nW+qVar+f77793ykPI2W7ZsITc3l6ysrF6Nf4IgMHHCBFJSUnqsfPjxFzaiIi3cfoOOmGjBrRFOFB1B+bNmqElNUfHJl3aee9XK9l12jwuFx0QKrLxEy6qVGpLiHSOuOzHDAg7Bb22Djz638ci/rHQMvKT0acOIWEZyRVtbGzk5OeTk5KDVavH39ycoKIiAgAB8fHwQBAFRFGlvb6ehoYGGhgaampo8KgoOkJ+fzyWXXtLnRFEQoLz8OE3N/e8gPKW6uppf/epXREZEuHLH6DVIw2yBf79gJWeryC3Xa7ngPDV+foLLWF0Jhwru5ydw1WUaZs1Q8+b7Vl59x0bJ0f5rIn6+Agvnq7npWi2ZU9Vo3BxxwSG4djts2+FIEvDR57bBCWH0MmeEI0d/sVqt1NbWUltbO+jXKikpcTs4fjiQJInCwkK3jHF9YbPD5jw7u/eKXDjXsWyUkapGrXEtRM4ROzZG4H9u13HBeRqef83Kf9faaGh0/YpqNTA9Q82tq7XMPUeDn6/7NYqc/s7HyiRefcfKa/+xcbR0hDpv99R+L5zjtBNghcGjpVXi3Y9t/Jhr59rLtVyzQkv8aEFOX9MXouQQprTJjrnrovkannm5g+8327FYTt1fECA5ScX1V2q5fJmGyAhBLjTmCqe63NAo8ek6O8++7FDfB5qeZ9jwwhA8bBk5FEYuZcclHn6yg6822rlplZYl56sJChDcEhC76HBzXDhPTVa6gQ8/s/Hi61YK9ouyWh4RJnDpRRquv1LLhLEqR4VDN+fOKpUjHe1PuXaeednK+m/ttLWPfHV5sBi4AP98n9nPArsdtu60c+f9ImvXqblttZYZme7NTbsuO91wtZY5M9Vs+N5O0SGR0BCBWWepmZaqRq8/URjNFapOv+f9RSIvvGblvU9sp7+VeTgzcij8PGhrl/jkCxtb8uxceYmW66/SMCbBsebkSvCcf0+KVzEmQYVdPFEc297PeW5VtcR7H9t4/jUrBw6JIy64Yrj42VRmUPCMqhqJfz7XwfrvbNx0rZaLF2kIDXbMW13Jktgl80d/lsrVnctCG76z8fTLVn7KtdPRMdxPYmShjMAKbiNKULBP5DcPdrB2nZ1brtcy+2w1Br17xid3cS4L5W238+wrVj79yk5j09ANuSaTieioaJLHJRMfH09oaCg6vQ6L2UJ5eTl79uxhz549A/It8DYj2pFDYWRitkh8tdFG3nY7lyzWcNMqLROTHcYoT3yUhc4yLkdLJV77j5VX3rZSWj7475lerycyMpKUlIlkZmYxbdo0xowZQ1hYGDqdDpVKhSAISJKE3W6nubmZHTt28PLLL/P555+7zCgzmCgjsMKAqauXeOF1K99ssrP6Ki0rlmkcUUJuqNVdcS4L1TVIrP3KMeru2D14y0JqtZrQ0FDGJo8lY1oGmZmZpKSkEBUVJdeXkiQJURRloe2Kv78/5547m4yMDNasWcMjjzwyoNH4Z+nIoTCykCQoKhb5/UMWPltv45brtcw/V42vj3vLTs5loU05jmWhr7/z/rKQIAgEBAQQn5BA2tSpZGVlkZqaSmxsLH5+fqjVKkRROkVYHSGJgjz6dt1sNjs+Pj7ccssttLe38/DDD7vMAnpKu7xwb4oAK3gFqxV+2GxnZ4HIovlqbl2tY+pkFWp1z4YreVnogMjzr1l592MbNbXeEVxBEDAajYwaNYrJkyeTlZVFeloaSUlJBAUHo9VokRBlobV1OnALgoBapUZQCdisVuobGqivr8dsNmM0GomMjMTk44O984YkSUKtVnPTTTeRl5fHunXr+tfQ4XTkGPHB0grDQlOzxFsf2Phhi8iqKzRcfZmG2FEnwgCdy0KVVQ6vrxdf9/6y0LRp07jvvvuYMGEC4eHhciZTp0pssztGSofqrkKlUiGKIs3NzRw9epSdO3eSm5vLzp07qKyqwtJuxmA0MmnSJG644QbOPfdcucKHJEkEBwezatV1/LBpE+2DnIziZAZuxFJsWAp9cKxM5K//6OCLDXZuXqXl/PPUBAcJNLdIfP29w/3xpzw7Hsab9IhGo2H69On4+/tjt9u7qcVOgxQ4KlEeP36cPXv2kJuby9atWyksLKS2trbH6K5jx46Rm5vLo48+wiWXXCqHj9rtdrKzsxiXnMyOHTvcb6jiyKEwkrHbIX+HnTvuF0mfomLSeBWHj0pszrP3O1pIEAT8/PyIi4sjPT0dHx8fXn755R4twEVFRRw8ePCU+s02m43a2joOHCgkPz+fvLw89uzZw/Hjx+lwc4G5traWxx77O+np00hMTJRH9ZCQEGbMmNE/AfYCiiOHwqDT1iaxaYudTVv6FyxsMBiIiYkhZdIksjIzuy3vlJeXs27dOg4dOnTKcXV1dezYsYNp06bJn6nVajZs2MAf/vAHjhw54lGml3379rFu3Tp+9atfyZ9pNBpSUlJQqYR+1Wf2FA9GYEWHVvAuWq2WsLAwxo0bR0ZmBpkZmUyYMIHIyEg5cYNTbQ0LCyMlJaVHAZYkiZycHK6++upu1Sh9fX05duyYx2maJEli8+bNXH/99Wg0Gvmz+Ph4jEYfr6WBcodhq06ooKBSqQgMDCQpKYn09HSysrKYPHkyo0aNwtfXF5UgIEoSkiSeMif18fHhrLPO6rUA/M6dO6mtrSU8PFxe0x07diyJiYns3LnT47YfPHiQxsZGQkND5WwtPj4+bhUTcKKsAyucdvj6+hIbG8uUKVPIysoiLS2NhIQEAgMD0Wg08pxSFEW6rj4JgiCPphaLhePHj2O329FqtT1mXjly5AhFRUVERkZit9tla/HUqVO9IsBmsxmbzdatakVbW1u/ssAo68AKIx69Xk9UVBQTJ04kK8vhppicnOzwL9Y5kkzLyztdHCGcAisIgpyF5eDBg2zdupWcnBwKCgooLy/vVWBaWlrYujW/Wz1lrVZLdnY2r7/+uscJCAODgjAajSeKrAkCRUVFg57T/GQUAVbwOgGBgUyZPJmMDIeb4sSJE3t0U+zm9YSAoHIIrd1up6mpiSNHjrBzxw5ycnPZsX0HJUdK+kwweDK5uXmYzWZZrZUkidTUVEJCQlxW43DF7HPOwd/fH0mSEASBtrY2vv322/4Vg1McORRGInPOPZcnn3wSf39/1Gq1Qx3uwafY4UThyITZ1tZGWXkZewr2kJubQ37+VoqKiqirqxvwaFlQUEBFRQVxcXFyDa24uDjGjh3rkQDPmTOHVatWyQ4gKpWKLVu29L8q5XCuAyuOHD9ffHx8GD16FKmpUwkKCuKNN97oZnktKSmRVdue1GJwJNo/fvw4hYWF5OXnk5eby759+6ioqPA4m6iT8vJy9u7dS0JCgqym+/n5MW3aNH766ad+ny8gIIClS5dy7733Mnr0aERRRFCpKCsr4/HHH6e+vn7IvwtFhVZwm0mTJnHR0qVkTJvGuHHjiI6KZkvOFt54441u+xUXF3Pw4EHCwsK6jbqNjY0cOHCAbdu3kZuTy65duygtLR20eaPFYiEvL48LLrhA/kytVpOVldWr8etkdDod8fHxnHPOOSxatIgZM2ag1+tlraDDYuGll15i8+bNw/GVKI4cCu5z6WWXcu8998qjmUqlor6+/hQvpsbGRrZv385ZZ50lf6ZWq1m7di333XcfTU1NQ1Y4PD8/n5aWFkwmkzz3njRpEpGRkT0WSler1YSGhDA2OZmMjAyysrKYMmUKMTExDiu5Xeym0qvVaq688komTZrEf//7X9atWzekhizFkUPBLQRBIDAgsFvInUqlora2tscwutzcXFavXi07OoCjVI1zSWeo2F9YSGlpKePHj5dDAaOjo5k4cSLHjh1DEAT8/f1JSEggLS2N7OxspkyZQmxsLP5+fqicc3hR7NE/WqVSkZCQQFJSEvPnz+eNN97gT3/605Bl61AcORTcQqVS9Vhfqa6urkeB3L17N1VVVYwaNUoesZOTk4mNjWXv3r1D1u7qqip27drFxIkT5XYYjUbOP/98jD5Gzpp+Funp6Z2hhkGOUEPnOrQkIdpsctSSMzbYiVOwnZvRaOT666/nyJEj/Otf/3LZNsWRQ2HIUKvV+Pr6dvtMFMVeK2SUlpayf/9+YmNHd1ZaEAkLDSU1NXVIBdhut5Obm8Mll1zSrd1XXXUVV1999amhhp3ahCAIqNVqwOG0UVdXR1lZGYcOHaSlpZWQkBCmTZvGqFGj5A5MkiQ0Wg2rVq1i7dq1LqtVKo4cCr2iUqkICAigra0NS0+lEfqJRqPBaDTSddyw2+29Wl7b2trIz89n7ty58mdanY6srCzeeeedIVWjt23bTkNDA0FBQfJ1nWvDTrXYKbAC0GG1UldXR1FREdu2bSM3N5cDBw5QUVFBU1OT7AE2dmwyv/nNvSxdulQemUW7SGJiIvPnz+e5554b9HtTKjOcIQiCgK+vL6NHjyY1NZWsrCymTp3Km2+9yYsvvOjx+bVabXfPIxxLRHV1db0ek5+fT1tbG0aDUU6COHXqVIKCg6nzoLaVWq0mLDSMcePHMWXKFL766isOHDjQ6/6HDh3i8OHDhISEnJIyR6VSI4p2GhsbOXLkCDt27OgM5t9JSUnvjiNWq5W9e/fwu9/9jvDwcGbNmiWfW6vVMm/ePF599dW+E94NqyOH59dW8CJRUVE88sgjZGdnExwcLGdTDAkJYWv+VrZv3+7R+XU6nexJBYAg0GG10tDQ0Osx+/bto6ysjLFjxyKJjnllQkICSYmJ/RJglSDgHxBAYmIi6enpZGdnMWVKKqNHj8bX1xebzdanANc31LN9+3YyMzO7NF+goaGB77//npycHLZu3crBgwepq6vrtVRrT1RWVvLss8/KMcrO+fPEiRMZPXo0RUVFvR+sOHIoOKmurubQoUMsXrwIEORMFAkJCdxzzz386le/orm5ecDn1+v18gvqxGw292ltraysZM+ePYwbN06eYwYGBpKenk5eXl6f13M4i4xmypQpZGdnk56eTmJiohz0IIkSouTwgsrMyuKFF17oPamcBDk5ObL3FDimGCUlJdxzzz1UVVV59Ox/+ukn9hfuJ2NaBna7HVEUiYiIID09vW8B9gJu1GXvGWUEHllYrVb+/e9/8+2333WLgRVFkfPPP5+VK1d6dH6DwSDH5AKy/29fAtzR0UFubm63EU2j0ZCVldVteQkcI3xs7GgWLFjA73//e95++20+/vhjnn32WW6++WYyMzMJCgoCHKq7XTwxd02bOpWIiIg+279r1y6qq6vlZyOKIrGjRxMTE+Pxs6+trWXj1xu7dW46nY65c+f2K7xwIHhgxFJEeDAwGo1ERkQSFx9HeHi47DBfV1dHSUkJxcXFNDY29nhsdXU1Dz/8MOPHjycqKkoe9XQ6Hbfddht5eXls27ZtQO0yGAxotdouL6lDgNvb2/s8buvWrTQ1NuEf4C+rl5MnTyYyMhKz2cy45GSmdTpMTEqZRFT0qUEPsmWYU5PQlZaWkpOT49IodvToUQ4cOEB0dLR87qDgYNLS0jyeXgB8/fXX3HjjjfL3JUkS2dnZjB41muLDxR6fvzcUR45hRqfTERkRwYSJE8nMzCQtPZ3ksWMJDQ1Fr9fLSxk2m42mpib279/Pe++9x4cfftijBXjz5s38+9//5sEHH5QFThRF4uPjueuuu7jlllsGpEqfHKwuCA6PK1cCfPDgQUqOlDB16lTZiSM2NpYnnniCyMhI4uPj8ff3l4VSEqUeDE2OUbO93UxFxXH27t1Lbm4u+fn5FBYWUlNT43Le2traytatW5k9e7b8mUajITs7m1dffbVf896eKCwspLi4mPT0dFmNjo6OJnVq6sgUYEV8B4ZarSY4OJixY8cybdo0sjIzSZk0iejoaHx8fE68yF2SiHc97he/+AVZWVnMmzePP/zhD6fMsSRJ4pVXXiEzM5Nly5bJL6ZTlb7yyit59tln+91uk8kkx++CQ7Dq6+tdLlHV1tayc+dO0tLS5PYZDAYWLFggt8u5Oc+rVqkRBIGOjg5qamooKioiPz+f3NxcOQndQJbGcnNzaW9vR6/Xdz5bkSlTphAaGkplZaVH32tdXR05OTndEunp9Xrmz5/P2rVre/S7Vhw5TgMEQcDP34/4+Himpk4lOzub1NRU4uLiuoXbyd4/XV5k59qihAQSshujRqNh0aJFGAwGbrvtNsrKyrpds7m5mccee4xJKZMYM3aMfH69Xs+tt97K5s2b+52VwmQyOYxHXVTV+vp6lwEBoiiSm5vLypUru83Nu66/OtViu81OQ0MDJSUlbN++nZycHHbu3MnRo0dpbW31eO3YKfwJCQmdz9uhDSQnJ3sswJIksW79eq666irZ71qSJObOnUtaWhq5ubmnvhseXdGBIsCDgNFoJCYmhkmTJjmqAqSnM2bMGEKCQ9DqTqi1p3j+qFQIKhU2m43W1lZZPfX19cXHx6fbyGy32znvvPO47bbbeOCBB05RAXft2sWjjz3K448/3m15Iz4+nrvvvpvbb7+9X/66Tu1ARpJoaGhwK1Z3x44d1NXVERYW1k0InYaw0tJSdu/eLedmPnTokNvn7g8VFRXs3buXpKSkLuGFvmRkZPDDDz94fP4d27dz8OBB0tLSulmjf/e733HPPfec6pk1nOvAig3rVAwGA6tWrWLevHmMGzeOiIiIbtkUT04b09Ug09LSwrFjx9i1axe5ubns37+furo6BEEgNjaWpUuXsnjx4lOWci655BLef/99tm7dekp7PvzwQ6ZPn851110nHyPa7SxcuJAff/yR559/3u178/X17SbAEvTqRnkyJSUlHDx4kIiIiBMdjSDwwQcf8Nprr3HgwAGqqqr6XVuov1gsFnJzc1m4cGGX70BNZmYmer3eY4+12tpacnNz5emCk/nz5/PW22/xm3t/w6ZNm7x6TwN35FAmwT0yb948LrzwQqxW66lpY7oYZMxmszwinGyQOflFLigoYOPGjRQUFHDfffd1G1EjIyKYN29ejwJsNpv5xz/+QWpqKtOmTXMYkXAYzm655Ra2bNnCrl273LqvroYmcHRI7gawNzU1sW3bNs4++2z5M7VKRWlpKd9+++2Qfj/5+fk0Nzfj6+srP8OUlBQiIyM5cuSIR+eWJIlPPv6YFStWEBwcjNls5nhFBYX797Nt2zZqamq6HzCsjhxeeZynB043xdjYWFJSUsjPz6e4+FTLotlsZsuWLcybN+8U9U8U7dTW1p1ikCkvL3er5zebzbzwwgtMTEnhypUru41ks2bN4umnn+5RJS4pKeFvf/sbzz33HIGBgfJLm5SUxL333sutt97qllXa39+/WySOo8qB+95Uubm53fJTAWRkZODn509z89AVyj5w4ABHjx4lZdIkJLsdURKJiooiJSXFYwEGyM3L45lnniEkJITNmzcPetICxZWyF/QGA9GdX2xmZiYZGdMYO9aRTfF///d/eeaZZ3o8Lj8/n9aWVnxMPnLCs6amJh5++GE2btzokUGmvb2dt958k0ULF+Ln5yfPhxMSE4iMjOx1TrthwwZeeeUVfv3rX8ufiaLIBRdcwKWXXspLL73k8tq+vr6yADszRfYnhUxBQQGVlZXExsbKxrqxY8cSHx/H7t27B/W77EpNTQ27du1i8uTJjrS1ksNmkZmZyeeff+7x+c1mMw8//LDcUQ42A/bEOtNEWKPREBkZyTnnnMPdd9/Nq6+8wscffcxLL73E3XffzaxZ5xAZEYmuM6LmZE8iJ/v37+dY6bFuo5VWq2X//v3s3buXlpYWj6ype/fu5XBx8YnqeKJIcFAwcXFxvR5js9l4+umn+e677+R1ZadV+o477iA1dUqf1xQEobsfNI75ZG8OJT1RVlbG/v37UTkt6531hFJTU73x9bmNI7ww95RpSkZGBiaTyWvXGArhBQ8EWDrNlWiVSkVQUBDTpk3jhhtu4Omnn+ajjz7irbfe4sEHH2TRwkXEJ8Sj1+tkv2JREjtTk04hMjKyx/NWV1eze/fubuUnTSYT2dnZXml3fX09+wsLuywxOTqfnoLtu1JZWcnDDz9MeXl5N3fCpKQk7rzzrj5fXrVa3e3vAgLt7e20tLS43e729nby8vIQu7obarVkZWV1t24PAdu3b6e+vv7EMxRPJBs43fhZLSOZTCZGjx59ouhzFwd5rVaL1JmFoWsNWTg1m6IkOWrzlJaWnnINm81Gbm4uy5cv73I8ZGRm4OPj4/FcyJEzufucVZIkt+bRvXlpLVy4kE2bNrFmzZoejzslmF9wJE7vjwBD5/SitVU2wkk4wguDg4NPNfAMAGcMdFJSEpMnT2bTpk09BhMUFxdTXFxMaGhop2FPIiIigrS0NPbt2+dxO9xFceRwgU6nIzIykomdbooZGRmMG5dMWFi421UBbDYrtbV1HDp0iG3btpGTk8Pu3bv7NHhs27aNxsbGLkYjifHjxjNq1Kg+w97cQa1WExDg362tTU1NPXYmJyNJEq+++ioZGRlcfPHFsmujwWDgjjvukCsenIxWo5Gtts5rNjc397sz2r9/P6WlpYwbN67buvSYMWMGLMDOTtkZtZSWlkZiYiJBQUE88MADPQpwQ0MD27dvZ8aMGUiSRGtrK+Xl5ag1ao++m/6iOHKchEqlIjQ09BQ3RWdVAEEQeqwKAAKqzqoAol2kqbmpW6X27du3c/jwYbezKToDyJ1LN6IoEh4WxuTJkz0W4JiYaKZMmSLPsVQqFXv27OnRKt4TTU1NPProo0yZMkV2aBBFRxaJu+66i1//+tenjKwarfaUOXBTU1O/100rqyrZvXs3EyZMkDvOAH9/0tPT2bJli1vn0Ol0REZFMnFiClmdnXJycjJhYWHdOmVX6WO//vprYmNj5TrB+wv3U1PtuRbQLxRHju4EBATwz3/+k1mzZuHr63uKm2JXVIKAIDvJt1NeXt6tUvuBAwd6rdTuivp6RwB5RkaG/JlOryc7O5sPPvhgwPdnMBj45S9vZOzYsY6k4oKA2WzmP//5T78CFAoKCnjsscd47LHHuq0pL168hM2bN/Pii90zeOj1egyduaPghB90fxOw26w28vLyuPjii+XP1J3hhS+88EKP51Or1YSEhJCcnMy0adPIzMpkUkoKUVHRXaKWRMSTgiAkSWLKlClERUVx9OjRU867YcMGNm7c6JV0Q8PJwAV4BNqwWltbEUWRgMAAbFZbr2pxR0cHldXVFBZ2r9ReUVHhdqX2Ph+NJJGTm8u1117bzUCTnp5OQEBAv6y3TkaNGsVtt93Gddddh0qlkpeovvjii15LbPbF+++/T1ZWluyl5VCl9dx6261s2bKlmyqt1+sxGI3dtI+GhoYBeU6dOr1w5GmOiIigtLS0W5rXqVNP+I7Hxsbi5+fXrVM+2UnG+R3b7Y4UOdXV1b0a97xV/cEjhtORYyTS0dHBli1bWLRoUbfPpU6/3eLiYtlJfteuXV4p9twbu3bupKamhoiICPlFTUxMJDEhke073Is/1ev1jB07ljlz5nDZihVMSkmRpwEqlYqdO3fyt4ceGlAOYovFwj//+U/S0tK6+e4mJSZxzz33cMcdd8ijusFg7BbML0lSv5w4unLw4EFKSkrksDtJkoiJieG8886joaGBs87qTPM6JongoOBuxraeXFEFlQAStLa1Ul5WTkFBgaxFFRUVDUu5k6FkRFRmUKvVGAwGjEYjarUau91Oe3s77e3t/V5P27p1K01NTXJgtUoQOF5Z6TDSbNlC4xBVBXAGkEdFRckvalBQEFPTpvYqwCeHGk6fPp1p06YRGRnZLcwQTqyj3nPvvXz99dd89dVX/Raq4uJiHnroIZ599ll5RJQkiUWLFvHdd9/xyiuvAGA0GtDrdCf8qftIJ+uKuro6tu/YzrT0afJ9GI1G/vKXvzhG+j58x3uqrbS/sJD8vDxy83LZt3cflZWVI2N0HSKGZQRWq9WEh4czYcIE2QgRFRUlL+dYO5OlHT16lB07drD5p5/YX1jolnpbVFTEkSNHSE1NlX1/fX19aW9vp2EAqutAcdSn3co555wjf+asT/vqq6/Kc1g/v85Qw051cerUqcTFxuHn71AX7aJdTgjXFUmSGDVqFCtWrGDp0qV888033H///f02kq1fv56XX36ZO++8Uz6v08Ejf2s+BbsLMBqNaLq4QHoiwJIkkZuTyzVXX9NteuHn5wc9qMUqwTHKOjNgnrwacOzYMZdJBc5kPPCF7v8optfrmTZtGkuWLGHOnDmMHj0ak8kkz+kAeW4Hji/wiiuuoKqqig0bNvDcc8+xa9euPkdQZwD51KlT5fP5+fmRlZXF999/P6QP90QAuQ5Jcrz4U6dOJTMzk8jISLKzs5k2bRpjxowhOLh3dfHE/B1AOKUigFqjZsGCBYiiyM0339xnqteTsdlsPPPMM6RPS+fc2efKqvTYsWO5+667+dWvfoWPj083zzOb1TqgebyTnSdNL5zfU7fVgM6UOd1XA7ZRXOz+asDPgSEZgQVBIDU1lVtuuYX58+cTEhICONZHuwax90ZkZARXX301Z599Ng8++CAff/xxr19g1wByZ0egUqnIzMzEYDD0nafXyzgNY/Hx8Z2WUpExY8bw5ptvEhAQ0Ku62LUqgMViobm5mbKyMurq6lCpVMTHxzNq1Ch5Pkxn53DeeeexcOFCXn/99X61s7Kykof++hDjxo4jKjpK/k4WLlzIpZdeSnNTkxzMLwgCZoulz3Syrjh69ChFRUVERUchdZboRHKsBhw/fpw9e/aQ54zQ8mA1YKRzWjhyaLVaLr/8cn7zm9/IdVq7fhknas6cSFUrdN7ciSUgCbCTmJjIw488THt7O1999VWv13QGkIeGhsoj2oQJE4iOjnZ7vdQbOF/GxMREuZPSaDRyYPspVQEEsFodUT4HDx5k27ZtbNu2jYMHD3Ks9BitLa0IgkB0dDRXX301N9xwg+xg4Uxet3z5cj766KN+573asmULTz/7NH/4/R9kYTUajfz6179mw4YN3Xy7zWazRyNwc3OzHF5YVVVFYWEhW7du7ZYyxxurASOdEe/IodFouPnmm7nvvvvw9fU9JY2K1WqltLSU4uLDFBU5grqdNXRSJk0idUoq/gH+8stvt9uJjorm/vvvZ8+ePb16HzkDyMPDwx3zYFEiMjKSlJQUjwXYuS45fvx4RFHkxx9/7FUbcNan7RpADshWZOeSR1NTd8eRHTt29Ok4cvDgQf7y57/Q0dHBPffc0823OT09nYkTJ5KTk9Ov+5IkiVdefoX0tHTZS8upMYSHh8vXcGbR6K8b5cn85z//oaCggF27dskRWj87hrUygxvdx0UXXcRvf/tbfH19u3kO1dfX880337B+/Xry8vIoKyujra2t28vq6+vL9OnTueeee2SXN3AI8dTUVFauXMkjjzzS43UbGxvZtm0bM2bM6HxOjtEkKyuLTz/9tJ/3eWr5ydTUVBISEti+fTuXXXZZn6PdyQHk4BCWI0eOOAQ2L4+t+fkUFRX1S1XssHawZs0a5s2bdyJYX5IICAggMzOz3wLsfG6PPfZYNy8tQRBkC7XzeTQ3N3tsOCooKOjRbVOhfwxaZYaEhATuvfdeAgICur2UP/zwA48++ihbtmzpcz7a0tLChg0bOHDgAE8++SRz5sw50Qmo1SxdupQ333zzlIRuTnJzczFbzOi0Wrmt6enp+Pn5uVQvjUYjo0aNYsqUKY6gh2npjElKIjAoGG2neilJUmc8a3yf8ayFhYUcO3aMlJQU+TnY7XYeffRR3nrzTWwezO0qKir47LPPumVCVKvVzJgxgxdeeGFAXka7d+/m8ccf55FHHjkRdHDSl93U1PSztvx6DS/o0IMWx3XJJZcwceLEbsWg161bx0033cS3337rtjHp6NGj/OlPf+LIkSPyfBlgwoQJ8gjbE7t376aqsgpBOKFeJo9N7jFuVqvVMmrUKObNm8f999/PW2+9xSeffMJzzz3PLbfcwvTs6QQHh8gFvZyjXVhY2Cn5j07GGUDedQ6p1+uJi4vzSHidfPfdd9TU1JyojieKpKWlkZSUNOBzvvfee7z77rvd2uzEWVPo5zBHPR0YFEeO4OBgLrjgAnmOp1KpOHr0KH/+85/dipo5mW3btvHmm29y332/o6mpmZKSEjndaG84A8jj4mIRxU7Hh9AQpkyZQkFBAaGhoYwZM4Zp06aRnZ3FpEmTiY6OdsS9Cshrr/K8nZOS0LW2UF5W3uNL3hW73U5OTg6XXXZZt88zMzMxmUwez/0KCgrYsWMH8+fNx2a3IYqOFDG/+MUvBlyH12w288QTT5Cens7UqVNlVdo5D66urh70BHQK7jEolRkSExJISkzqluN43bp1Hs153n77bWpqati7dy9FRUUuq8g5A8jnzZt34mY1GlauXMn06dNJS0uTqwL05V/bNQldZUUle/ftJS8vj7y8PAoLC6murnbZdmcAeXBwsKySjhs3jtGjR7N///6BfwU46vBu3ry5Wx1ejUbD2Wefzcsvvzxgr6TDhw/zt7/9jaeeegqj0UhZaSm7O90Uv/76a2UddoQwKEntRsXG4ut3wmhjtVrJz8/3KM3IkSNHTomSccXJAeSiKDJz5kxmz57de25mtVrO+eSsCuBc4igoKKC8vLzfa8knB5CLokhoaChTpkzxWIDBsQTU1NQk58lyWqMTExMpLCwc8HnXrVvH7bffTkdHB3v27PnZuSkONiN2HdjvpBzCzqWSoWbf/v2UlZWRnJzczQJ8QmA5ZTmnpKSEHdt3kJObw44dOzhy5IjHeawcAeTbuqXV0et0ZGdn8+6773p8n7t372b37t384he/kDuI0aNHs2TxEh4tfHTA57Varf222isMLYMiwBaLpZtLpE6nIz4+fshvrqrSEUDuXLN14gw9a2tro6ysjIKCAnJyctm27UQEi7eTkuXk5HLdddefSCoHpKWlERQU5HHETENDA9999123vMsqlYprV11LTm7OkLuQKriHNxw5BsUKXV1djcVi6ebKOGvWLK9l/XMXq9VKXl7eKfPaiooKHn30Ua666iqWLFnSmdTuKbZs2UJtbe2gZBTsqT5tYmIiiYmJXjn/T5s309zc3M0aHRcXx7PPPsstt9zSaxZNhWHECzr0wAt899F9HD58mOrq6m4v06xZs7juuuvQd8nsMBRs3baVxsbGbgESTU1NvPTSS2zYsIGysrIhmdcdO3aMwsJCR/wqdKtW7w127tjBtm3b0Gq1aDQa7HY75eXlHC453M23WmHkMKxz4L6mhMePH2fnzp2yD7DTr/b+++8nJSWFz9Z+xpGjR2hvb8dqtcquhWq1Go1Gg06nkze9Xo9Op+/0E3aEGVZXV1NdXe2WMenQwUOUlJTIQevOMLzx48f36gQyGLS1tZGfn8+cOXNOPPzOdDIvvfSSx876jY2NvPTSS+h0Ovbs2SNX9hvMpAUKnuGON6MrBm0O/P777zNv3jyMnalYnPmRr7rqKpYvX05LSwsdHR3y6OccJZybRqPp9js4RnKz2UxDQwMHDhxg/fr1rF27luPHj/falrq6Onbs2N6tPq3JZCIjI4Ovv/56MG6/V/Ly8mhra5O1EGfeprCwMCoqKjw+/6effsqGDRvk1EIKIxtvrMQNWkaODRs28OWXX7J8+XJ5dHGus+p0OkJCQnp2gpBOjTU+4YfrcHMMDg5mzJgxzJs3jyuuuIKHH36Y9evX9/jSiqJITk4uV111tTz/VAkCmZmZGI3GIXUJ3Lt3L8ePH5c1E6e1eNy4cV4RYJvN1u8oJIXhwxsjsAdGrL67j9bWVv785z/z/fffo1arUQndL9W1oHW3Tepenb7r8o0knTjOZrMhdAriU089xbJly3pty86dO6mtrZXLeoiSxPjx44mJifHC1+A+FRUVFBQUdKva4Ovr2y17pYJCf/CgtIprDh48yC233MJzzz1HVVUlKpVwimqs7pz7nqw+97Q5OoLu3ZbdbiciIoLf//73TJo0qcd2HDlyhKKiIjmNrLPwcm/7DwRn1I4jH3XP5UI6OjrIy809JR46Ozu7W9I4hZ8HI9aRoytHjhzhvvvu44033mD27NmkpKQQHR2Nv78/Wq1WdqLo6OjAYrFg6bBgMVvo6OjoLGMiodFoMBqNhIaGEhUVRXh4uOz+CA4hTkpK4sYbb+See+45xarc3NzMtq1bmTlzpvyZwWAgKyuLjz76aMD35uPj0xm1NJmsrGzS09MZO3Ys+/btY8WKFT0Gvedv3Upra6sj6Z4o0traisFgwM/Pb0izhSicGQzJ4qDVamXHjh3s2LFDzkCp1+tlt0Wnd5TNZpMDCLpWeBMEQRbiyMhIZs+ezY033ijHrIJDHT3//AU8/9zzFOw51ec6Ny/vlPq0jjzN/jQ2uuclptPqiIiMYMKECXKplvHjxxMWFtbNMJWcnExCQgI7duw45RwHDhwgZ0sOgkogJyeHvLw89u7dO+AkcQqnL8ObkWOAV7fb7bS2tvZ7acNms2E2m6mvr2ffvn0UFBTw3HPPMWrUKHn+HBYWQUZmRo8CvGdPARUVFcTFxcn7jxkzhri4+F6r1DvTvDqjlrKyspg0aRLR0dF9lmoJDg4mPT29RwGura3lxptupLW1ddCKPiucJgyvFXp4+eGHH3jrrbf4zW9+I3+m1WrIzMzktddeO8UiXVZWzr59+0iIT0DEYSgLDg5m6tSpsgB3TfOaOjWV7CxH9o2eopa6u2aCIHT6VIt22lrbejWQiaLoVgSTws+A4VwHHgnRZJ9++imrVq2Sk8RJksSYsWMwmUynLKeYzWby8vI4//zz5c+0Wi0zZszgp59+IiUlhaysLDnNa0hIiNtVAdra2zheflyurZSfn++VKCMFBVcMUIClYR+BwRG0X1lZSUREhKzC+vn5YTAYelwPzc/Pp6WlBZPJ1K027syZMwkPD3erKoCAgKXDQmVlpVxbKTc3l71793qttpLCz4NhdOQQGH4l2iFo4kkuiH05mBQWFlJaWsr48ePlEdvf35+AgACkk+axjoglFarOqgD19fVDWltJ4cxHEDyX4EHJyHEyBoOB6OhoJk2aRGpqKh999FGfieDcJTIykrDw8G7OHnV1db0ah6qqqti1excTJ07sZr3uqSpAS0sLx44dY9euXeTk5LB9+3YOHTpEY2Ojko1CwUt4PggOSkaOrkyfPp27776biRMmEBEZKZfp8FSABUFg8eLFREZGdjMoFRQU9Doq2mw28nLzuGT5JfI5uqbMqaioYO/evfI8trCwkJqaGiX/k8KgcFo4cuj1es455xx8fHywi4713Ysuuoi33nrLo3QvF1xwATfccIM8YjrDBNetW9fncdu2bXPkafbzpbqqmqKiInkeu2fPHsrLy0/7os8KpwcjvjIDOALZd+zY4UgBK4EoiSQkJHDHHXfw29/+tt8Z/g0GAxdffDEPPPAAERER3RLGf/bZZ/z00099Hl9UVMQTTzxBZWUl27dv58iRI7S2tipqscLQM5zrwO52H/X19bz77rtkZmZ28w++7LLLqK2t5e9//7tbdXZ0Oh1paWlcf/31LF68uFu1B7VGzbat23jsscdcRhc1NDTw97//3fMnp6DgIcOqQvfHgPbpp59y6aWXcvbZZ8tB9TqdjltvvZWkpCRefPFFtm/fTlNTU7cR1c/Pj+iYGDKmTeO8886Tl3ucnlTOOez2bdu59957+10bV0FhOBnWgP7+9B5VVVU89LeHeO7Z54iOiUa0O9ZZ1Ro1S5Ys4ZxzzmH//v0UHTxIfV0dCBAUGMSYMWMYPXq07Gvs9JEG5CCIL7/8kgcffFBxnFD4WTJkjhzff/c9DzzwAA899BCRkZEOQZQcvtF+fn5kZ2czffr0bkW0HEs8IqJ4wqnCWV6ltLSUl19+mTVr1iiBAAqnJ6eTI4ckSfz3v/+lubmZ3//+90yZMgWgx4oIp1xNOLE+W1payldffsUrr77C7t27ldQxCqcvw+nIIQ2g+xBFka+++orCwkKuuuoqli5dSnx8PHq9/kS1eZxzA8fvHR0d1NfXs2vXLr799lu+/vprCgsLlbVZhTOAYXTk8ISSkhL++te/8tprr8kBBAkJCQQEBKBWq7BYOqirq+PgoYPs37efgwcPcuDAAcVtUeGM4rRw5OgNURQ5evQoR48e5YMPPkCr1aLT6RAEQc7QoYyyCmcyp4Ujhzs4VWUlkkfhZ8VwVmYYAcFICgqnNd5QoQcuwIrnoYKCRwxzXmgFBYXhZuDFzRQdWkHBM4Z1DqygoOAZXnDk8KAygzIJVlDwBG9EsPZbgC0WC1qtdsjr/CoonEmo1Wp8fHywWMweSXK/BNhZ3V6r1crlOhUUFPpPQkICcXFxHDly1CNdtl8CrFKpOHbsGHl5edx+++0kJiYO93NQUDjt8PPz46677qKpqYn8/PweC+G5S7+PtFqtvP7662g0av7xj38wZsyY4X4eCgqnDUFBQTz44IPMnDmT559/nrq6up7rZLuJOiws7I/9OcCZPG7v3r3MmDGDSy65hJqaGo4ePar4Liso9IJarSY9PZ2//e1vTJ06lSeffJLc3FyPRl8YgACDQ4jr6urYsmULISEh/PKXv2Tq1KlUVlZSXV3dZ2yvgsLPCZVKRVJSEnfeeSf/8z//Q01NDX//+9/ZvXu3x8ILIEycOHHAc2hJklCpVKSmpnLVVVcRFxfHli1bePvtt8nJyemxvImCws8BvV5PysSJXHrZZcyfP5+Ojg7eeecdvv/+e9rb270ivOChADsRRRGTyURaWhoLFixg/PjxlJSU8OWXX7JhwwaKi4tPKbqtoHCmoVKpiIqKYubMmSxatIjJkydTVVXFunXr2Lx5MzU1NZ0le7znxegVAQbkYmF6vZ7ExERmzpzJ9OnTMRgM7N69m++//57cnByKDx9W6uIqnDHodDpiYmJIT09n1syZZGZlodfr2LFjJ9999x179uyhpaVFzuXmbbwmwF1x5qkKDAxk8uTJzJgxg5SUFAwGA4cPH2bLli3k5OSwd+9eZc6scFohqAQCAwIZO3YsmZmZnDXjLCZOmIhKpeLgwYNs3rKZbVu3UllZhd1uHzTBldszGALsxDkqq9VqgoKCGDduHFlZWUyePJmgoCAaG5vYs6eAzZs3s3v3Lo4cOUpdXZ2ibiuMGFQqFQEBAYwaNYoJEyYwffp00tLSiIiIoK21jcIDheTm5lJQUEBlVSXWDisqlaOy5VAwqALcFacwq1QqfH19iY6OZty48UyePInExERMJhOtra2UlJRQUFBAwe7dHCoupqKigubmZkWoFQYdtVqNyWQiLCyM+Ph4UlJSmDx5MmPGjCEwKAhrRwfHjh1jz5497N27l6NHj9LY2IjNZutWKG8oGTIB7oqzpKckSajVavz8fAkPjyQhIZ7k5GSSkpIIDw9HpVLR1NREaWkpRUVFFO4v5NDhQxwvP059fT1tbW1KWlmFfiMIAnq9nsDAQCIiIoiPj2fcuHEkJycTFxdHcHAwKpWK+vp6SkpKKCwspLi4mPLychobGx2DiQAqYXDVY7fuZTgE+GS6CnTXhxsZGUlcXByJiYnEx8cTHh6OTqfDbDZTU1PDsWPHKC4u5tChQ5SUlHD8+HEaGhpoa2tT5tUKqFQqDAYD/v7+REZGMnr0aJKSkkhKSiIuLo7w8HBMJhOiKFJbWyu/T4cPH6a8vJy6ujra29vlMj7etiB7gxEhwD0hSRKSKCIBKkFAp9fj7+9PaGgokZGRxMTEMGrUKCIjIwgKCkan1dFhdeSQrq6upry8nNLSUsrKyjh+/DjV1dU01DfQ0tqC1WpVBPwMQKVSodVqMRqNBAYGEhISQlRUFDHRMcSMiiEmJobw8HCCg4MxGo3Y7XaampqorKykrKyM0tJSKioqqKqqorGxEbPZLL8XI1VgT2bECnBPdB2pwfEF6nQ6fHx8CAoKIjw8nMjISCIiIggPDyc0NBQ/Pz/0ej2iKNLe3kZdXT11dXXU1NRQVVVFVVUV1dXV1NXVUldXT3NzM+3t7ZjNZmxWK3ZFRR9yVCoVarUag8GA0WjEZDIRFBREcHAwoaGhRIRHEBYeRlhYGMHBwYSEhGAymdBqtVg7OmhpbaWuro7KqkoqKyuprHD8X1dXR0tLCxaLpVsHPpRGJ29zWglwb5ws2E6DglarxcfHB19fX/nLdwp2cHAIQUGB+Pv7YzAY0KjViJKE2WymtbWV5uZmGhsbqa+vp77eIfTOn+vr62lpaaGtvZ32tjbMZjNWqxWr1YrNasNmtyn1hjtRq9VotVo0Gi1arUYWSh8fH0wmEwEBAQQHBxMUFCQLaVBQEIGBgfj5+eHr64vRaEStVmO327FYLLS0tNDQ0CB3xNVV1VTXVFNbW0tTUxNtbW10dHTIlTDh9BlR+8sZIcB9cbJwg+PLVKvVaDQa9Hq9LOSBgYEEBwcTGBhIYGAA/v4B+Pv74+fnh4+PD0ajEZ1Oh1qtlus52WxWOjqstLe309bWRktLCy0tLTQ3N9Pc3ERraxvt7e3yZjabu20Wixmz2YLNZpOrL3b9+eRNNtpJ3bOinNxhdH1xu953bz+r1epTNo1Gc8rver0Og96A3mDAcNLmFEwfHx/8/PxkAfT19XV8bvRBp9eh1WpRq9VyvSur1drZcbbR0tIsd56NjY00NDTInWZzczOtra0O7chmw2aznfK9CkJntrYzTFB744wXYFc4X4CehFwQQBBUnSOIRp5vOYXZaDRi8jXha/LFZDJhMpkcL6zJhI/JhI+PDzqd44V1nsMpDCcvOTiX2ZzF3kRR7FGgnX+XRBGxS+fk3ERJRBIlR5aHLqOOU03sOhKd+JuqR4FVqVTdNodwCHLHIUoiov1EO51aSEdHB+3t7bS2ttLa2kpLS4vj55YWWjo/a2trkzu99vZ2uRKH1Wo9cY+ShCPzW3fBPNNGUU8YEZUZhhPny9DXS+F8KQEaGhvhJGE/+XzOl90pGD2NaBqNBp1OJ28ajabHzSn8zk2lUiGoVKh6EMSuwoqgktvpLNEqST1vol3EarPKAmi1WuUR7uTNau2go8PxPJzGwO4agw2bzS53Qs7/3Xn2AgIInJGq7mDxsxdgdznxkuGWeuZUsbvOw07+e08/j2yEbrfe07MQevhdrVYPd8PPWBQBHgJ6Gk2UEUbBG5yetnMFBQVAEWAFhdMaRYAVFE5jFAFWUDiNUQRYQeE05v8DyxS0Zn3WtyMAAAAldEVYdGRhdGU6Y3JlYXRlADIwMjItMDctMTBUMTY6MTk6NTErMDA6MDABsiALAAAAJXRFWHRkYXRlOm1vZGlmeQAyMDIyLTA3LTEwVDE2OjE5OjUxKzAwOjAwcO+YtwAAACh0RVh0aWNjOmNvcHlyaWdodABDb3B5cmlnaHQgQXBwbGUgSW5jLiwgMjAyMuS0v5wAAAAXdEVYdGljYzpkZXNjcmlwdGlvbgBEaXNwbGF5FxuVuAAAABh0RVh0aWNjOm1hbnVmYWN0dXJlcgBEaXNwbGF5mRrp2QAAABF0RVh0aWNjOm1vZGVsAERpc3BsYXn4nJwgAAAAAElFTkSuQmCC;" parent="1" vertex="1">
                    <mxGeometry x="225.66" y="37" width="108.68" height="120" as="geometry"/>
                </mxCell>
                <mxCell id="4" value="" style="shape=image;verticalLabelPosition=bottom;labelBackgroundColor=none;verticalAlign=top;aspect=fixed;imageAspect=0;image=data:image/png,iVBORw0KGgoAAAANSUhEUgAAAPAAAAEJCAYAAACqv6r3AAAK3WlDQ1BpY2MAAHjalZd3UJRXF8af993KskvbBQEpS2+i9Cq9rqD0KirLLh3WdVlAsSvBCMaCigoqCkbFHo2gxIJYsCD2XoISFNQY1GBD5fuDjyXJfDPf5Mzcub955tzn3HPn/eO8ACdUKJXmkWpAvkQuiw7x5ycmJfMZz8AAEyrQhI5QVCD1i4wMB4Dh/e/x/jYIALhhK5RK8/DvQkOcXiACiBQAaeICUT5AtADEC5FUJgcoewCYFMulcoByFQBPlpiUDFB+A8DLHOKPAHhpiUnJAJUNgCeLjQ4AqHyAyRYKZZkAewwAfpEoUw6wwwHYScTZEoA9B4C3KEsoBtjHAIzJz58uBtg9ACyLRJlSgKMGwC3tL56Zf/NPU/gLhZkKHuoLAMAMzC6Q5gln/cun+f+Rn1c4XMMcADtLFhoNQAMg7uZOD1OwJG1SxDBni4feHSDuZhWGxg2zqCAgeZjFwsAwxdm8SeHDnJEdLFD4yAWxw5xeEBQzzLLp0YpaGbIAv2EWykbqFubGKfSsdIHCvyQrNmGYi7LjJw1zQW5M2EhOgEKXFUYr7p8uCfEfqRus6D2/4C/9ZgsUZ+VZsaGK3oUj90+X+I14FiQq7iZODwwayYlT5Evl/opa0rxIRX56XohCLyiKUZyVy2JH8uWRijfMEU6IHGaEIwR8hCIQ0eDDCWGAPH2mHAACpktnybIzs+R8P6k0L50vkIjGjuE72Dk4AIlJyfyhz+FdFAgAhFb7iDZ9C+DWD1BWjmhp64CmJYD2vRHNtBZQLQUaT4sKZUVDGhUAaGBBFTzowAAmsIQtHOACT/giCBMQgVgkYSpEyEI+ZCjGHCxEGSqwEmtRjVrUYyf24iCacAyncA6XcBW38ACd6MZL9OE9BgiCYBAcgkvoEIaEGWFDOBBuhDcRRIQT0UQSkUpkEhKikJhDLCYqiEqimthKNBA/EUeJU8QF4hpxj3hC9BJvic8khWSTPFKfNCfHkW6kHxlGxpJTyExyBllClpLLyfVkHbmHbCRPkZfIW2Qn+ZLsp4CiTNGiGFFsKW6UAEoEJZmSQZFR5lHKKVWUOso+SjOljXKD0kl5RflEpVO5VD7VlupJDaXGUUXUGdR51GXUaupOaiP1DPUG9Qm1j/qNxqHp0WxoHjQBLZGWSSumldGqaNtph2lnabdo3bT3dDpdi25Bd6WH0pPoOfTZ9GX0TfT99Bb6NXoXvZ/BYOgwbBhejAiGkCFnlDE2MPYwTjKuM7oZH5nKTEOmAzOYmcyUMBcxq5i7mCeY15nPmQNKakpmSh5KEUpipVlKK5S2KTUrXVHqVhpgqbMsWF6sWFYOayFrPWsf6yzrIeudsrKysbK7cpRytvIC5fXKB5TPKz9R/sTWYFuzA9gp7EL2cvYOdgv7Hvsdh8Mx5/hykjlyznJOA+c05zHnowpXZayKQEWsMl+lRqVR5brKa1UlVTNVP9WpqiWqVaqHVK+ovlJTUjNXC1ATqs1Tq1E7qnZHrV+dq26vHqGer75MfZf6BfUeDYaGuUaQhlijVKNe47RGF5fCNeEGcEXcxdxt3LPcbh6dZ8ET8HJ4Fby9vA5en6aGppNmvOZMzRrN45qdWhQtcy2BVp7WCq2DWre1Po/SH+U3Kn3U0lH7Rl0f9UF7tLavdrp2ufZ+7Vvan3X4OkE6uTqrdJp0HulSda11o3SLdTfrntV9NZo32nO0aHT56IOj7+uRetZ60Xqz9er12vX69Q30Q/Sl+hv0T+u/MtAy8DXIMVhjcMKg15Br6G2YbbjG8KThC74m34+fx1/PP8PvM9IzCjUqNNpq1GE0YGxhHGe8yHi/8SMTlombSYbJGpNWkz5TQ9OJpnNMd5veN1MyczPLMltn1mb2wdzCPMF8iXmTeY+FtoXAosRit8VDS46lj+UMyzrLm1Z0KzerXKtNVletSWtn6yzrGusrNqSNi022zSaba2NoY9zHSMbUjbljy7b1sy2y3W37ZKzW2PCxi8Y2jX09znRc8rhV49rGfbNztsuz22b3wF7DfoL9Ivtm+7cO1g4ihxqHm44cx2DH+Y5HHN842TilO212uuvMdZ7ovMS51fmri6uLzGWfS6+rqWuq60bXO248t0i3ZW7n3Wnu/u7z3Y+5f/Jw8ZB7HPT4w9PWM9dzl2fPeIvx6eO3je/yMvYSem316vTme6d6b/Hu9DHyEfrU+Tz1NfEV+273fe5n5Zfjt8fvtb+dv8z/sP+HAI+AuQEtgZTAkMDywI4gjaC4oOqgx8HGwZnBu4P7QpxDZoe0hNJCw0JXhd4R6AtEggZB3wTXCXMnnAljh8WEVYc9DbcOl4U3TyQnTpi4euLDSWaTJJOaIhAhiFgd8SjSInJG5C9R9KjIqJqoZ9H20XOi22K4MdNidsW8j/WPXRH7IM4yrjCuNV41PiW+If5DQmBCZUJn4rjEuYmXknSTspOOJDOS45O3J/dPDpq8dnJ3inNKWcrtKRZTZk65MFV3at7U49NUpwmnHUqlpSak7kr9IowQ1gn70wRpG9P6RAGidaKXYl/xGnFvuld6ZfrzDK+MyoyeTK/M1Zm9WT5ZVVmvsgOyq7Pf5ITm1OZ8yI3I3ZE7mJeQtz+fmZ+af1SiIcmVnJluMH3m9GtSG2mZtHOGx4y1M/pkYbLtBUTBlIIjcp5cKm8vtCz8rvBJkXdRTdHH4vjiQzPVZ0pmts+ynrV01vOS4JIfZ1Nni2a3zjGas3DOk7l+c7fOI+alzWudbzK/dH73gpAFOxeyFuYuvLzIblHloj8XJyxuLtUvXVDa9V3Id7vLVMpkZXeWeC6p/Z76ffb3HUsdl25Y+q1cXH6xwq6iquLLMtGyiz/Y/7D+h8HlGcs7Vris2LySvlKy8vYqn1U7K9UrSyq7Vk9c3biGv6Z8zZ9rp629UOVUVbuOta5wXef68PVHNphuWLnhS3VW9a0a/5r9G/U2Lt34YZN40/XNvpv31erXVtR+3pK95e7WkK2NdeZ1VfX0+qL6Z9vit7X96PZjw3bd7RXbv+6Q7OjcGb3zTINrQ8MuvV0rdpO7C3f37knZc3Vv4N4j+2z3bd2vtb/iAA4UHnjxU+pPtw+GHWw95HZo389mP288zD1c3kg0zmrsa8pq6jySdOTa0QlHW5s9mw//MvaXHceMjtUc1zy+4gTrROmJwZMlJ/tbpC2vTmWe6mqd1vrgdOLpm2eiznScDTt7/lzwudNtfm0nz3udP3bB48LRi24Xmy65XGpsd24/fNn58uEOl47GK65Xjlx1v9p8bfy1E9d9rp+6EXjj3E3BzUu3Jt26djvu9t07KXc674rv9tzLu/fmftH9gQcLHtIelj9Se1T1WO9x3a9Wv+7vdOk8/iTwSfvTmKcPukRdL38r+O1Ld+kzzrOq54bPG3oceo71BvdefTH5RfdL6cuBV2W/q/++8bXl65//8P2jvS+xr/uN7M3g22XvdN7t+NPpz9b+yP7H7/PfD3wo/6jzcecnt09tnxM+Px8o/sL4sv6r1dfmb2HfHg7mDw5KhTIhAIACgMzIAN7uADhJAPcqwJo8NFsDAIih/wFgaAb53zw0fwMAXID6O0DsbCD8MrChGjDPAFRTgEgOEOsO0tFRsf4bBRmODkNebH+A9nhw8J05wFgNfF05ODhQNzj4tR6gPARaJEMzPQAY5APFDDBPGT+Uxnf9c54emvf/0uM/d4B0dHTCP/f/AM70Gn8NIwENAAAAIGNIUk0AAHomAACAhAAA+gAAAIDoAAB1MAAA6mAAADqYAAAXcJy6UTwAAAAGYktHRAD/AP8A/6C9p5MAAAAJcEhZcwAAFiUAABYlAUlSJPAAAAAHdElNRQfmBwoQEzMTTe2/AABo9klEQVR42u2dd3xUVdr4v3f6ZNJ7gVQIJUBISEFcEJGiUgRRUWworrq2te27q6+77m/f3XUt67ru2sXe1rI2bIDYUEihhxICIUAS0nuZyczc+/tjMpcEkswkMyng/X4+F5LJLefeuc85z3nOU4SJEydKKCgonJaohrsBCgoKA0cRYAWF0xhFgBUUTmMUAVZQOI1RBFhB4TRGEWAFhdMYzXA34ExFkrqszkkgIfX8NxcIgiD/7/y5p7+f8rnjsj00rHtburbJ2a6BtM/d3xW8iyLALpGQJHp4uSUcYnJCuARBQK1Wo9Fo5P+1Wm2Pm06nQ6/Xy5vzc+cxpx6rQaPRolaru12vr80plK42URSx2WxYrVZ56/q7/LPNSoelA4vFgsVixmLp6HbMycfb7Xb5f1EUu3USJz+/nv5XcM3PVoBPFsiuo45KpUKtVqNWq9BotOj1egwGA0ajEZPJhJ+fH76+vphMJnx9feXNZDLh4+OD0WjEYDCg0+nQaDSoVCpUKtUpQmW327Hb7NjsNux2Gzab44V3bicLktVqxWw2dxO8k38WJRFJdHzmFGTntXv7WaVSodVq8fX1RaPVou3SiZzY1KjVGrlzUqvV3c7lbIMoitjtdjo6HILe3t5OW1sbbW2ttLS00tLSQktLC62tzp+baW5uob29HbPZjNlsxmq1Op5Np+B3pasmogj6GSzAXQWzJ+F0CqXJZCIgIICgwEBCQkMJCQkhKCgIf39//Pz8MJlMsjCqVCokScJms2GxWDCbzZ0vZxstLS1UVFTQ3NRMU3MTTU1NNDc309bW1u3l7OjocLzcHRY6LI6fnS+sUwCcW1ehEEURURJ70Ys9x9HJCAiCSu5wum6CSkCtUsvaQ9dNr9ej1+kxGB2dnNFoxM/PD39/P8dz9A/A38+P0NBQ4uJiMRp9MBgNGPQGtFqt3AE4OyjH82ymqamZhoYGamtrqampob6+nsbGRpqbm+Xn6Xhudpxf8c9NwIXT3ZWy64gGyGqsXq/Hx8eHgIAAgoOCCQsPIyIigvDwcIKDgwkICMDHxwedTgdAR0cHbW1tNDY2Ul9fL291dXXU1dXJL49TMM1mMxaL5RQBVOgZZ0fQtQMwGAz4+voS4B+Af4A/gYGBBAcHExwcTFBQEIFBgQQHBRMYGIjJZEKv16NSqbBarbS1tdHc3Ex9fT3V1dVUVlZSVVVFbW0tDQ0NtLa2YrFYsFqt3d4Nh1ALnCmyfdoI8MmCqlar0el0mEwmgoKCCI8IJzoqmujoaMLDwwkKCsLPzw+1Wo3NZqO5uZna2loqKiqorKqiuqqK6upqampqqKuro7m5WRZMp0AqDC9Ogdfr9Jh8Tfj7O4Q8NDSU0NBQwsPDCQ8PJzIykrCwMAICAtDpdIiiSFtbG/X19dTU1HD8+HHKy8upqKiQv2uLxYLNZut2rdNxxB6RAtxVWAVBQKfT4efnR3h4ONHR0YwaNYqYmBgiIyMJCgpCq9VisViora2lvLycsrIySktLKSsro6KigpqaGhqbmmhrbcVqtQ737Sl4GbVajY+PD35+foSEhBAeHk5MTIz8nsTExBAWFobJZMJut9PU1ERVVVW396SyspLGxkbMZrOsSQkqFaoRLtTDLsDdRlYBdFod/v7+REZFER8XR2JiIvFx8YRHhGM0GjGbzVRXV3Ps2FEOHSrm0KFDHDlyhOPHj1NfX097e7uiyirICIKAXq8nMDCQ8PBwYmNjSUxMJCkpifi4eCIiI/D19cVms1FTU8PRo0cpLi6mpKSEsrIy6uvrZcNhVwv/SGFYBNhpoBEEAaPRSHh4OPHx8YwdO5axY8YSFR2FTqejqamJsrIyioqKKCws5ODBg5SXl1NXV6cIqoJHOAU7ICCA6OhoxowZw4QJExg3bhxxcXEEBgZit9upqKjg4MGD7N+/n8OHD1NRUUFrayuiKDos+ILAcE6oh0SAu46yBoOBsLAwkpKSmDxpMuMnjCc0NBSLxUJpaSl79+5l165dFBYWUl5eTmNjo6L2KgwZGo2GwMAAoqNiSB6XzOTJk0lJSWH06NEYjUYaGho4cOAABQUFHDhwgIqKCtra2pAkaVjm0YMqwM4R0mg0Mnr0aNLS0sjMyiQuNg673c6hQ4fIzc0lJzeHg0UHqa6uxmKxDOkDUFBwhV6vJyQkhISEBNLS0sjIyCA5ORmTyURNTQ3bt28nPz+f4uJimpubO7VL1ZAMzF4XYOfapU6nY9SoUZw1fTrZ06cTHR1NY2MjW7duZdOmTWzfvp3S0lLMZvPg36WCghfRaDSEhoYybtw4zjrrLGbNnMno2FgaGhrYvn07P/74I0VFRbS1tQIOR5nBwmsC7FSRAwMDSUtP49zZ55KcnExtbQ3ffvsdP/zwA3v27KG2tlaZuyqcUfj5+TJ+/ATOOecc5syZQ1xcHOXl5WzatIkfN/1IWXmZrGJ7G48F2Cm4kZGRzJ49m/POOw+TycTmzZtZu3YtOTk51NXVDdvDVVAYSvz8/EhLS2PhwoXMnj0bvV7PN998w5dffsnRo0cB73qIeSTAoihiNBqZM2cOK1asQJIkPvnkEz744AOKiooUZwiFny0qlYro6GgWL17MZZddRnBwMJ9//jlr166ltrbWa6PxgAVYFEUSExO5/vrrSUpK4oMPPuC1117j2LFj/QpHU1A40wkLC2P58uWsWrWKDquVl196iZycHK+cWx0WFvbH/h4kiiIZGRncf//9NDQ0cO+99/Lee+/T2Ngw3M9KQWHE0dbWRn5+Phs3biQhIYFrrrkGs9lMYWGhx+futwCLokhycjK/u+8+tmzZwj333ENxcTGDFiajoHCGUF9fzzfffIMoiqxevZrjx49zpKTEozlxvwRYAowGA7/+9a+pqa7m7rvvVgxUCgr9wGazsXXrVvz9/VmxYgU5OTm0tLQMWIj7NZOWRJG4uDjGjx/P888/T319/XA/DwWF0w6bzcZrr72GSqUiIyPDo2XV/glw53KR3W7n8OHDw/0cFBROW6qqqqisqiI2NtYjFbrftmy1Wo2vry8R4RHD/QwUFE5bQkJCiIyIQK1We3SefguwzWYjICCAa669Bh8fn+F+DgoKpx0qlYpLL72U5LHJdHR4FqgzoNXklpYW5s2bx333/Q5fX9/hfh4KCqcNarWalStXctNNN1HfWO9xwEO/k9qpVCoqKipYs2YNq1evJiIikscff5z9hYWgOHAoKPRKaGgov7zxl6y8YiWvvPIK2dnZQ69CO5D49NNPufnmm4mIiOD111/n5ptuIjw8fLifkYLCiMNoNLJkyRLeeOMNlixewoMP/oF//vOfdHR0eHzuAaaVFRAQ2LZtG9deey3XXHMNq1ev5oorruDNN9/ks88+4/jx40rUkcLPmuDgYGbPns3y5cuZMmUKX375Jc8++yyHDh3qTKfr+TU8yAvtUJcbGhr417/+xSeffMKKFStYvXo1q1evZt26dXz66acUFBTQ1tY23M9SQWFI0Gq1xMfHs3DhQi688ELCw8PZsmULv/zlL8nLyzspwMdzCR6wAHed7UqSRElJCY888gjvvPMOCxYsYNmyZSxZsoQjR47wzTff8O2333LgwAFaW1uH8fEqKHgfrVZLbGwsZ599NvPnzyclJYWGhka++upLPv74Yw4cONBjZJ43LEZercwgSRJHjhzh+eef55133mHSpEnMmzePRYsWsWrVKo4cOcJPP/3Eli1b2LdvLzU1tUrIocJphyAIBAQEkJiYSGZmJjNnzmTChAlYLBby8vN44IEHyMnJoaampu/zeKEtg1ZapampiZ9++omffvqJwMBAJk2axOzZs5k1axZXXHEFra2tFBQUkJeXx86dOzl8+DB1dXWKQCuMOARBwM/Pj9jYWCZNmkRmZiZpaWkEBwfT1NREXl4e77zzDlu3bqWystJ9248XhuCBC3A/uo+GhgY2bdrEpk2bMJlMJCQkkJmZSVZWFldeeSW33347jY2NHCouZveuXezatYvi4mKqqqrkFJ4KCkOBIAgYDAZCQkJkgU1PT2fMmDGEhYXR1tZGUVERH7z/Abl5eRw6dJCGhoYBvaPDqkILA7y6c+QtKCjg1VdfJTAwkPj4eCZPnsyUKVOYO3cuV111FaIkUlNdw6FDh9i3bx+FhYWUlJRQU1NDc3OzkmpWwWOcFR3Cw8MZNWoUiYlJpKRMJDk5mcjISHQ6HfX19RQWFvLRRx+xc9dOig4UUVNT060sy0AZViu0N3oPURTl4mHbtm0DwNfXl6ioKBISEpgwYQITJk7goosuIigoCEEQaGlpoby8nMOHD3Po0CGKi4upqKigqqpKrnmjoNAVjUaDr68voaGhxMTEkJCQQGxsLElJScTExBASEoIgCNTX11NaWsrmzZvZu3cvhw4doqysjMbGxhGrBQ58BB6kBrW0tFBUVERRURHr1q1DpVLh6+tLSEgIMTExjBs3jtjYWOLj48nMzCQwMBCNRkNzUxM1tbUcO3aM0tJSjh07xvHjx6msrKS+vo6mJodwK3PsMw9n/SyTyURwcDAhISFER0UTMzqGuNg4oqOjiYqKIiAgALVaTVNTE9XV1ZSUlJCTk8OhQ4coKSmRBwFvjK5uMaxz4EET4e6IokhTk6Pe7uHDh9m0aZOj4RoNPj4+hIaEEhUdRWJiIgkJCYwaFcM555xDUFAQRqMRQC58Vl1dTWlpKZWVlXLRs7r6Oupq62htbaWtrY2Ojo4R29v+HFGpVGg0aoxGH3x9ffH39ycsLIzQ0FDCwsIIDw8nKiqKqKgoQkNDMZlMgKNcbGNjI5WVlRw+fJj169dTUlLiqE5ZWSl/18Oav22g89AueKBCD6/fs81mkwW7+HAxP/74o+OZdNZbMplMBAYGEhYWRuzoWCKjIjvnOYlkZWXh6+uLXq9Ho9HItYGbm5qprqmmrq6O6upquSaws+ZsS3MLzS3N8pdvs9mUUqT9xCGQGnQ6HRqNBqPRiL+/P76+vvj5+REcHExoaCj+/v4EBwcTFhZKcHAIgYGB+Pn5yQXBLRYLTU1NNNTXU1FZSW5uLqWlpXIHXV9XL39XI7VDlobTkWOkIkkSbW1ttLW1UV1dTVFRET/xE9C9+LfJZMLXz5fQkFBCQkIIDQ0lMjKS8PBwQkNDSUhIwM/PD5PJhE6nczidSxJWmw2LxSIXkHbWFW5ubqa1tVUuOt3S0kJLS4vcObS1tWG1WuWi4Ha7XS4O7ixC7XzRRFGUi2c5fx4qBEHorPEDgqCS0586S21qtdrO2sxatDodOq0OrVaLVquVC6b7+vpi8vHBx+So6RsQECAXVPf19cVkMuHv54fBaMRgMKDT6RAEQX4m7e3tNDc309TURE1NDYcPl1BdXU1FRYXcsTY1NdHS0ozZ7Kjz+3PNhHrGCXBfSJKEzWbDZrPR2tpKVVUVxYeKT9mvayV5vV6Pr6+vY4Tw9SUwKIigzs3Pzw9/f3+HKt8p9D4+PhiNRvR6vSz4jpKUAI6X1DnHslqt8khut9tpb2+XP3ca4zo6OuTyln0tqbW2tmKz2bpnd+h8pyVBQiWoMJlMPeYjdlpjncJrMpnk6n1arRYAvU6HVqeTBVir1aLRaFCpVHJRr65F7Do6OrBYLLS3t9Pe3i53buXl5fLPzqLrzqLbzk6vvb1dfjZnsnYzoh05TmdEUcRiscgjrCuPGkB+kXWdL7lOp5M7AL1ej8FgQKvVYjQa0el0GAwGfHx88DH5YDQYEQQBX5MJlVqNTqeT5+9GoxGNVoMKFVFRUb0mBHderzckSeq1JKsoirS2tiJJklxSU5IkrB1W2todfuxms1kWSKdW0d7ejtlsxmw2yx2N83+nADo3u91+og60goPTxZHj54BT1R0UC6YgIECf5SvdqSbf22jWVX2XHB8M4ZP7+TK8vtDKdzx0SA6T4ZmsTv4c8YYjx+DVPVRQUBh0BizAgqJDKyh4hhe0WGUEVlAYLrzgyDFgAR5uRw4FhdMdbzhyKCOwgsJpjCLACgrDhDesSIoAKygMF8NpxPLGGpaCws8Zb1iRBm7EUmxYCgoeoThyKCicxgzrCKw4cigoeMYwG7EUHVpBYbjxwJFDQUHBE4ZVhVZQUBh+FAFWUBgmlIwcCiMaQYCEOBUp41R0Zubpkuan05e/8y2WJMePzs+lzs+7vuQqFbS1Qf5OO1XVUrfr6PWOgy2W08hLfzgzciiOHAquGJuoYs0/9UyaqHa8L729sH39DYfgiiIU7BN54XUrnanDAIgMF7h4kYbZZ6uxi7DhOzsffW6jtm7ki/GwZuRQHDkUXJE2WUXaFDVqNSA5Xti++n3nKyXvIziEt+y4xBvvWnnlbRuHj4pIEvgYBRbMUXPLai3Z6WoMeschF5yn4eKFGp56ycrG722YR3ChjmEu8K2g0Df6TqHq2tm72++rVNDYLPHFBjvPvWolZ6sdux00GkifoubmVVoWL1Dj7ycgimDrzDak18Hc2WqmTVXx8edqnnvVxs49jmNHGt4YBD0oraLo0AreR6UCmxU25dp57mUrX3xtp7XN8aYnxqm49nINKy/RMjpGQJLAflKSTUfuMAjwF7j2ci3nnK3hzfetvPYfG0eOjawE78JwVmZQVoIVXON+Jy8Ijr2LDjnmue99bON4peMdCwwQWL5Ywy+v0TJlggqV2jEn7gupU2WPjxX43a91XDBXwwuvWfnwMxsNjSPl3R3Gygwj5RGcUbgw5pyJCAKoBKiulXj3Yxtr3rCyt9Axz9XrYdZZam5drWP2L9QY9Y4Rtz+FKkTRcY1pU1RM/LOeJedreGpNBz9ssTPchSyHN62sgvf5mQmvSgVt7RIbv7fz9EtWNuXY6ehwfD5pgopfXqPl4kUawkIERPup6nJ/sIuO+fGFc9Vkphn46DMbL7xupWCf6NF5hxtFgBWGHJUKRDts2yny1JoOPltvl9Xa6EiBKy/Rcu0VGpLiHX5G3jJASTgEOSRYYPXVWubMUvPaf2y8/q6VsuND33sOryOHYsNScEl3oXDOc4+WSrz+HyuvvGPjWJlj+PM1CVwwV82tq7VkTFWj0bivKgucWJJxzn37bFXnDonxKh64R8cF56n514udBrPWIRTk4bVCKyi4QpD/VamhvkHis/V2nl5jZUeBY2lHq4WsdDW/uk7L+XM0+Pk6BNcd4RUAodM7q7beIQ2hwQI+RsfxruRDFB3awPQMNRPHq/l8vY2nX7KydYddXpYagsfjEYojh8IgIqFWgdUGP/5o56k1Vjb+YKetXUIQHJ5a112p4fJlWmIiBUTJ/XmuSgVWK2zJsbPmDSs7ChwHpqequX6lhuxparRa9zoCuwi+JlixTMOMLDVvvmfl5bdH3rJTTwxQgL2R0VbhTEeSYE+hyMtvWfnPRzZqah29fkiQwKUXOZaFJiSrUAn9EFzBcd4Dh0RefN3Kfz60UdnFL3p/kcjG721cfrGG1VdqGZOoktviqq2SBKOjBX5zu475czQ8/ZKVjz+30dwyOKPVMDpyCChKtIIrtuSLbM43c+iwY1nIaBA4d6ZDXT5nhhqdrlNdduNFdi43VVRLvP+JjRdft7K/SOxRCCqqJP75nJV139j55dVali/WEBHmGOFdCY0onVh2evKvehbOU/PUGocnmNXq3eejOHIojGiKih3DqloNqSlqbrxGw0UXaggOFNye5wKoVdDSChu+s/HMy1Z+ynMsN/WFJMHeQpHf/snCJ1/auPk6LXPP0eDr495obxfBaISLF2o4K0PNW/+18dIbVg6ViF6cPv4MHTkEQcBkMhEWFkZoaCiBgYFoNBokSaKtrY2mpiZqamqora2VK9uPZEwmEwCtra3D3ZRBIThI4JfXaLnuCi3xowV5KccdVCrHElLONjvPvGzjs3U2mpr79312dMA3m+xs2yWycL6dm1dpmZaqQu2mN5ddckQ83XmTlnnnqHnmZSvvfmSjxQvW6p+NI4dKpSI8PJzs7GxmzJhBRkYG8fHxBAcHo9Pp5KLXdrudjo4OqqqqKC4uZvv27WzcuJGdO3dSV1c3IoV5xeUraG9r5+233x7upngdk0ngT7/Tcd1KrVsC48S5JFRcIvLauzZe/4/n67SNTRJvvW/lux9tXHu5lqsv05AQq0LCPbUaYMpEFY//n46xiSr+9GgH7WbP2nTGB/QLgkBiYiIrVqxg2bJlpKSkYDQaXR4XHBzM+PHjufDCC7ntttvYtWsXb7zxBh9++CHV1dXDfVsyQUFBrLp2FU1NTaz9dC3NLc3D3SSvkp2u4rKlGjme1xUCjlG3pk7io89tPP+ald17xX65Trqi7LjEw//s4IsNNm68RsvSCzUEBwluLTvZRTAYBK68RMP7n9jYutPDtabhXAcebBuWwWDgsksv5Z577yUlJQW1Wj2g8wQEBDBz5kyys7O5+OKLeeihh9i0adOIqHY/Y8YMpk2bRltbG2lpU/n+hx+Gu0leJTFehclHcGvOqFZBuxm++dHOsy9Z+e4nO2bL4GhMdhG27xa5+/cWPvnKLhvVDHrX6r3DGAeBAcPwQHtg4HmhB1EbDQ4O5k9/+hP/fuoppkyZMmDh7YpOp2PBggW89dZbXHPNNWg0w6t86HRaLr74Ynx8fAgNDWXZ8otRqc6sFGU6ret+3qku7ygQuef3Fq67zcxX39gGTXi70m6GLzbYWHWbmf/5o4WC/WK3NrnTbo8YzsoMg/V4Q0JC+Otf/8qdd96Jn5+f188fHR3No48+yo033jisQjx+/ATmzp0r/37+gvOJi4sbtvYMB4IALa0ST62xcvkNZta8aR2WUL+6eonnX7OyYrWZp9ZYaWqW+hRQQRBQqUbGMqoHlRm8j7+/P3/+859ZvXo1WjkLmvcJCQnh//7v/7j88ssH7RquWLJkCbGjR8u/jxkzhgULFgxbewYDib47elGEF1+38fuHLBw+OrxeT5IEBw+LPPAXC/94xtr3mq8geWUN1xt4oLN5V4QFQWDVqlWsWrXK7ZFRFEXMZjOtra1YLJZ+WZmDg4N58ME/kpWV5dX7cIeoqCgWL17cTQ/TaDSsXLmSoKCgIW/PYNHX16ESoLpG4r2PrZjNw93SE1g64L2PHUEWvc1oBEA1QrI6erAO7N0eKHVqKnfeeScGg6Hv60oSx48fZ+PGjfz4448cO3YMi8WCyWQiMSmRmb+YycyZMwkNDXV5zTFjkrjzrru46cYbaW4eOgvwrFmzmDJlyimfp6WlMWPGDD777LMha8ug0scrIghQWydRUTUyRrKuNDRK1Df0Mc8VBIQRYq4YEctIarWaa6+5loSEhD73s9lsfPLJJzzyyCNs376djh7ccZ579jmmT5/Ob37zG+bOnetyNF+yeDGfLVnCm2++OST3ajQaWbFiRY8dla+vL0uXLmX9+vU93tvphivRtNkZmqif/rZbArEP9aFr+KJH1/FCW0dEP5KUlMSSJUv6vllJ4pVXXuHGG28kJyen1xe8ra2NjRs3smrVKl588UVsNluf5zUYDKSlpaFRD01fNnXqVH7xi1/0+vcFCxYwYcKEIWnLoOOOj/Nwt7GvlvXU/s7cuN6wYQ1zdULvcdZZZxEbG9vnPps2beL//b//R21trVvnrKys5H/vv5/XX3+917lxSUkJ999/H4888gg2u82t83qCIAgsW7aMsLCwXvcZNWoUixYtGvS2DAWuTBLCaRoT44xD9hgvDMEDb4aXHrwgCMyYMaNPVddsNvPCCy9QWlrar3PX1dfzxz/+ke+++67b5+3tbbz//vusWLGCxx77O1VVVd65GRckJSW61DQEQWDRokVERkYOSZsGE3fez5Erv1LvjfPSCOwNBi7AXrI9+Pj4kJSU1Oc+JSUl/DBAL6WjR4/yf//3f1RWVgKwZ88ebrvtdlavXk1ubi6iN/30XDB37jyX9woONXvWrFlD1q5B43QdgYXOf6Te/zxSHDmG3Yjl4+NDSEhIn/uUl5dTV1c34Gv88MMPvPDCC8TExPDoo4+yb9++Ib/PwMBAli1b5tYSmcFgYMWKFXz66ae0dy0EdJpx2o7Ap9R4OanNnSVfRgLDXplBo9a4XDpqamryyCprtVp56KGH5HXj4WDGjBlMnz7d7f1nzpxJamoqW7ZsGZb2egV3RuARS9+NHyltH/Z+xG63YXGRYdvX19djz6y2trZhE16NRsNFF12Ev7+/28eEhYU55ssj5U0ZAJL8T894TRUdFHpumMSJ7CAjgWF35LB0dLh0ooiNjSU0NHRInS28SXJyMvPnz+/3cUuXLmXNmjUcOnRouG9hQEiuyhF6OAf28RFIThSIDBcwGAXUKsc1m1skCvaJcmmWgd9Az02GkdPxDPscuLWtlePHj/e5T2xsLNOnT+fw4cPD3dwBcfHFFxMfH9/v48aOHcvc8847bQVYdobubS7JwOXX5CPw4P/ouPxiDX4mAY2mM+EdYLPBZ+tt3HyPxesJ6ZwjsDeWkc4IRw6b1UZBQUGf+xgMBm688Uaio6OHu7n9JjIyksVLFg/oWI1Gw0VLl/ZL9R5JSK7+JgxcgJPHCFxxsYaIUAGD3pF3S1A5jEtGg6M2cUjw4A2TgheG4DPGkWPbtm0u56ezZs3ivvt+NyghhoPJ2b84m8mTJg/4+LPOOqtfxq+RhKsqCYL8T/+JjlBh8uk5gbskOQTMC2HkPbfZcRUvPCDPTzHsjhzgEOC9e/f23VCVihtvvIknnnjitImb9TGZWHnFSrfSAPWGc/lJPcwJCAYFD0bgwADQaISeZUBwuN6KnvpZ99C4kRZ6MeyOHOBY53UnAken07Fq1Sreeustll9yCT4+PkPxjAZM6pQpnH322R6f5/wFCxjjhgPISMOlKyUM2Bqk1Qp9rsWKItjdSTg9nAxnRg5v8/bbb7schcExEs+YMYM1L77ImjVruPDCCwkIGCEJirrgdImMiIjoc7+ysjKXRry4+HiWLr1ouG+p37hcqfBgBO68QK+IEoiiJ2cf4cLfiQcZObxrINi3bx//+te/3F6rDQgI4PLLL+edd97hvffeY+XKlURFRXnFuOAN4uPjWbZsqcv93nzzDd55550+9xEEgSVLLiI8PHy4b6t/SH1/F57MgXFxrEoAlcoTIRT68enw4cEI7P0e6q233uLNN9/sl3+yn58f8+bNY82aNXzyySfcfffdJCcnD3vSurlz5zJ2bHKf+1RVVfHuu+/x4YcfunQVTUtLY+bMmcN6T/3FYHBHQx6ckU5QDTxvlUbjSMjXU9NOfDQyRHlEVWZoamrigQceIDAwgIsvXt6v0dRgMJCRkcHUqVO56aab+PTTT3nnnXcoKCgYcn9iPz8/li9f7rIT+eGH7ynYU4BOqyMnJ4cLLrig132NRiPLli1j7dq1Lj3X+oNW45hPajT98O/ttC4757gn/y8IEBYqcN5MNWqVe7WP+ovk4o8aNQQFQJ1fz3Plrm12buBYjjo7W83oGKHHdnvVCu0FRpxps6KigjvvvIu2tnauuOKKfo+kGo2GsWPHctddd3HVVVexceNGXnjhBTZv3jxkgjzj7LM566yz+tzHYrHw3/9+iMVswWK28PHHHzNv3rw+73f27NlMmTyZvPx8r7RTo4E7btJx3iw1Oq1DmF0OLBJykTDnJkogiSd+12gc5UjiY1WDVoa2r2ZKEoSHCTzzdwMW88lhgY7yhs52O2s0Oe/JxyiQECsQHNhzPmtv3s4ZW1qltLSUu+++m7KyMm666aYBJXoTBIHw8HAuv/xyFixYwBdffMFLL73Epk2bvDqCnYxWq2X5xRe7dL7Yu3cv33//vfz7+vXrOXToEOPGjev1mJiYGC5autRrAmzQC8yZqWbBuWqvpLZxyolzdHan2sFgIAEGHaRNUvVL0xU6jxXFoal/fcY4cvRETU0Nf/zjH7n66qv5+uuvsXpQ2zEoKIiVK1fyn//8h4cfftitmNyBMmbMmG75nnvjiy++oKysTP69pKSEL7/80uVxCxcu9JpHmgAgOfJS2b2wOXNc2e3u10EarLmks4haf9tvt/ctvELXC3ijkR4ycCv0EMzhLRYLn332GVdeeSV33303OTk5Ho2eISEh3H777bz33nsDCi5wh8VLlrh0NKmqquLTTz/tlupHFEU+/PBD6uvr+zx24sSJbnUQ7uA0Eo8Mc0x/G8/wTkNHyEMbeGWGIXx4lZWVPPXUUyxZsoRbbrmF77//fsCRSSqVirS0NJ577jlWrVqFTqfzWjvDI8JZunSpyxIpP/74Izt37jzl861bt7qM/9XpdFx++eX4+vp6rd3DJQceXXeYsnl49VmdSY4crpAkiaqqKl566SUuvvhiVq5cyVtvv0V5efmAzhcfH8/jjz/OlVde6bW147NnnM3U1NQ+9+no6OC///1vjwa1lpYWPvzwQ5eZNM+aPp3MzEwvPFRlEDvdGTGOHP2htraWtWvXsvr61Vx00UU89NDf2Lt3b78rDgYFBfHgHx9k3jzPVVK9Xs9ll13m0u953769fPPNN73+/ZtvNroMHwwMCnI7PY/Cmc2IcuToL2azmfz8fP73f+9n0cJF3HHHHfzwww9Y+pF5Iy42jv/3//7kMq2tK1JTUzn33HNd7rd27WfdjFcnc/hwCRs2bHB5nvPPP5/ExESPn6HL6oE4Sn+q1Z3/d916+qzLNph2EnemwKrOdpz8/8lb17+72pz7jRTtYUQ5cgy4LZLE4ZLDPP3007z33rssXrSY2++4g9TUVLfU4+zsbFavXs2f/vSnAdcNXrZsmUu/58rKSj795JM+97Hb7XzyySdcdeWVBAQG9rpfYmIiF154IQcOHBjwc3PnJbRY4accOwX7RaxWCbUaVCpBfpkFwWHtFUUQ7Y4AAkmC8FCBBXM0hIW6qg88sDfJnSlw3nY7X39vx2zuWQidS11y+0X3rOeiBDv3eJ7N9IxdB/aE6uoaXnr5ZX7YtIl77rmba69d5TJpniAIXHvttbz77rvs2bOn39eMi4tj4cKFLvfbtGkTu10kLwDIzc0lf+tWzjvvvF73UavVLFmyhNdee23gGTtdSIBaBd/8YOOmuy1U1XRxIhS6/w+nemNpNfCH30jce5v3jIRu35YA9Q0SD/6tg40/jMDaLc52euEcp40Rq78UFRVx772/4f7773e5NAMwOjaW8/twZeyLeXPnMX78+D73sVgsfPTRR7S1tbk8X0NDAx9//LFLn/CMjAyPjFnuqKH7i6RuwgtdPLC6jFpd3REBrDY4eFjCtULjfWVUwCHAh0pGkp44OJyxAgwOq+6//vUv/va3v7l0o1QJAhecfz4B/v0LTfT392f5JctdZs3cv3//KRUi+uKLL76guLi4z338/Py46qqrBr4UJrkWH5t94EIguuUEPcDz99X7CJ2OGbYRLsBnuiOHN7DZbDz77LN88MEHLvcdO3Ys0TH983LKysoiOzvb5X6ff/45x44dc/u8hw8fdssza86cc5k4ceLAHo4b36EndXDdW54b2PmH24/DKwznOvBQOnJ4SlNTE48//g+OHj3a535hYWGMS05286yOeeiyZctc+mrX1NTIGUfUarVbm91uZ+3atTQ0NPR57ujoGLfm373hjiV34AzeCHw6vX+DyRlnxOqNgoLdfPftt1x9zTW97mM0GontR76tMWPG9BkC6ESj0XDXXXdx8803u+00IkkSJpPJpVcXONLWvvLKK30uT/V8ERd/F0AQBk9SHEEPzhCCwWAwzz0yGPbSKkOF1Wrl2+++48qrrupTKPqTnmfRokVu5XsODAxk+fLlg3ZvEydO5Nxzz+WNN97o97F9fosSAw6Kd+e6HR3QYR3oCCzJ5+n9DGe28MIIdeTQ6XTExcV5XE7lZA4cOEBLS0uf+7grwGFhYSxbtmxEpPAxGAwsXbrU+0n+OkuIDPQOpb6OFKCxScINo3zP53YuW/V86p8NA58DD0JjDAYD06dP58knn+T1119n9OjRXj1/Q0ODS2u0u44c55xzDunp6YPwFAbGOeecQ1paWr+Pc6lFqxiwRLS0OJw6NOouXltqx+8Au/eKtLV5NgfuqWmny7h7xjhyGI1GzjrrLFatWsX8+fOJiIigvb2dSZMmuVxK6Q9qtdrliOlO1g7niOdJvmdvExoaytKlS9m8+Sc3l28cuDIGeaJBb8m389QaK1MnqTAaBbQasNslmltg116R5161Yh+gQ5MzacDpIqw94Q1NYVgF2GAwMGPGDK6//nrOP//8bnWCjUYjM2fO5BMXrof9ISAgoE+hkySJmpoal+eZNGmSW37PQ82iRYt46qmnKCkpcWt/Z/VAwdU+A+R4pcQDf7Hg43Mi55YkQocV2trdcfLoo12ns+R6kYELsIfdh8lk4i9/+QvXXHNNr8swc+bMISIigsrKSq/cbGJiIiaTqde/WywWtyy5y5YtG5F1msaOHcuCBQt47rnn3DtAcr2eKnno8muzQ1PzUGe1O00YVkcOL1w8OTm5zzXUlJQUzj//fM8vhMMwNmfOnD4t0HV1dS5V9piYGC688EKvtMnbqNVqLrnkEoKCg90+xtVIJkojc7Rzp00jwL7oooGen2LYopFaW1v58ccf+1xH1ev1XH/99Xzx5ZdUeTgKT506tc/gAHD4Tx85cqTPfc4991wmTJjg8nrffvstu3bt8pqVWpIkt3JDZ2dnMz07my+++MK987r440gUXsfzcJG7SnB6go3QG/ASHqwDe863335LTU0NoaGhve4zY8YMrlu1ikcffbRfCd+74ufnx69uvtml2vvdd9/16fnk5+fH1VdfjV6v7/M8VVVV/O53vyMnJ8erAnz++efzzjvv9LnU5efnx9KlS1m/fr3LzB6SK/1Z6E9yuqHFPbE8s4UXPFoH9vzF3LFjB5s2bepzH41Gw6/v+PWA11xNJhO/+93vuPyKK/rcr6amhq+++qrPfTIzMt2K/tm0aRO7d+8GHILnjQ0gJyeHrVu3urz+3LlzXUZHOZH6MmJJns+BBwuXhdOE00CF9gIerAN73ru1trby/vvvu6yHFBUdxeOPP84VV1zucvTryqhRo/jLX//KXXfd5TIm+Msvv2Tbtm29/l2tVnPR0otc+j1brVY++eQTt8IG+0t9fT2ff/55t2yWPZGQkOC2f7Q7c+CRSF/rwNBVhT6zGfZwws8++4z169e73C82Npan/v0UjzzyCBkZGb0KpEajYfTo0fzqll/x/vvvc9utt7pcrz1+/DjPPvtsnx1JcnIyixcvdtnOwsLCfoUN9pcvvvjCZVSTIAgsXbq0z6kJOBXMviXUVWcxYjkNRuAzwpGjoaGBxx9/nMzMTCIjI/vcNzAoiNtvv51LL72UnJwcduzYQXl5OWazGZPJRHBwMCmTUkibmsaYMWPccsW02WysWbOGnJycPvdbsGCBW3mzvvrqK5dRT55w4MAB1q9fz+rVq/vcLzU1ldmzZ/P+++/3vpMrI5UAviYBQRh5xiy9ziGgPTarc1ow0gX4tHfkcPLDDz/wxBNP8OAfH8Ro6Hu0FASBqKgoli5dytKlSxFFEVEU3fKy6onPP/+cJ598sk+DT3BwMEuWLEGtVvd5rtraWj755JMBG9vcwWaz8d8PPuCyyy7Dz8+v1/2MRiOXXnopa9eu7VWzOBEN1AsSTBynIjhQoLZ+5EiwWgWTJzrqOfWu4p8G4TbDuQ7szadjt9t5+umnefmll/udVE6lUqHRaAYkvBs3buS3v/0t1dXVfe43c+ZMsrKyXJ4vf2s+27dv996D6YXNW7awzY3rnHvuuUydOrXPffqyZYgiZExVc+sNWoICR4Y4aDRw8WINK5Zq6EN2EQRpxI/A3mDgAuzlDrm5uZk/PPgHnn322UExAHVFFEXWr1/PLbfcwv79+/vcV6fTcckll/TpwQWOTuijDz8acMWI/lBfX8/HH3/scn4aFhbG4sWL++hr+3YmlgCjEe65VcfL/zIwZ6Ya/dDnqAMc6vDYRBV/vl/PE3/RExUhuFgHFka+AJ9plRlqa2r57W9/y4MPPkh5+fFBuUZLSwvPPPMMN9xwA4WFhS73nzhxInPmzHG538GDB90yxnmLr7780i2f5wsuuIBRvUV1uREMIEmg08AF56l57WkDf3tQz8RxKg8zdfSP0GCBm67V8s6LBn59k5bgIGHEWseHGg8qMwwOra2tPPHEE1x55Uo++ugjWltbvXLejo4OtmzZws0338z//M//uG1oWr58uVt+z19++SWHDx8epKdyKgcPFvH111+73G/SpEm9uqPa7bgVj+us9BcSLHDzKi3vvGDg9l9qiQgb3CHOYIAL52p4+d+OjiNlvMqlBxY43k2LRcJsOfOlfFgdOXrDZrPx7bffsmrVKq6++mo++ugjqqurkfrZ7YqSRF1dHevXr+e2225j2bJlvPnmm26r6KNHj3Zr6cjdNLDepKPDyqeffuqyg9NqtSxdtqxHg5fVBl9ssNHY7F7uK6fwJI9xqLJvPGvgogs0+Bi9+y6oVDB5oorH/0/Pmif1zJ+tRq91zyvMqTZvyrFTVX3mC7AHvtCD/3AaGxv58MMP+eqrr5g8eTLTz5pOxrQMxo4dS3h4OCaTSV4PliQJi8VCS0sLNTU1HDp4kB07d/LTTz+xa9cumpqa+n397OxsoqOjaW5u7nW+qVar+f77793ykPI2W7ZsITc3l6ysrF6Nf4IgMHHCBFJSUnqsfPjxFzaiIi3cfoOOmGjBrRFOFB1B+bNmqElNUfHJl3aee9XK9l12jwuFx0QKrLxEy6qVGpLiHSOuOzHDAg7Bb22Djz638ci/rHQMvKT0acOIWEZyRVtbGzk5OeTk5KDVavH39ycoKIiAgAB8fHwQBAFRFGlvb6ehoYGGhgaampo8KgoOkJ+fzyWXXtLnRFEQoLz8OE3N/e8gPKW6uppf/epXREZEuHLH6DVIw2yBf79gJWeryC3Xa7ngPDV+foLLWF0Jhwru5ydw1WUaZs1Q8+b7Vl59x0bJ0f5rIn6+Agvnq7npWi2ZU9Vo3BxxwSG4djts2+FIEvDR57bBCWH0MmeEI0d/sVqt1NbWUltbO+jXKikpcTs4fjiQJInCwkK3jHF9YbPD5jw7u/eKXDjXsWyUkapGrXEtRM4ROzZG4H9u13HBeRqef83Kf9faaGh0/YpqNTA9Q82tq7XMPUeDn6/7NYqc/s7HyiRefcfKa/+xcbR0hDpv99R+L5zjtBNghcGjpVXi3Y9t/Jhr59rLtVyzQkv8aEFOX9MXouQQprTJjrnrovkannm5g+8327FYTt1fECA5ScX1V2q5fJmGyAhBLjTmCqe63NAo8ek6O8++7FDfB5qeZ9jwwhA8bBk5FEYuZcclHn6yg6822rlplZYl56sJChDcEhC76HBzXDhPTVa6gQ8/s/Hi61YK9ouyWh4RJnDpRRquv1LLhLEqR4VDN+fOKpUjHe1PuXaeednK+m/ttLWPfHV5sBi4AP98n9nPArsdtu60c+f9ImvXqblttZYZme7NTbsuO91wtZY5M9Vs+N5O0SGR0BCBWWepmZaqRq8/URjNFapOv+f9RSIvvGblvU9sp7+VeTgzcij8PGhrl/jkCxtb8uxceYmW66/SMCbBsebkSvCcf0+KVzEmQYVdPFEc297PeW5VtcR7H9t4/jUrBw6JIy64Yrj42VRmUPCMqhqJfz7XwfrvbNx0rZaLF2kIDXbMW13Jktgl80d/lsrVnctCG76z8fTLVn7KtdPRMdxPYmShjMAKbiNKULBP5DcPdrB2nZ1brtcy+2w1Br17xid3cS4L5W238+wrVj79yk5j09ANuSaTieioaJLHJRMfH09oaCg6vQ6L2UJ5eTl79uxhz549A/It8DYj2pFDYWRitkh8tdFG3nY7lyzWcNMqLROTHcYoT3yUhc4yLkdLJV77j5VX3rZSWj7475lerycyMpKUlIlkZmYxbdo0xowZQ1hYGDqdDpVKhSAISJKE3W6nubmZHTt28PLLL/P555+7zCgzmCgjsMKAqauXeOF1K99ssrP6Ki0rlmkcUUJuqNVdcS4L1TVIrP3KMeru2D14y0JqtZrQ0FDGJo8lY1oGmZmZpKSkEBUVJdeXkiQJURRloe2Kv78/5547m4yMDNasWcMjjzwyoNH4Z+nIoTCykCQoKhb5/UMWPltv45brtcw/V42vj3vLTs5loU05jmWhr7/z/rKQIAgEBAQQn5BA2tSpZGVlkZqaSmxsLH5+fqjVKkRROkVYHSGJgjz6dt1sNjs+Pj7ccssttLe38/DDD7vMAnpKu7xwb4oAK3gFqxV+2GxnZ4HIovlqbl2tY+pkFWp1z4YreVnogMjzr1l592MbNbXeEVxBEDAajYwaNYrJkyeTlZVFeloaSUlJBAUHo9VokRBlobV1OnALgoBapUZQCdisVuobGqivr8dsNmM0GomMjMTk44O984YkSUKtVnPTTTeRl5fHunXr+tfQ4XTkGPHB0grDQlOzxFsf2Phhi8iqKzRcfZmG2FEnwgCdy0KVVQ6vrxdf9/6y0LRp07jvvvuYMGEC4eHhciZTp0pssztGSofqrkKlUiGKIs3NzRw9epSdO3eSm5vLzp07qKyqwtJuxmA0MmnSJG644QbOPfdcucKHJEkEBwezatV1/LBpE+2DnIziZAZuxFJsWAp9cKxM5K//6OCLDXZuXqXl/PPUBAcJNLdIfP29w/3xpzw7Hsab9IhGo2H69On4+/tjt9u7qcVOgxQ4KlEeP36cPXv2kJuby9atWyksLKS2trbH6K5jx46Rm5vLo48+wiWXXCqHj9rtdrKzsxiXnMyOHTvcb6jiyKEwkrHbIX+HnTvuF0mfomLSeBWHj0pszrP3O1pIEAT8/PyIi4sjPT0dHx8fXn755R4twEVFRRw8ePCU+s02m43a2joOHCgkPz+fvLw89uzZw/Hjx+lwc4G5traWxx77O+np00hMTJRH9ZCQEGbMmNE/AfYCiiOHwqDT1iaxaYudTVv6FyxsMBiIiYkhZdIksjIzuy3vlJeXs27dOg4dOnTKcXV1dezYsYNp06bJn6nVajZs2MAf/vAHjhw54lGml3379rFu3Tp+9atfyZ9pNBpSUlJQqYR+1Wf2FA9GYEWHVvAuWq2WsLAwxo0bR0ZmBpkZmUyYMIHIyEg5cYNTbQ0LCyMlJaVHAZYkiZycHK6++upu1Sh9fX05duyYx2maJEli8+bNXH/99Wg0Gvmz+Ph4jEYfr6WBcodhq06ooKBSqQgMDCQpKYn09HSysrKYPHkyo0aNwtfXF5UgIEoSkiSeMif18fHhrLPO6rUA/M6dO6mtrSU8PFxe0x07diyJiYns3LnT47YfPHiQxsZGQkND5WwtPj4+bhUTcKKsAyucdvj6+hIbG8uUKVPIysoiLS2NhIQEAgMD0Wg08pxSFEW6rj4JgiCPphaLhePHj2O329FqtT1mXjly5AhFRUVERkZit9tla/HUqVO9IsBmsxmbzdatakVbW1u/ssAo68AKIx69Xk9UVBQTJ04kK8vhppicnOzwL9Y5kkzLyztdHCGcAisIgpyF5eDBg2zdupWcnBwKCgooLy/vVWBaWlrYujW/Wz1lrVZLdnY2r7/+uscJCAODgjAajSeKrAkCRUVFg57T/GQUAVbwOgGBgUyZPJmMDIeb4sSJE3t0U+zm9YSAoHIIrd1up6mpiSNHjrBzxw5ycnPZsX0HJUdK+kwweDK5uXmYzWZZrZUkidTUVEJCQlxW43DF7HPOwd/fH0mSEASBtrY2vv322/4Vg1McORRGInPOPZcnn3wSf39/1Gq1Qx3uwafY4UThyITZ1tZGWXkZewr2kJubQ37+VoqKiqirqxvwaFlQUEBFRQVxcXFyDa24uDjGjh3rkQDPmTOHVatWyQ4gKpWKLVu29L8q5XCuAyuOHD9ffHx8GD16FKmpUwkKCuKNN97oZnktKSmRVdue1GJwJNo/fvw4hYWF5OXnk5eby759+6ioqPA4m6iT8vJy9u7dS0JCgqym+/n5MW3aNH766ad+ny8gIIClS5dy7733Mnr0aERRRFCpKCsr4/HHH6e+vn7IvwtFhVZwm0mTJnHR0qVkTJvGuHHjiI6KZkvOFt54441u+xUXF3Pw4EHCwsK6jbqNjY0cOHCAbdu3kZuTy65duygtLR20eaPFYiEvL48LLrhA/kytVpOVldWr8etkdDod8fHxnHPOOSxatIgZM2ag1+tlraDDYuGll15i8+bNw/GVKI4cCu5z6WWXcu8998qjmUqlor6+/hQvpsbGRrZv385ZZ50lf6ZWq1m7di333XcfTU1NQ1Y4PD8/n5aWFkwmkzz3njRpEpGRkT0WSler1YSGhDA2OZmMjAyysrKYMmUKMTExDiu5Xeym0qvVaq688komTZrEf//7X9atWzekhizFkUPBLQRBIDAgsFvInUqlora2tscwutzcXFavXi07OoCjVI1zSWeo2F9YSGlpKePHj5dDAaOjo5k4cSLHjh1DEAT8/f1JSEggLS2N7OxspkyZQmxsLP5+fqicc3hR7NE/WqVSkZCQQFJSEvPnz+eNN97gT3/605Bl61AcORTcQqVS9Vhfqa6urkeB3L17N1VVVYwaNUoesZOTk4mNjWXv3r1D1u7qqip27drFxIkT5XYYjUbOP/98jD5Gzpp+Funp6Z2hhkGOUEPnOrQkIdpsctSSMzbYiVOwnZvRaOT666/nyJEj/Otf/3LZNsWRQ2HIUKvV+Pr6dvtMFMVeK2SUlpayf/9+YmNHd1ZaEAkLDSU1NXVIBdhut5Obm8Mll1zSrd1XXXUVV1999amhhp3ahCAIqNVqwOG0UVdXR1lZGYcOHaSlpZWQkBCmTZvGqFGj5A5MkiQ0Wg2rVq1i7dq1LqtVKo4cCr2iUqkICAigra0NS0+lEfqJRqPBaDTSddyw2+29Wl7b2trIz89n7ty58mdanY6srCzeeeedIVWjt23bTkNDA0FBQfJ1nWvDTrXYKbAC0GG1UldXR1FREdu2bSM3N5cDBw5QUVFBU1OT7AE2dmwyv/nNvSxdulQemUW7SGJiIvPnz+e5554b9HtTKjOcIQiCgK+vL6NHjyY1NZWsrCymTp3Km2+9yYsvvOjx+bVabXfPIxxLRHV1db0ek5+fT1tbG0aDUU6COHXqVIKCg6nzoLaVWq0mLDSMcePHMWXKFL766isOHDjQ6/6HDh3i8OHDhISEnJIyR6VSI4p2GhsbOXLkCDt27OgM5t9JSUnvjiNWq5W9e/fwu9/9jvDwcGbNmiWfW6vVMm/ePF599dW+E94NqyOH59dW8CJRUVE88sgjZGdnExwcLGdTDAkJYWv+VrZv3+7R+XU6nexJBYAg0GG10tDQ0Osx+/bto6ysjLFjxyKJjnllQkICSYmJ/RJglSDgHxBAYmIi6enpZGdnMWVKKqNHj8bX1xebzdanANc31LN9+3YyMzO7NF+goaGB77//npycHLZu3crBgwepq6vrtVRrT1RWVvLss8/KMcrO+fPEiRMZPXo0RUVFvR+sOHIoOKmurubQoUMsXrwIEORMFAkJCdxzzz386le/orm5ecDn1+v18gvqxGw292ltraysZM+ePYwbN06eYwYGBpKenk5eXl6f13M4i4xmypQpZGdnk56eTmJiohz0IIkSouTwgsrMyuKFF17oPamcBDk5ObL3FDimGCUlJdxzzz1UVVV59Ox/+ukn9hfuJ2NaBna7HVEUiYiIID09vW8B9gJu1GXvGWUEHllYrVb+/e9/8+2333WLgRVFkfPPP5+VK1d6dH6DwSDH5AKy/29fAtzR0UFubm63EU2j0ZCVldVteQkcI3xs7GgWLFjA73//e95++20+/vhjnn32WW6++WYyMzMJCgoCHKq7XTwxd02bOpWIiIg+279r1y6qq6vlZyOKIrGjRxMTE+Pxs6+trWXj1xu7dW46nY65c+f2K7xwIHhgxFJEeDAwGo1ERkQSFx9HeHi47DBfV1dHSUkJxcXFNDY29nhsdXU1Dz/8MOPHjycqKkoe9XQ6Hbfddht5eXls27ZtQO0yGAxotdouL6lDgNvb2/s8buvWrTQ1NuEf4C+rl5MnTyYyMhKz2cy45GSmdTpMTEqZRFT0qUEPsmWYU5PQlZaWkpOT49IodvToUQ4cOEB0dLR87qDgYNLS0jyeXgB8/fXX3HjjjfL3JUkS2dnZjB41muLDxR6fvzcUR45hRqfTERkRwYSJE8nMzCQtPZ3ksWMJDQ1Fr9fLSxk2m42mpib279/Pe++9x4cfftijBXjz5s38+9//5sEHH5QFThRF4uPjueuuu7jlllsGpEqfHKwuCA6PK1cCfPDgQUqOlDB16lTZiSM2NpYnnniCyMhI4uPj8ff3l4VSEqUeDE2OUbO93UxFxXH27t1Lbm4u+fn5FBYWUlNT43Le2traytatW5k9e7b8mUajITs7m1dffbVf896eKCwspLi4mPT0dFmNjo6OJnVq6sgUYEV8B4ZarSY4OJixY8cybdo0sjIzSZk0iejoaHx8fE68yF2SiHc97he/+AVZWVnMmzePP/zhD6fMsSRJ4pVXXiEzM5Nly5bJL6ZTlb7yyit59tln+91uk8kkx++CQ7Dq6+tdLlHV1tayc+dO0tLS5PYZDAYWLFggt8u5Oc+rVqkRBIGOjg5qamooKioiPz+f3NxcOQndQJbGcnNzaW9vR6/Xdz5bkSlTphAaGkplZaVH32tdXR05OTndEunp9Xrmz5/P2rVre/S7Vhw5TgMEQcDP34/4+Himpk4lOzub1NRU4uLiuoXbyd4/XV5k59qihAQSshujRqNh0aJFGAwGbrvtNsrKyrpds7m5mccee4xJKZMYM3aMfH69Xs+tt97K5s2b+52VwmQyOYxHXVTV+vp6lwEBoiiSm5vLypUru83Nu66/OtViu81OQ0MDJSUlbN++nZycHHbu3MnRo0dpbW31eO3YKfwJCQmdz9uhDSQnJ3sswJIksW79eq666irZ71qSJObOnUtaWhq5ubmnvhseXdGBIsCDgNFoJCYmhkmTJjmqAqSnM2bMGEKCQ9DqTqi1p3j+qFQIKhU2m43W1lZZPfX19cXHx6fbyGy32znvvPO47bbbeOCBB05RAXft2sWjjz3K448/3m15Iz4+nrvvvpvbb7+9X/66Tu1ARpJoaGhwK1Z3x44d1NXVERYW1k0InYaw0tJSdu/eLedmPnTokNvn7g8VFRXs3buXpKSkLuGFvmRkZPDDDz94fP4d27dz8OBB0tLSulmjf/e733HPPfec6pk1nOvAig3rVAwGA6tWrWLevHmMGzeOiIiIbtkUT04b09Ug09LSwrFjx9i1axe5ubns37+furo6BEEgNjaWpUuXsnjx4lOWci655BLef/99tm7dekp7PvzwQ6ZPn851110nHyPa7SxcuJAff/yR559/3u178/X17SbAEvTqRnkyJSUlHDx4kIiIiBMdjSDwwQcf8Nprr3HgwAGqqqr6XVuov1gsFnJzc1m4cGGX70BNZmYmer3eY4+12tpacnNz5emCk/nz5/PW22/xm3t/w6ZNm7x6TwN35FAmwT0yb948LrzwQqxW66lpY7oYZMxmszwinGyQOflFLigoYOPGjRQUFHDfffd1G1EjIyKYN29ejwJsNpv5xz/+QWpqKtOmTXMYkXAYzm655Ra2bNnCrl273LqvroYmcHRI7gawNzU1sW3bNs4++2z5M7VKRWlpKd9+++2Qfj/5+fk0Nzfj6+srP8OUlBQiIyM5cuSIR+eWJIlPPv6YFStWEBwcjNls5nhFBYX797Nt2zZqamq6HzCsjhxeeZynB043xdjYWFJSUsjPz6e4+FTLotlsZsuWLcybN+8U9U8U7dTW1p1ikCkvL3er5zebzbzwwgtMTEnhypUru41ks2bN4umnn+5RJS4pKeFvf/sbzz33HIGBgfJLm5SUxL333sutt97qllXa39+/WySOo8qB+95Uubm53fJTAWRkZODn509z89AVyj5w4ABHjx4lZdIkJLsdURKJiooiJSXFYwEGyM3L45lnniEkJITNmzcPetICxZWyF/QGA9GdX2xmZiYZGdMYO9aRTfF///d/eeaZZ3o8Lj8/n9aWVnxMPnLCs6amJh5++GE2btzokUGmvb2dt958k0ULF+Ln5yfPhxMSE4iMjOx1TrthwwZeeeUVfv3rX8ufiaLIBRdcwKWXXspLL73k8tq+vr6yADszRfYnhUxBQQGVlZXExsbKxrqxY8cSHx/H7t27B/W77EpNTQ27du1i8uTJjrS1ksNmkZmZyeeff+7x+c1mMw8//LDcUQ42A/bEOtNEWKPREBkZyTnnnMPdd9/Nq6+8wscffcxLL73E3XffzaxZ5xAZEYmuM6LmZE8iJ/v37+dY6bFuo5VWq2X//v3s3buXlpYWj6ype/fu5XBx8YnqeKJIcFAwcXFxvR5js9l4+umn+e677+R1ZadV+o477iA1dUqf1xQEobsfNI75ZG8OJT1RVlbG/v37UTkt6531hFJTU73x9bmNI7ww95RpSkZGBiaTyWvXGArhBQ8EWDrNlWiVSkVQUBDTpk3jhhtu4Omnn+ajjz7irbfe4sEHH2TRwkXEJ8Sj1+tkv2JREjtTk04hMjKyx/NWV1eze/fubuUnTSYT2dnZXml3fX09+wsLuywxOTqfnoLtu1JZWcnDDz9MeXl5N3fCpKQk7rzzrj5fXrVa3e3vAgLt7e20tLS43e729nby8vIQu7obarVkZWV1t24PAdu3b6e+vv7EMxRPJBs43fhZLSOZTCZGjx59ouhzFwd5rVaL1JmFoWsNWTg1m6IkOWrzlJaWnnINm81Gbm4uy5cv73I8ZGRm4OPj4/FcyJEzufucVZIkt+bRvXlpLVy4kE2bNrFmzZoejzslmF9wJE7vjwBD5/SitVU2wkk4wguDg4NPNfAMAGcMdFJSEpMnT2bTpk09BhMUFxdTXFxMaGhop2FPIiIigrS0NPbt2+dxO9xFceRwgU6nIzIykomdbooZGRmMG5dMWFi421UBbDYrtbV1HDp0iG3btpGTk8Pu3bv7NHhs27aNxsbGLkYjifHjxjNq1Kg+w97cQa1WExDg362tTU1NPXYmJyNJEq+++ioZGRlcfPHFsmujwWDgjjvukCsenIxWo5Gtts5rNjc397sz2r9/P6WlpYwbN67buvSYMWMGLMDOTtkZtZSWlkZiYiJBQUE88MADPQpwQ0MD27dvZ8aMGUiSRGtrK+Xl5ag1ao++m/6iOHKchEqlIjQ09BQ3RWdVAEEQeqwKAAKqzqoAol2kqbmpW6X27du3c/jwYbezKToDyJ1LN6IoEh4WxuTJkz0W4JiYaKZMmSLPsVQqFXv27OnRKt4TTU1NPProo0yZMkV2aBBFRxaJu+66i1//+tenjKwarfaUOXBTU1O/100rqyrZvXs3EyZMkDvOAH9/0tPT2bJli1vn0Ol0REZFMnFiClmdnXJycjJhYWHdOmVX6WO//vprYmNj5TrB+wv3U1PtuRbQLxRHju4EBATwz3/+k1mzZuHr63uKm2JXVIKAIDvJt1NeXt6tUvuBAwd6rdTuivp6RwB5RkaG/JlOryc7O5sPPvhgwPdnMBj45S9vZOzYsY6k4oKA2WzmP//5T78CFAoKCnjsscd47LHHuq0pL168hM2bN/Pii90zeOj1egyduaPghB90fxOw26w28vLyuPjii+XP1J3hhS+88EKP51Or1YSEhJCcnMy0adPIzMpkUkoKUVHRXaKWRMSTgiAkSWLKlClERUVx9OjRU867YcMGNm7c6JV0Q8PJwAV4BNqwWltbEUWRgMAAbFZbr2pxR0cHldXVFBZ2r9ReUVHhdqX2Ph+NJJGTm8u1117bzUCTnp5OQEBAv6y3TkaNGsVtt93Gddddh0qlkpeovvjii15LbPbF+++/T1ZWluyl5VCl9dx6261s2bKlmyqt1+sxGI3dtI+GhoYBeU6dOr1w5GmOiIigtLS0W5rXqVNP+I7Hxsbi5+fXrVM+2UnG+R3b7Y4UOdXV1b0a97xV/cEjhtORYyTS0dHBli1bWLRoUbfPpU6/3eLiYtlJfteuXV4p9twbu3bupKamhoiICPlFTUxMJDEhke073Is/1ev1jB07ljlz5nDZihVMSkmRpwEqlYqdO3fyt4ceGlAOYovFwj//+U/S0tK6+e4mJSZxzz33cMcdd8ijusFg7BbML0lSv5w4unLw4EFKSkrksDtJkoiJieG8886joaGBs87qTPM6JongoOBuxraeXFEFlQAStLa1Ul5WTkFBgaxFFRUVDUu5k6FkRFRmUKvVGAwGjEYjarUau91Oe3s77e3t/V5P27p1K01NTXJgtUoQOF5Z6TDSbNlC4xBVBXAGkEdFRckvalBQEFPTpvYqwCeHGk6fPp1p06YRGRnZLcwQTqyj3nPvvXz99dd89dVX/Raq4uJiHnroIZ599ll5RJQkiUWLFvHdd9/xyiuvAGA0GtDrdCf8qftIJ+uKuro6tu/YzrT0afJ9GI1G/vKXvzhG+j58x3uqrbS/sJD8vDxy83LZt3cflZWVI2N0HSKGZQRWq9WEh4czYcIE2QgRFRUlL+dYO5OlHT16lB07drD5p5/YX1jolnpbVFTEkSNHSE1NlX1/fX19aW9vp2EAqutAcdSn3co555wjf+asT/vqq6/Kc1g/v85Qw051cerUqcTFxuHn71AX7aJdTgjXFUmSGDVqFCtWrGDp0qV888033H///f02kq1fv56XX36ZO++8Uz6v08Ejf2s+BbsLMBqNaLq4QHoiwJIkkZuTyzVXX9NteuHn5wc9qMUqwTHKOjNgnrwacOzYMZdJBc5kPPCF7v8optfrmTZtGkuWLGHOnDmMHj0ak8kkz+kAeW4Hji/wiiuuoKqqig0bNvDcc8+xa9euPkdQZwD51KlT5fP5+fmRlZXF999/P6QP90QAuQ5Jcrz4U6dOJTMzk8jISLKzs5k2bRpjxowhOLh3dfHE/B1AOKUigFqjZsGCBYiiyM0339xnqteTsdlsPPPMM6RPS+fc2efKqvTYsWO5+667+dWvfoWPj083zzOb1TqgebyTnSdNL5zfU7fVgM6UOd1XA7ZRXOz+asDPgSEZgQVBIDU1lVtuuYX58+cTEhICONZHuwax90ZkZARXX301Z599Ng8++CAff/xxr19g1wByZ0egUqnIzMzEYDD0nafXyzgNY/Hx8Z2WUpExY8bw5ptvEhAQ0Ku62LUqgMViobm5mbKyMurq6lCpVMTHxzNq1Ch5Pkxn53DeeeexcOFCXn/99X61s7Kykof++hDjxo4jKjpK/k4WLlzIpZdeSnNTkxzMLwgCZoulz3Syrjh69ChFRUVERUchdZboRHKsBhw/fpw9e/aQ54zQ8mA1YKRzWjhyaLVaLr/8cn7zm9/IdVq7fhknas6cSFUrdN7ciSUgCbCTmJjIw488THt7O1999VWv13QGkIeGhsoj2oQJE4iOjnZ7vdQbOF/GxMREuZPSaDRyYPspVQEEsFodUT4HDx5k27ZtbNu2jYMHD3Ks9BitLa0IgkB0dDRXX301N9xwg+xg4Uxet3z5cj766KN+573asmULTz/7NH/4/R9kYTUajfz6179mw4YN3Xy7zWazRyNwc3OzHF5YVVVFYWEhW7du7ZYyxxurASOdEe/IodFouPnmm7nvvvvw9fU9JY2K1WqltLSU4uLDFBU5grqdNXRSJk0idUoq/gH+8stvt9uJjorm/vvvZ8+ePb16HzkDyMPDwx3zYFEiMjKSlJQUjwXYuS45fvx4RFHkxx9/7FUbcNan7RpADshWZOeSR1NTd8eRHTt29Ok4cvDgQf7y57/Q0dHBPffc0823OT09nYkTJ5KTk9Ov+5IkiVdefoX0tHTZS8upMYSHh8vXcGbR6K8b5cn85z//oaCggF27dskRWj87hrUygxvdx0UXXcRvf/tbfH19u3kO1dfX880337B+/Xry8vIoKyujra2t28vq6+vL9OnTueeee2SXN3AI8dTUVFauXMkjjzzS43UbGxvZtm0bM2bM6HxOjtEkKyuLTz/9tJ/3eWr5ydTUVBISEti+fTuXXXZZn6PdyQHk4BCWI0eOOAQ2L4+t+fkUFRX1S1XssHawZs0a5s2bdyJYX5IICAggMzOz3wLsfG6PPfZYNy8tQRBkC7XzeTQ3N3tsOCooKOjRbVOhfwxaZYaEhATuvfdeAgICur2UP/zwA48++ihbtmzpcz7a0tLChg0bOHDgAE8++SRz5sw50Qmo1SxdupQ333zzlIRuTnJzczFbzOi0Wrmt6enp+Pn5uVQvjUYjo0aNYsqUKY6gh2npjElKIjAoGG2neilJUmc8a3yf8ayFhYUcO3aMlJQU+TnY7XYeffRR3nrzTWwezO0qKir47LPPumVCVKvVzJgxgxdeeGFAXka7d+/m8ccf55FHHjkRdHDSl93U1PSztvx6DS/o0IMWx3XJJZcwceLEbsWg161bx0033cS3337rtjHp6NGj/OlPf+LIkSPyfBlgwoQJ8gjbE7t376aqsgpBOKFeJo9N7jFuVqvVMmrUKObNm8f999/PW2+9xSeffMJzzz3PLbfcwvTs6QQHh8gFvZyjXVhY2Cn5j07GGUDedQ6p1+uJi4vzSHidfPfdd9TU1JyojieKpKWlkZSUNOBzvvfee7z77rvd2uzEWVPo5zBHPR0YFEeO4OBgLrjgAnmOp1KpOHr0KH/+85/dipo5mW3btvHmm29y332/o6mpmZKSEjndaG84A8jj4mIRxU7Hh9AQpkyZQkFBAaGhoYwZM4Zp06aRnZ3FpEmTiY6OdsS9Cshrr/K8nZOS0LW2UF5W3uNL3hW73U5OTg6XXXZZt88zMzMxmUwez/0KCgrYsWMH8+fNx2a3IYqOFDG/+MUvBlyH12w288QTT5Cens7UqVNlVdo5D66urh70BHQK7jEolRkSExJISkzqluN43bp1Hs153n77bWpqati7dy9FRUUuq8g5A8jnzZt34mY1GlauXMn06dNJS0uTqwL05V/bNQldZUUle/ftJS8vj7y8PAoLC6murnbZdmcAeXBwsKySjhs3jtGjR7N///6BfwU46vBu3ry5Wx1ejUbD2Wefzcsvvzxgr6TDhw/zt7/9jaeeegqj0UhZaSm7O90Uv/76a2UddoQwKEntRsXG4ut3wmhjtVrJz8/3KM3IkSNHTomSccXJAeSiKDJz5kxmz57de25mtVrO+eSsCuBc4igoKKC8vLzfa8knB5CLokhoaChTpkzxWIDBsQTU1NQk58lyWqMTExMpLCwc8HnXrVvH7bffTkdHB3v27PnZuSkONiN2HdjvpBzCzqWSoWbf/v2UlZWRnJzczQJ8QmA5ZTmnpKSEHdt3kJObw44dOzhy5IjHeawcAeTbuqXV0et0ZGdn8+6773p8n7t372b37t384he/kDuI0aNHs2TxEh4tfHTA57Varf222isMLYMiwBaLpZtLpE6nIz4+fshvrqrSEUDuXLN14gw9a2tro6ysjIKCAnJyctm27UQEi7eTkuXk5HLdddefSCoHpKWlERQU5HHETENDA9999123vMsqlYprV11LTm7OkLuQKriHNxw5BsUKXV1djcVi6ebKOGvWLK9l/XMXq9VKXl7eKfPaiooKHn30Ua666iqWLFnSmdTuKbZs2UJtbe2gZBTsqT5tYmIiiYmJXjn/T5s309zc3M0aHRcXx7PPPsstt9zSaxZNhWHECzr0wAt899F9HD58mOrq6m4v06xZs7juuuvQd8nsMBRs3baVxsbGbgESTU1NvPTSS2zYsIGysrIhmdcdO3aMwsJCR/wqdKtW7w127tjBtm3b0Gq1aDQa7HY75eXlHC453M23WmHkMKxz4L6mhMePH2fnzp2yD7DTr/b+++8nJSWFz9Z+xpGjR2hvb8dqtcquhWq1Go1Gg06nkze9Xo9Op+/0E3aEGVZXV1NdXe2WMenQwUOUlJTIQevOMLzx48f36gQyGLS1tZGfn8+cOXNOPPzOdDIvvfSSx876jY2NvPTSS+h0Ovbs2SNX9hvMpAUKnuGON6MrBm0O/P777zNv3jyMnalYnPmRr7rqKpYvX05LSwsdHR3y6OccJZybRqPp9js4RnKz2UxDQwMHDhxg/fr1rF27luPHj/falrq6Onbs2N6tPq3JZCIjI4Ovv/56MG6/V/Ly8mhra5O1EGfeprCwMCoqKjw+/6effsqGDRvk1EIKIxtvrMQNWkaODRs28OWXX7J8+XJ5dHGus+p0OkJCQnp2gpBOjTU+4YfrcHMMDg5mzJgxzJs3jyuuuIKHH36Y9evX9/jSiqJITk4uV111tTz/VAkCmZmZGI3GIXUJ3Lt3L8ePH5c1E6e1eNy4cV4RYJvN1u8oJIXhwxsjsAdGrL67j9bWVv785z/z/fffo1arUQndL9W1oHW3Tepenb7r8o0knTjOZrMhdAriU089xbJly3pty86dO6mtrZXLeoiSxPjx44mJifHC1+A+FRUVFBQUdKva4Ovr2y17pYJCf/CgtIprDh48yC233MJzzz1HVVUlKpVwimqs7pz7nqw+97Q5OoLu3ZbdbiciIoLf//73TJo0qcd2HDlyhKKiIjmNrLPwcm/7DwRn1I4jH3XP5UI6OjrIy809JR46Ozu7W9I4hZ8HI9aRoytHjhzhvvvu44033mD27NmkpKQQHR2Nv78/Wq1WdqLo6OjAYrFg6bBgMVvo6OjoLGMiodFoMBqNhIaGEhUVRXh4uOz+CA4hTkpK4sYbb+See+45xarc3NzMtq1bmTlzpvyZwWAgKyuLjz76aMD35uPj0xm1NJmsrGzS09MZO3Ys+/btY8WKFT0Gvedv3Upra6sj6Z4o0traisFgwM/Pb0izhSicGQzJ4qDVamXHjh3s2LFDzkCp1+tlt0Wnd5TNZpMDCLpWeBMEQRbiyMhIZs+ezY033ijHrIJDHT3//AU8/9zzFOw51ec6Ny/vlPq0jjzN/jQ2uuclptPqiIiMYMKECXKplvHjxxMWFtbNMJWcnExCQgI7duw45RwHDhwgZ0sOgkogJyeHvLw89u7dO+AkcQqnL8ObkWOAV7fb7bS2tvZ7acNms2E2m6mvr2ffvn0UFBTw3HPPMWrUKHn+HBYWQUZmRo8CvGdPARUVFcTFxcn7jxkzhri4+F6r1DvTvDqjlrKyspg0aRLR0dF9lmoJDg4mPT29RwGura3lxptupLW1ddCKPiucJgyvFXp4+eGHH3jrrbf4zW9+I3+m1WrIzMzktddeO8UiXVZWzr59+0iIT0DEYSgLDg5m6tSpsgB3TfOaOjWV7CxH9o2eopa6u2aCIHT6VIt22lrbejWQiaLoVgSTws+A4VwHHgnRZJ9++imrVq2Sk8RJksSYsWMwmUynLKeYzWby8vI4//zz5c+0Wi0zZszgp59+IiUlhaysLDnNa0hIiNtVAdra2zheflyurZSfn++VKCMFBVcMUIClYR+BwRG0X1lZSUREhKzC+vn5YTAYelwPzc/Pp6WlBZPJ1K027syZMwkPD3erKoCAgKXDQmVlpVxbKTc3l71793qttpLCz4NhdOQQGH4l2iFo4kkuiH05mBQWFlJaWsr48ePlEdvf35+AgACkk+axjoglFarOqgD19fVDWltJ4cxHEDyX4EHJyHEyBoOB6OhoJk2aRGpqKh999FGfieDcJTIykrDw8G7OHnV1db0ah6qqqti1excTJ07sZr3uqSpAS0sLx44dY9euXeTk5LB9+3YOHTpEY2Ojko1CwUt4PggOSkaOrkyfPp27776biRMmEBEZKZfp8FSABUFg8eLFREZGdjMoFRQU9Doq2mw28nLzuGT5JfI5uqbMqaioYO/evfI8trCwkJqaGiX/k8KgcFo4cuj1es455xx8fHywi4713Ysuuoi33nrLo3QvF1xwATfccIM8YjrDBNetW9fncdu2bXPkafbzpbqqmqKiInkeu2fPHsrLy0/7os8KpwcjvjIDOALZd+zY4UgBK4EoiSQkJHDHHXfw29/+tt8Z/g0GAxdffDEPPPAAERER3RLGf/bZZ/z00099Hl9UVMQTTzxBZWUl27dv58iRI7S2tipqscLQM5zrwO52H/X19bz77rtkZmZ28w++7LLLqK2t5e9//7tbdXZ0Oh1paWlcf/31LF68uFu1B7VGzbat23jsscdcRhc1NDTw97//3fMnp6DgIcOqQvfHgPbpp59y6aWXcvbZZ8tB9TqdjltvvZWkpCRefPFFtm/fTlNTU7cR1c/Pj+iYGDKmTeO8886Tl3ucnlTOOez2bdu59957+10bV0FhOBnWgP7+9B5VVVU89LeHeO7Z54iOiUa0O9ZZ1Ro1S5Ys4ZxzzmH//v0UHTxIfV0dCBAUGMSYMWMYPXq07Gvs9JEG5CCIL7/8kgcffFBxnFD4WTJkjhzff/c9DzzwAA899BCRkZEOQZQcvtF+fn5kZ2czffr0bkW0HEs8IqJ4wqnCWV6ltLSUl19+mTVr1iiBAAqnJ6eTI4ckSfz3v/+lubmZ3//+90yZMgWgx4oIp1xNOLE+W1payldffsUrr77C7t27ldQxCqcvw+nIIQ2g+xBFka+++orCwkKuuuoqli5dSnx8PHq9/kS1eZxzA8fvHR0d1NfXs2vXLr799lu+/vprCgsLlbVZhTOAYXTk8ISSkhL++te/8tprr8kBBAkJCQQEBKBWq7BYOqirq+PgoYPs37efgwcPcuDAAcVtUeGM4rRw5OgNURQ5evQoR48e5YMPPkCr1aLT6RAEQc7QoYyyCmcyp4Ujhzs4VWUlkkfhZ8VwVmYYAcFICgqnNd5QoQcuwIrnoYKCRwxzXmgFBYXhZuDFzRQdWkHBM4Z1DqygoOAZXnDk8KAygzIJVlDwBG9EsPZbgC0WC1qtdsjr/CoonEmo1Wp8fHywWMweSXK/BNhZ3V6r1crlOhUUFPpPQkICcXFxHDly1CNdtl8CrFKpOHbsGHl5edx+++0kJiYO93NQUDjt8PPz46677qKpqYn8/PweC+G5S7+PtFqtvP7662g0av7xj38wZsyY4X4eCgqnDUFBQTz44IPMnDmT559/nrq6up7rZLuJOiws7I/9OcCZPG7v3r3MmDGDSy65hJqaGo4ePar4Liso9IJarSY9PZ2//e1vTJ06lSeffJLc3FyPRl8YgACDQ4jr6urYsmULISEh/PKXv2Tq1KlUVlZSXV3dZ2yvgsLPCZVKRVJSEnfeeSf/8z//Q01NDX//+9/ZvXu3x8ILIEycOHHAc2hJklCpVKSmpnLVVVcRFxfHli1bePvtt8nJyemxvImCws8BvV5PysSJXHrZZcyfP5+Ojg7eeecdvv/+e9rb270ivOChADsRRRGTyURaWhoLFixg/PjxlJSU8OWXX7JhwwaKi4tPKbqtoHCmoVKpiIqKYubMmSxatIjJkydTVVXFunXr2Lx5MzU1NZ0le7znxegVAQbkYmF6vZ7ExERmzpzJ9OnTMRgM7N69m++//57cnByKDx9W6uIqnDHodDpiYmJIT09n1syZZGZlodfr2LFjJ9999x179uyhpaVFzuXmbbwmwF1x5qkKDAxk8uTJzJgxg5SUFAwGA4cPH2bLli3k5OSwd+9eZc6scFohqAQCAwIZO3YsmZmZnDXjLCZOmIhKpeLgwYNs3rKZbVu3UllZhd1uHzTBldszGALsxDkqq9VqgoKCGDduHFlZWUyePJmgoCAaG5vYs6eAzZs3s3v3Lo4cOUpdXZ2ibiuMGFQqFQEBAYwaNYoJEyYwffp00tLSiIiIoK21jcIDheTm5lJQUEBlVSXWDisqlaOy5VAwqALcFacwq1QqfH19iY6OZty48UyePInExERMJhOtra2UlJRQUFBAwe7dHCoupqKigubmZkWoFQYdtVqNyWQiLCyM+Ph4UlJSmDx5MmPGjCEwKAhrRwfHjh1jz5497N27l6NHj9LY2IjNZutWKG8oGTIB7oqzpKckSajVavz8fAkPjyQhIZ7k5GSSkpIIDw9HpVLR1NREaWkpRUVFFO4v5NDhQxwvP059fT1tbW1KWlmFfiMIAnq9nsDAQCIiIoiPj2fcuHEkJycTFxdHcHAwKpWK+vp6SkpKKCwspLi4mPLychobGx2DiQAqYXDVY7fuZTgE+GS6CnTXhxsZGUlcXByJiYnEx8cTHh6OTqfDbDZTU1PDsWPHKC4u5tChQ5SUlHD8+HEaGhpoa2tT5tUKqFQqDAYD/v7+REZGMnr0aJKSkkhKSiIuLo7w8HBMJhOiKFJbWyu/T4cPH6a8vJy6ujra29vlMj7etiB7gxEhwD0hSRKSKCIBKkFAp9fj7+9PaGgokZGRxMTEMGrUKCIjIwgKCkan1dFhdeSQrq6upry8nNLSUsrKyjh+/DjV1dU01DfQ0tqC1WpVBPwMQKVSodVqMRqNBAYGEhISQlRUFDHRMcSMiiEmJobw8HCCg4MxGo3Y7XaampqorKykrKyM0tJSKioqqKqqorGxEbPZLL8XI1VgT2bECnBPdB2pwfEF6nQ6fHx8CAoKIjw8nMjISCIiIggPDyc0NBQ/Pz/0ej2iKNLe3kZdXT11dXXU1NRQVVVFVVUV1dXV1NXVUldXT3NzM+3t7ZjNZmxWK3ZFRR9yVCoVarUag8GA0WjEZDIRFBREcHAwoaGhRIRHEBYeRlhYGMHBwYSEhGAymdBqtVg7OmhpbaWuro7KqkoqKyuprHD8X1dXR0tLCxaLpVsHPpRGJ29zWglwb5ws2E6DglarxcfHB19fX/nLdwp2cHAIQUGB+Pv7YzAY0KjViJKE2WymtbWV5uZmGhsbqa+vp77eIfTOn+vr62lpaaGtvZ32tjbMZjNWqxWr1YrNasNmtyn1hjtRq9VotVo0Gi1arUYWSh8fH0wmEwEBAQQHBxMUFCQLaVBQEIGBgfj5+eHr64vRaEStVmO327FYLLS0tNDQ0CB3xNVV1VTXVFNbW0tTUxNtbW10dHTIlTDh9BlR+8sZIcB9cbJwg+PLVKvVaDQa9Hq9LOSBgYEEBwcTGBhIYGAA/v4B+Pv74+fnh4+PD0ajEZ1Oh1qtlus52WxWOjqstLe309bWRktLCy0tLTQ3N9Pc3ERraxvt7e3yZjabu20Wixmz2YLNZpOrL3b9+eRNNtpJ3bOinNxhdH1xu953bz+r1epTNo1Gc8rver0Og96A3mDAcNLmFEwfHx/8/PxkAfT19XV8bvRBp9eh1WpRq9VyvSur1drZcbbR0tIsd56NjY00NDTInWZzczOtra0O7chmw2aznfK9CkJntrYzTFB744wXYFc4X4CehFwQQBBUnSOIRp5vOYXZaDRi8jXha/LFZDJhMpkcL6zJhI/JhI+PDzqd44V1nsMpDCcvOTiX2ZzF3kRR7FGgnX+XRBGxS+fk3ERJRBIlR5aHLqOOU03sOhKd+JuqR4FVqVTdNodwCHLHIUoiov1EO51aSEdHB+3t7bS2ttLa2kpLS4vj55YWWjo/a2trkzu99vZ2uRKH1Wo9cY+ShCPzW3fBPNNGUU8YEZUZhhPny9DXS+F8KQEaGhvhJGE/+XzOl90pGD2NaBqNBp1OJ28ajabHzSn8zk2lUiGoVKh6EMSuwoqgktvpLNEqST1vol3EarPKAmi1WuUR7uTNau2go8PxPJzGwO4agw2bzS53Qs7/3Xn2AgIInJGq7mDxsxdgdznxkuGWeuZUsbvOw07+e08/j2yEbrfe07MQevhdrVYPd8PPWBQBHgJ6Gk2UEUbBG5yetnMFBQVAEWAFhdMaRYAVFE5jFAFWUDiNUQRYQeE05v8DyxS0Zn3WtyMAAAAldEVYdGRhdGU6Y3JlYXRlADIwMjItMDctMTBUMTY6MTk6NTErMDA6MDABsiALAAAAJXRFWHRkYXRlOm1vZGlmeQAyMDIyLTA3LTEwVDE2OjE5OjUxKzAwOjAwcO+YtwAAACh0RVh0aWNjOmNvcHlyaWdodABDb3B5cmlnaHQgQXBwbGUgSW5jLiwgMjAyMuS0v5wAAAAXdEVYdGljYzpkZXNjcmlwdGlvbgBEaXNwbGF5FxuVuAAAABh0RVh0aWNjOm1hbnVmYWN0dXJlcgBEaXNwbGF5mRrp2QAAABF0RVh0aWNjOm1vZGVsAERpc3BsYXn4nJwgAAAAAElFTkSuQmCC;" parent="1" vertex="1">
                    <mxGeometry x="360" y="37" width="108.68" height="120" as="geometry"/>
                </mxCell>
                <mxCell id="22" value="&lt;span style=&quot;background-color: rgb(255 , 0 , 0)&quot;&gt;&lt;font style=&quot;line-height: 1.5&quot;&gt;&amp;nbsp; &amp;nbsp; &amp;nbsp; &amp;nbsp; &amp;nbsp; &amp;nbsp; &amp;nbsp; &amp;nbsp; &amp;nbsp; &amp;nbsp; &amp;nbsp; &amp;nbsp; &amp;nbsp; &amp;nbsp; &amp;nbsp;FIREWALL&amp;nbsp; &amp;nbsp; &amp;nbsp; &amp;nbsp; &amp;nbsp; &amp;nbsp; &amp;nbsp; &amp;nbsp; &amp;nbsp; &amp;nbsp; &amp;nbsp; &amp;nbsp; &amp;nbsp; &amp;nbsp; &amp;nbsp;&lt;/font&gt;&lt;/span&gt;" style="edgeStyle=none;html=1;labelBackgroundColor=#000000;labelBorderColor=none;fontSize=16;fontColor=#000000;strokeColor=#000000;strokeWidth=5;startArrow=classic;startFill=1;" parent="1" edge="1" source="11">
                    <mxGeometry x="-1" y="-60" relative="1" as="geometry">
                        <mxPoint x="60" y="-60" as="offset"/>
                        <mxPoint x="167.40476190476193" y="572" as="sourcePoint"/>
                        <mxPoint x="280" y="460" as="targetPoint"/>
                    </mxGeometry>
                </mxCell>
                <mxCell id="20" value="&lt;span style=&quot;&quot;&gt;&lt;font color=&quot;#000000&quot;&gt;SASPOD3&lt;/font&gt;&lt;/span&gt;" style="edgeLabel;html=1;align=center;verticalAlign=middle;resizable=0;points=[];fontSize=16;labelBackgroundColor=#FFFFFF;" parent="1" vertex="1" connectable="0">
                    <mxGeometry x="389.9975950327612" y="199.9988323196216" as="geometry">
                        <mxPoint x="-4" y="-2" as="offset"/>
                    </mxGeometry>
                </mxCell>
                <mxCell id="33" value="THE WILD WILD INTERNET" style="ellipse;shape=cloud;whiteSpace=wrap;html=1;fontColor=#000000;fillColor=#FFFFFF;perimeterSpacing=1;gradientColor=none;shadow=1;" parent="1" vertex="1">
                    <mxGeometry x="50.33" y="450" width="460" height="80" as="geometry"/>
                </mxCell>
                <mxCell id="34" value="&lt;font style=&quot;font-size: 16px;&quot;&gt;SASPOD2&lt;/font&gt;" style="edgeStyle=none;html=1;fontSize=16;strokeColor=#000000;fontColor=#000000;labelBackgroundColor=#FFFFFF;" edge="1" parent="1" target="3">
                    <mxGeometry relative="1" as="geometry">
                        <mxPoint x="280" y="250" as="sourcePoint"/>
                    </mxGeometry>
                </mxCell>
                <mxCell id="32" value="&lt;font color=&quot;#000000&quot;&gt;&lt;b&gt;PORT 443&lt;/b&gt;&lt;/font&gt;" style="text;html=1;strokeColor=none;fillColor=none;align=center;verticalAlign=middle;whiteSpace=wrap;rounded=0;rotation=-30;" parent="1" vertex="1">
                    <mxGeometry x="292" y="399" width="60" height="30" as="geometry"/>
                </mxCell>
            </root>
        </mxGraphModel>
    </diagram>
</mxfile>
